<svg width="24" height="24" viewBox="0 0 24 24" fill="none" xmlns="http://www.w3.org/2000/svg">
<path d="M19 11C19.17 11 19.33 11.01 19.49 11.02L15 3H9L14.68 12.84C15.77 11.71 17.3 11 19 11Z" fill="black" />
<path d="M8.15 4.52002L2 15.5L5 21L11.33 10.03L8.15 4.52002Z" fill="black" />
<path d="M13.2005 15.5H9.90047L6.73047 21H14.5405C13.5805 19.94 13.0005 18.54 13.0005 17C13.0005 16.48 13.0705 15.98 13.2005 15.5Z" fill="black" />
<path d="M20 16V13H18V16H15V18H18V21H19H20V18H23V16H20Z" fill="black" />
</svg>
