<svg width="24" height="24" viewBox="0 0 24 24" fill="none" xmlns="http://www.w3.org/2000/svg">
<path d="M4 9H9C9 7.9 8.1 7 7 7H4C3.45 7 3 7.45 3 8C3 8.55 3.45 9 4 9Z" fill="black" />
<path d="M22 14.0599V7.99995C22 6.89995 21.1 5.99995 20 5.99995H13.71L12.65 4.93995L14.06 3.52995L13.35 2.81995L9.82 6.34995L10.53 7.05995L11.94 5.64995L13 6.70995V8.99995C13 10.0999 12.1 10.9999 11 10.9999H8.96C8.74 10.8399 8.51 10.6999 8.27 10.5699L7.87 11.4599L7.41 11.2499L7.81 10.3499C7.26 10.1299 6.64 9.99995 6 9.99995C5.47 9.99995 4.96 10.1099 4.48 10.2599L4.82 11.1699L4.35 11.3499L4 10.4199C2.94 10.8799 2.09 11.6999 1.57 12.7299L2.46 13.1299L2.25 13.5899L1.35 13.1899C1.13 13.7399 1 14.3599 1 14.9999C1 15.5299 1.11 16.0399 1.26 16.5199L2.17 16.1799L2.35 16.6499L1.42 16.9999C1.88 18.0599 2.7 18.9099 3.73 19.4299L4.13 18.5399L4.59 18.7499L4.19 19.6499C4.74 19.8699 5.36 19.9999 6 19.9999C6.53 19.9999 7.04 19.8899 7.52 19.7399L7.18 18.8299L7.65 18.6499L8 19.5799C9.06 19.1199 9.91 18.2999 10.43 17.2699L9.54 16.8699L9.75 16.4099L10.65 16.8099C10.75 16.5499 10.83 16.2699 10.89 15.9899H16.05C16.03 16.1599 16 16.3299 16 16.4999C16 18.4299 17.57 19.9999 19.5 19.9999C21.43 19.9999 23 18.4299 23 16.4999C23 15.5499 22.62 14.6899 22 14.0599ZM6 17.9999C4.34 17.9999 3 16.6599 3 14.9999C3 13.3399 4.34 11.9999 6 11.9999C7.66 11.9999 9 13.3399 9 14.9999C9 16.6599 7.66 17.9999 6 17.9999ZM10.87 13.9999C10.83 13.8199 10.79 13.6499 10.74 13.4799L9.83 13.8199L9.65 13.3499L10.58 12.9999H11C13.21 12.9999 15 11.2099 15 8.99995V7.99995H20V13.0499C19.84 13.0299 19.67 12.9999 19.5 12.9999C18.55 12.9999 17.69 13.3799 17.06 13.9999H10.87ZM19.5 17.9999C18.67 17.9999 18 17.3299 18 16.4999C18 15.6699 18.67 14.9999 19.5 14.9999C20.33 14.9999 21 15.6699 21 16.4999C21 17.3299 20.33 17.9999 19.5 17.9999Z" fill="black" />
</svg>
