<svg width="24" height="24" viewBox="0 0 24 24" fill="none" xmlns="http://www.w3.org/2000/svg">
<path d="M10.0394 6.29006C10.6594 6.11006 11.3194 6.00006 11.9994 6.00006C15.8594 6.00006 18.9994 9.14006 18.9994 13.0001C18.9994 13.6801 18.8894 14.3401 18.7094 14.9601L20.2694 16.5201C20.7394 15.4401 20.9994 14.2501 20.9994 13.0001C20.9994 8.03006 16.9694 4.00006 11.9994 4.00006C10.7494 4.00006 9.55938 4.26006 8.46938 4.72006L10.0394 6.29006ZM17.3364 1.81006L21.9434 5.65506L20.6634 7.19006L16.0534 3.34706L17.3364 1.81006ZM3.01937 2.10006L1.60938 3.51006L2.97938 4.88006L2.05937 5.65006L3.33937 7.19006L4.39937 6.31006L5.19937 7.11006C3.82937 8.69006 2.99937 10.7501 2.99937 13.0001C2.99937 17.9701 7.02938 22.0001 11.9994 22.0001C14.2494 22.0001 16.3094 21.1701 17.8894 19.8001L19.9894 21.9001L21.3994 20.4901L3.01937 2.10006ZM11.9994 20.0001C8.13938 20.0001 4.99937 16.8601 4.99937 13.0001C4.99937 11.3001 5.60937 9.74006 6.61937 8.53006L16.4694 18.3801C15.2594 19.3901 13.6994 20.0001 11.9994 20.0001ZM7.47937 3.73006L7.93937 3.35006L6.65937 1.81006L6.05937 2.31006L7.47937 3.73006Z" fill="black" />
</svg>
