<svg width="24" height="24" viewBox="0 0 24 24" fill="none" xmlns="http://www.w3.org/2000/svg">
<path d="M14 4H10V8H14V4Z" fill="black" />
<path d="M8 16H4V20H8V16Z" fill="black" />
<path d="M8 10H4V14H8V10Z" fill="black" />
<path d="M8 4H4V8H8V4Z" fill="black" />
<path d="M20 4H16V8H20V4Z" fill="black" />
<path d="M11 17.86V20H13.1L19.08 14.03L16.96 11.91L11 17.86Z" fill="black" />
<path d="M14 12.03V10H10V14H12.03L14 12.03Z" fill="black" />
<path d="M20.8499 11.56L19.4399 10.15C19.2399 9.95 18.9299 9.95 18.7299 10.15L17.6699 11.21L19.7899 13.33L20.8499 12.27C21.0499 12.07 21.0499 11.76 20.8499 11.56Z" fill="black" />
</svg>
