<svg width="24" height="24" viewBox="0 0 24 24" fill="none" xmlns="http://www.w3.org/2000/svg">
<path d="M12 1C5.9 1 1 5.9 1 12C1 18.1 5.9 23 12 23C18.1 23 23 18.1 23 12C23 5.9 18.1 1 12 1ZM12 21C7.01 21 3 16.99 3 12C3 7.01 7.01 3 12 3C16.99 3 21 7.01 21 12C21 16.99 16.99 21 12 21Z" fill="black" />
<path d="M19.7305 11.42L12.5405 4.2C12.1805 3.93 11.7405 3.93 11.3905 4.2L4.20055 11.42C3.93055 11.78 3.93055 12.22 4.20055 12.58L11.3905 19.8C11.7505 20.07 12.1905 20.07 12.5405 19.8L19.7305 12.58C20.0905 12.22 20.0905 11.69 19.7305 11.42ZM13.5005 14.5L12.0905 13.09L13.1705 12H10.0005V15H8.00055V11C8.00055 10.4 8.40055 10 9.00055 10H13.1705L12.0805 8.91L13.5005 7.5L17.0005 11L13.5005 14.5Z" fill="black" />
</svg>
