<svg width="24" height="24" viewBox="0 0 24 24" fill="none" xmlns="http://www.w3.org/2000/svg">
<path d="M20.1493 14.42C20.3793 13.65 20.4993 12.84 20.4993 12C20.4993 11.16 20.3793 10.35 20.1493 9.58C20.9293 8.98 21.1693 7.88 20.6593 7C20.1493 6.12 19.0793 5.77 18.1693 6.15C17.0593 4.98 15.6093 4.12 13.9893 3.73C13.8493 2.75 13.0093 2 11.9993 2C10.9893 2 10.1493 2.75 10.0193 3.73C8.38932 4.12 6.94932 4.98 5.82932 6.15C4.91932 5.77 3.84932 6.12 3.33932 7C2.82932 7.88 3.06932 8.98 3.84932 9.58C3.61932 10.35 3.49932 11.16 3.49932 12C3.49932 12.84 3.61932 13.65 3.84932 14.42C3.06932 15.02 2.82932 16.12 3.33932 17C3.84932 17.88 4.91932 18.23 5.82932 17.85C6.22932 18.27 6.65932 18.64 7.12932 18.97L5.77932 22H7.65932L8.63932 19.81C9.07932 20 9.53932 20.15 10.0193 20.27C10.1493 21.25 10.9893 22 11.9993 22C13.0093 22 13.8493 21.25 13.9793 20.27C14.4393 20.16 14.8893 20.01 15.3193 19.83L16.2993 22H18.1793L16.8393 19C17.3193 18.66 17.7693 18.28 18.1793 17.85C19.0893 18.23 20.1693 17.88 20.6693 17C21.1693 16.12 20.9293 15.02 20.1493 14.42ZM13.5593 18.75C13.1893 18.29 12.6293 18 11.9993 18C11.3693 18 10.7993 18.29 10.4293 18.75C10.0293 18.66 9.63932 18.54 9.26932 18.38L10.6993 15.19C11.0993 15.35 11.5393 15.44 11.9993 15.44C12.4393 15.44 12.8693 15.36 13.2593 15.21L14.6793 18.39C14.3193 18.54 13.9493 18.66 13.5593 18.75ZM10.4793 12.02C10.4793 11.19 11.1493 10.52 11.9793 10.52C12.8093 10.52 13.4793 11.19 13.4793 12.02C13.4793 12.85 12.8093 13.52 11.9793 13.52C11.1493 13.52 10.4793 12.85 10.4793 12.02ZM18.7093 14.01C18.0993 14.08 17.5293 14.42 17.1893 15C16.8693 15.56 16.8493 16.2 17.0693 16.75C16.7893 17.04 16.4893 17.3 16.1693 17.54L14.6693 14.19C15.1593 13.6 15.4493 12.85 15.4493 12.03C15.4493 10.14 13.8993 8.62 11.9893 8.62C10.0793 8.62 8.52932 10.15 8.52932 12.03C8.52932 12.83 8.80932 13.57 9.27932 14.16L7.75932 17.55C7.44932 17.32 7.15932 17.07 6.88932 16.79C7.14932 16.23 7.12932 15.57 6.79932 15C6.45932 14.41 5.86932 14.06 5.23932 14.01C5.01932 13.33 4.90932 12.61 4.90932 11.86C4.90932 11.22 4.99932 10.6 5.15932 10.01C5.81932 9.98 6.45932 9.63 6.80932 9.01C7.17932 8.38 7.15932 7.63 6.81932 7.03C7.73932 6.05 8.92932 5.34 10.2693 5C10.6093 5.59 11.2593 6 11.9993 6C12.7393 6 13.3893 5.6 13.7293 5C15.0693 5.34 16.2593 6.07 17.1693 7.05C16.8493 7.64 16.8393 8.38 17.1993 9C17.5493 9.6 18.1593 9.95 18.7993 10C18.9593 10.59 19.0493 11.21 19.0493 11.86C19.0493 12.61 18.9293 13.33 18.7093 14.01Z" fill="black" />
</svg>
