<svg width="24" height="24" viewBox="0 0 24 24" fill="none" xmlns="http://www.w3.org/2000/svg">
<path d="M12.0292 6.29999H11.9692L10.9492 9.18999H13.0492L12.0292 6.29999Z" fill="black" />
<path d="M5 17H3V22H5V17Z" fill="black" />
<path d="M12 15C15.31 15 18 12.31 18 9C18 5.69 15.31 3 12 3C8.69 3 6 5.69 6 9C6 12.31 8.69 15 12 15ZM11.37 5H12.62L15.25 12H14.04L13.41 10.21H10.58L9.96 12H8.74L11.37 5Z" fill="black" />
<path d="M9 17H7V22H9V17Z" fill="black" />
<path d="M13 17H11V22H13V17Z" fill="black" />
<path d="M21 17H15V22H21V17Z" fill="black" />
</svg>
