<svg width="24" height="24" viewBox="0 0 24 24" fill="none" xmlns="http://www.w3.org/2000/svg">
<path d="M20 7L20.94 4.94L23 4L20.94 3.06L20 1L19.06 3.06L17 4L19.06 4.94L20 7Z" fill="black" />
<path d="M17.7105 9.12L14.8805 6.29C14.6805 6.1 14.4305 6 14.1705 6C13.9105 6 13.6605 6.1 13.4605 6.29L2.29055 17.46C1.90055 17.85 1.90055 18.48 2.29055 18.87L5.12055 21.7C5.32055 21.9 5.57055 22 5.83055 22C6.09055 22 6.34055 21.9 6.54055 21.71L17.7105 10.54C18.1005 10.15 18.1005 9.51 17.7105 9.12ZM14.1705 8.42L15.5805 9.83L14.4105 11L13.0005 9.59L14.1705 8.42ZM5.83055 19.59L4.42055 18.18L11.5905 11L13.0005 12.41L5.83055 19.59Z" fill="black" />
</svg>
