<svg width="24" height="24" viewBox="0 0 24 24" fill="none" xmlns="http://www.w3.org/2000/svg">
<path d="M20 7L20.94 4.94L23 4L20.94 3.06L20 1L19.06 3.06L17 4L19.06 4.94L20 7Z" fill="black" />
<path d="M14.171 8.42L15.581 9.83L14.121 11.29L15.531 12.7L17.701 10.53C18.091 10.14 18.091 9.51 17.701 9.12L14.871 6.29C14.681 6.1 14.431 6 14.171 6C13.911 6 13.661 6.1 13.461 6.29L11.291 8.46L12.701 9.87L14.171 8.42Z" fill="black" />
<path d="M1.39062 4.22L8.46063 11.29L2.29062 17.46C1.90062 17.85 1.90062 18.48 2.29062 18.87L5.12063 21.7C5.32063 21.9 5.57063 22 5.83063 22C6.09062 22 6.34063 21.9 6.54063 21.71L12.7106 15.54L19.7806 22.61L21.1906 21.2L2.81062 2.81L1.39062 4.22ZM11.2906 14.12L5.83063 19.58L4.42063 18.17L9.88062 12.71L11.2906 14.12Z" fill="black" />
</svg>
