<svg width="24" height="24" viewBox="0 0 24 24" fill="none" xmlns="http://www.w3.org/2000/svg">
<path d="M21.0003 19.57L19.5733 20.998L13.1313 14.556L14.5613 13.128L21.0003 19.57ZM13.1203 3C10.5403 3 7.96031 3.98 5.98031 5.95L5.97031 5.96C2.02031 9.91 2.02031 16.32 5.97031 20.27L20.2703 5.96C18.3003 3.99 15.7103 3 13.1203 3ZM6.14031 17.27C5.40031 16.03 5.00031 14.61 5.00031 13.12C5.00031 12.19 5.16031 11.3 5.46031 10.45C5.65031 12.36 6.35031 14.24 7.53031 15.89L6.14031 17.27ZM8.98031 14.43C7.63031 12.38 7.12031 9.93 7.60031 7.6C8.18031 7.48 8.76031 7.42 9.35031 7.42C11.1503 7.42 12.9003 7.97 14.4303 8.98L8.98031 14.43ZM10.4503 5.46C11.3003 5.16 12.1903 5 13.1203 5C14.6103 5 16.0303 5.4 17.2703 6.14L15.8803 7.53C14.2303 6.35 12.3603 5.65 10.4503 5.46Z" fill="black" />
</svg>
