<svg width="24" height="24" viewBox="0 0 24 24" fill="none" xmlns="http://www.w3.org/2000/svg">
<path d="M9.27024 4.49C9.14023 5.08 9.07023 5.64 9.03023 6.2L11.0802 8.25C10.8102 6.2 11.1802 4.03 12.3402 2.02C12.2202 2.02 12.1102 2.01 11.9902 2.01C9.94023 2.01 8.06023 2.62 6.49023 3.66L7.95023 5.12C8.37023 4.88 8.81024 4.66 9.27024 4.49Z" fill="black" />
<path d="M1.39062 4.22001L3.66062 6.49001C2.61063 8.07 2.00063 9.97001 2.00063 12C2.00063 17.52 6.48062 22 12.0006 22C14.0406 22 15.9206 21.37 17.5006 20.33L19.7806 22.61L21.1906 21.2L2.81062 2.81001L1.39062 4.22001ZM5.13063 7.96001L16.0506 18.88C14.8406 19.6 13.4506 20 12.0006 20C7.59062 20 4.00063 16.41 4.00063 12C4.00063 10.52 4.42063 9.15001 5.13063 7.96001Z" fill="black" />
</svg>
