<svg width="24" height="24" viewBox="0 0 24 24" fill="none" xmlns="http://www.w3.org/2000/svg">
<path d="M6.5 16C7.32843 16 8 15.3284 8 14.5C8 13.6716 7.32843 13 6.5 13C5.67157 13 5 13.6716 5 14.5C5 15.3284 5.67157 16 6.5 16Z" fill="black" />
<path d="M15.5 16C16.3284 16 17 15.3284 17 14.5C17 13.6716 16.3284 13 15.5 13C14.6716 13 14 13.6716 14 14.5C14 15.3284 14.6716 16 15.5 16Z" fill="black" />
<path d="M18 17H4V12H15V10H4.81L5.85 7H15V5H5.5C4.84 5 4.29 5.42 4.08 6.01L2 12V20C2 20.55 2.45 21 3 21H4C4.55 21 5 20.55 5 20V19H17V20C17 20.55 17.45 21 18 21H19C19.55 21 20 20.55 20 20V12H18V17Z" fill="black" />
<path d="M22.0004 3.85L19.1504 1H18.6504V4.79L16.3504 2.5L15.6504 3.2L18.4404 6L15.6504 8.79L16.3504 9.5L18.6504 7.2V11H19.1504L22.0004 8.14L19.8504 6L22.0004 3.85ZM19.6504 2.91L20.5904 3.85L19.6504 4.79V2.91ZM20.5904 8.14L19.6504 9.08V7.2L20.5904 8.14Z" fill="black" />
</svg>
