<svg width="24" height="24" viewBox="0 0 24 24" fill="none" xmlns="http://www.w3.org/2000/svg">
<path d="M18 3H6C3.79 3 2 4.79 2 7C2 8.48 2.81 9.75 4 10.45V19C4 20.1 4.9 21 6 21H18C19.1 21 20 20.1 20 19V10.45C21.19 9.76 22 8.48 22 7C22 4.79 20.21 3 18 3ZM19 8.72L18 9.3V19H6V9.31L5.01 8.73C4.38 8.35 4 7.71 4 7C4 5.9 4.9 5 6 5H18C19.1 5 20 5.9 20 7C20 7.71 19.62 8.36 19 8.72Z" fill="black" />
<path d="M12.7105 9.29C12.5105 9.1 12.2605 9 12.0005 9C11.7405 9 11.4905 9.1 11.2905 9.29L8.29055 12.29C7.90055 12.68 7.90055 13.31 8.29055 13.7L11.2905 16.7C11.4905 16.9 11.7405 17 12.0005 17C12.2605 17 12.5105 16.9 12.7105 16.71L15.7105 13.71C16.1005 13.32 16.1005 12.69 15.7105 12.3L12.7105 9.29ZM12.0005 14.58L10.4105 13L12.0005 11.41L13.5905 13L12.0005 14.58Z" fill="black" />
</svg>
