<svg width="24" height="24" viewBox="0 0 24 24" fill="none" xmlns="http://www.w3.org/2000/svg">
<g clip-path="url(#clip0_304_3570)">
<path d="M19.9995 8.69V4H15.3095L11.9995 0.690002L8.68945 4H3.99945V8.69L0.689453 12L3.99945 15.31V20H8.68945L11.9995 23.31L15.3095 20H19.9995V15.31L23.3095 12L19.9995 8.69ZM17.9995 14.48V18H14.4795L11.9995 20.48L9.51945 18H5.99945V14.48L3.51945 12L5.99945 9.52V6H9.51945L11.9995 3.52L14.4795 6H17.9995V9.52L20.4795 12L17.9995 14.48ZM11.9995 6.5C8.96945 6.5 6.49945 8.97 6.49945 12C6.49945 15.03 8.96945 17.5 11.9995 17.5C15.0295 17.5 17.4995 15.03 17.4995 12C17.4995 8.97 15.0295 6.5 11.9995 6.5ZM11.9995 15.5C10.0695 15.5 8.49945 13.93 8.49945 12C8.49945 10.07 10.0695 8.5 11.9995 8.5C13.9295 8.5 15.4995 10.07 15.4995 12C15.4995 13.93 13.9295 15.5 11.9995 15.5Z" fill="black" />
<path d="M12 14C13.1046 14 14 13.1046 14 12C14 10.8954 13.1046 10 12 10C10.8954 10 10 10.8954 10 12C10 13.1046 10.8954 14 12 14Z" fill="black" />
</g>
<defs>
<clipPath id="clip0_304_3570">
<rect width="24" height="24" fill="white"/>
</clipPath>
</defs>
</svg>
