<svg width="24" height="24" viewBox="0 0 24 24" fill="none" xmlns="http://www.w3.org/2000/svg">
<g clip-path="url(#clip0_304_3607)">
<path d="M19.9995 8.69V4H15.3095L11.9995 0.690002L8.68945 4H3.99945V8.69L0.689453 12L3.99945 15.31V20H8.68945L11.9995 23.31L15.3095 20H19.9995V15.31L23.3095 12L19.9995 8.69ZM17.9995 14.48V18H14.4795L11.9995 20.48L9.51945 18H5.99945V14.48L3.51945 12L5.99945 9.52V6H9.51945L11.9995 3.52L14.4795 6H17.9995V9.52L20.4795 12L17.9995 14.48ZM11.9995 6V18C15.3095 18 17.9995 15.31 17.9995 12C17.9995 8.69 15.3095 6 11.9995 6Z" fill="black" />
</g>
<defs>
<clipPath id="clip0_304_3607">
<rect width="24" height="24" fill="white"/>
</clipPath>
</defs>
</svg>
