<svg width="24" height="24" viewBox="0 0 24 24" fill="none" xmlns="http://www.w3.org/2000/svg">
<g clip-path="url(#clip0_304_3569)">
<path d="M10.9995 7L7.79945 16H9.69945L10.3995 14H13.5995L14.2995 16H16.1995L12.9995 7H10.9995ZM10.8495 12.65L11.9995 9L13.1495 12.65H10.8495ZM19.9995 8.69V4H15.3095L11.9995 0.690002L8.68945 4H3.99945V8.69L0.689453 12L3.99945 15.31V20H8.68945L11.9995 23.31L15.3095 20H19.9995V15.31L23.3095 12L19.9995 8.69ZM17.9995 14.48V18H14.4795L11.9995 20.48L9.51945 18H5.99945V14.48L3.51945 12L5.99945 9.52V6H9.51945L11.9995 3.52L14.4795 6H17.9995V9.52L20.4795 12L17.9995 14.48Z" fill="black" />
</g>
<defs>
<clipPath id="clip0_304_3569">
<rect width="24" height="24" fill="white"/>
</clipPath>
</defs>
</svg>
