<svg width="24" height="24" viewBox="0 0 24 24" fill="none" xmlns="http://www.w3.org/2000/svg">
<g clip-path="url(#clip0_304_3660)">
<path d="M19.9995 8.69V4H15.3095L11.9995 0.690002L8.68945 4H3.99945V8.69L0.689453 12L3.99945 15.31V20H8.68945L11.9995 23.31L15.3095 20H19.9995V15.31L23.3095 12L19.9995 8.69ZM17.9995 14.48V18H14.4795L11.9995 20.48L9.51945 18H5.99945V14.48L3.51945 12L5.99945 9.52V6H9.51945L11.9995 3.52L14.4795 6H17.9995V9.52L20.4795 12L17.9995 14.48ZM11.9995 6C8.68945 6 5.99945 8.69 5.99945 12C5.99945 15.31 8.68945 18 11.9995 18C15.3095 18 17.9995 15.31 17.9995 12C17.9995 8.69 15.3095 6 11.9995 6ZM11.9995 16C9.78945 16 7.99945 14.21 7.99945 12C7.99945 9.79 9.78945 8 11.9995 8C14.2095 8 15.9995 9.79 15.9995 12C15.9995 14.21 14.2095 16 11.9995 16Z" fill="black" />
<path d="M12 14.5C13.3807 14.5 14.5 13.3807 14.5 12C14.5 10.6193 13.3807 9.5 12 9.5C10.6193 9.5 9.5 10.6193 9.5 12C9.5 13.3807 10.6193 14.5 12 14.5Z" fill="black" />
</g>
<defs>
<clipPath id="clip0_304_3660">
<rect width="24" height="24" fill="white"/>
</clipPath>
</defs>
</svg>
