<svg width="24" height="24" viewBox="0 0 24 24" fill="none" xmlns="http://www.w3.org/2000/svg">
<g clip-path="url(#clip0_304_3858)">
<path d="M19.9995 8.69V4H15.3095L11.9995 0.690002L8.68945 4H3.99945V8.69L0.689453 12L3.99945 15.31V20H8.68945L11.9995 23.31L15.3095 20H19.9995V15.31L23.3095 12L19.9995 8.69ZM17.9995 14.48V18H14.4795L11.9995 20.48L9.51945 18H5.99945V14.48L3.51945 12L5.99945 9.52V6H9.51945L11.9995 3.52L14.4795 6H17.9995V9.52L20.4795 12L17.9995 14.48ZM12.2895 7C11.5495 7 10.8395 7.17 10.2095 7.46C11.9295 8.25 13.1295 9.99 13.1295 12C13.1295 14.01 11.9295 15.75 10.2095 16.54C10.8395 16.83 11.5495 17 12.2895 17C15.0495 17 17.2895 14.76 17.2895 12C17.2895 9.24 15.0495 7 12.2895 7Z" fill="black" />
</g>
<defs>
<clipPath id="clip0_304_3858">
<rect width="24" height="24" fill="white"/>
</clipPath>
</defs>
</svg>
