<svg width="24" height="24" viewBox="0 0 24 24" fill="none" xmlns="http://www.w3.org/2000/svg">
<path d="M2 22L16 17L7 8L2 22ZM12.35 16.18L5.3 18.7L7.82 11.65L12.35 16.18Z" fill="black" />
<path d="M14.5307 12.53L20.1207 6.94001C20.6107 6.45001 21.4007 6.45001 21.8907 6.94001L22.4807 7.53001L23.5407 6.47001L22.9507 5.88001C21.8807 4.81001 20.1307 4.81001 19.0607 5.88001L13.4707 11.47L14.5307 12.53Z" fill="black" />
<path d="M10.0607 6.87996L9.4707 7.46996L10.5307 8.52996L11.1207 7.93996C12.1907 6.86996 12.1907 5.11996 11.1207 4.04996L10.5307 3.45996L9.4707 4.52996L10.0607 5.11996C10.5407 5.59996 10.5407 6.39996 10.0607 6.87996Z" fill="black" />
<path d="M17.0607 11.88L15.4707 13.47L16.5307 14.53L18.1207 12.94C18.6107 12.45 19.4007 12.45 19.8907 12.94L21.5007 14.55L22.5607 13.49L20.9507 11.88C19.8707 10.81 18.1307 10.81 17.0607 11.88Z" fill="black" />
<path d="M15.0607 5.87996L11.4707 9.46996L12.5307 10.53L16.1207 6.93996C17.1907 5.86996 17.1907 4.11996 16.1207 3.04996L14.5307 1.45996L13.4707 2.51996L15.0607 4.10996C15.5407 4.59996 15.5407 5.39996 15.0607 5.87996Z" fill="black" />
</svg>
