<svg width="24" height="24" viewBox="0 0 24 24" fill="none" xmlns="http://www.w3.org/2000/svg">
<path d="M21.6003 18.2L13.0003 11.75V10.84C14.6503 10.35 15.8003 8.67004 15.4303 6.79004C15.1703 5.48004 14.1303 4.39004 12.8203 4.09004C10.5403 3.57004 8.50026 5.30004 8.50026 7.50004H10.5003C10.5003 6.67004 11.1703 6.00004 12.0003 6.00004C12.8303 6.00004 13.5003 6.67004 13.5003 7.50004C13.5003 8.34004 12.8103 9.02004 11.9703 9.00004C11.4303 8.99004 11.0003 9.45004 11.0003 9.99004V11.75L2.40026 18.2C1.63026 18.78 2.04026 20 3.00026 20H12.0003H21.0003C21.9603 20 22.3703 18.78 21.6003 18.2ZM6.00026 18L12.0003 13.5L18.0003 18H6.00026Z" fill="black" />
</svg>
