<svg width="24" height="24" viewBox="0 0 24 24" fill="none" xmlns="http://www.w3.org/2000/svg">
<path d="M13.0006 10.0001C13.0006 9.45006 13.4506 9.00006 14.0006 9.00006H17.0006C17.5506 9.00006 18.0006 9.45006 18.0006 10.0001V11.0001H16.5006V10.5001H14.5006V11.5001L13.0006 10.0001ZM16.5006 13.5001L17.7106 14.7101C17.8906 14.5201 18.0006 14.2701 18.0006 14.0001V13.0001H16.5006V13.5001ZM8.83063 6.00006H19.0006V16.1701L20.9806 18.1501C20.9806 18.1001 21.0006 18.0501 21.0006 17.9901V6.00006C21.0006 4.90006 20.1006 4.00006 19.0006 4.00006H6.83063L8.83063 6.00006ZM19.7806 22.6101L17.1706 20.0001H5.00063C3.89062 20.0001 3.00063 19.1001 3.00063 18.0001V6.00006C3.00063 5.95006 3.02062 5.90006 3.02062 5.85006L1.39062 4.22006L2.80062 2.81006L21.1806 21.1901L19.7806 22.6101ZM7.50063 13.5001H9.50062V13.0001H10.1706L7.67063 10.5001H7.50063V13.5001ZM15.1706 18.0001L11.0006 13.8301V14.0001C11.0006 14.5501 10.5506 15.0001 10.0006 15.0001H7.00063C6.45062 15.0001 6.00063 14.5501 6.00063 14.0001V10.0001C6.00063 9.68006 6.16063 9.41006 6.40063 9.22006L5.00063 7.83006V18.0001H15.1706Z" fill="black" />
</svg>
