<svg width="24" height="24" viewBox="0 0 24 24" fill="none" xmlns="http://www.w3.org/2000/svg">
<path d="M18.8295 16H19.9995V4H6.82945L4.82945 2H19.9995C21.0995 2 21.9995 2.9 21.9995 4V19.17L18.8295 16ZM17.9995 6H8.82945L10.8295 8H17.9995V6ZM17.9995 9H11.8295L13.8295 11H17.9995V9ZM17.9995 14V12H14.8295L16.8295 14H17.9995ZM21.8995 21.9L20.4895 23.31L15.1695 18H3.99945C2.89945 18 1.99945 17.1 1.99945 16V4.83L0.689453 3.51L2.09945 2.1L21.8995 21.9ZM13.1695 16L11.1695 14H5.99945V12H9.16945L8.16945 11H5.99945V9H6.16945L3.99945 6.83V16H13.1695Z" fill="black" />
</svg>
