<svg width="24" height="24" viewBox="0 0 24 24" fill="none" xmlns="http://www.w3.org/2000/svg">
<path d="M15.4 17.0001L16.7 21.4001H15.6L13 17.0001H10C9.45 17.0001 9 16.5501 9 16.0001C9 15.4501 9.45 15.0001 10 15.0001H13L15.6 10.6001H16.7L15.4 15.0001H18.25L19 14.0001H20L19.4 16.0001L20 18.0001H19L18.25 17.0001H15.4ZM5.75 7.0001L5 6.0001H4L4.6 8.0001L4 10.0001H5L5.75 9.0001H8.6L7.3 13.4001H8.4L11 9.0001H14C14.55 9.0001 15 8.5501 15 8.0001C15 7.4501 14.55 7.0001 14 7.0001H11L8.4 2.6001H7.3L8.6 7.0001H5.75Z" fill="black" />
</svg>
