<svg width="24" height="24" viewBox="0 0 24 24" fill="none" xmlns="http://www.w3.org/2000/svg">
<path d="M12 2C6.48 2 2 6.48 2 12C2 17.52 6.48 22 12 22C17.52 22 22 17.52 22 12C22 6.48 17.52 2 12 2ZM12 20C7.58 20 4 16.42 4 12C4 7.58 7.58 4 12 4C16.42 4 20 7.58 20 12C20 16.42 16.42 20 12 20Z" fill="black" />
<path d="M7.09961 10.1801C7.35961 10.7401 7.48961 11.3401 7.49961 11.9801C7.50961 12.6101 7.36961 13.2301 7.09961 13.8401L8.46961 14.4601C8.83961 13.6501 9.01961 12.8101 9.00961 11.9601C8.99961 11.1201 8.81961 10.3101 8.46961 9.56006L7.09961 10.1801Z" fill="black" />
<path d="M13.3301 7.32991C14.1101 8.89991 14.5101 10.4699 14.5101 11.9699C14.5101 13.4799 14.1101 15.0599 13.3301 16.6599L14.6801 17.3199C15.5601 15.5099 16.0101 13.7099 16.0101 11.9699C16.0101 10.2299 15.5601 8.43991 14.6801 6.65991L13.3301 7.32991Z" fill="black" />
<path d="M10.1992 8.72005C10.7292 9.79005 10.9992 10.93 10.9992 12.12C10.9992 13.29 10.7392 14.35 10.2192 15.27L11.5192 16.01C12.1692 14.86 12.4992 13.56 12.4992 12.12C12.4992 10.7 12.1792 9.33005 11.5392 8.05005L10.1992 8.72005Z" fill="black" />
</svg>
