<svg width="24" height="24" viewBox="0 0 24 24" fill="none" xmlns="http://www.w3.org/2000/svg">
<path d="M21.1906 21.19L2.81062 2.81L1.39062 4.22L3.00063 5.83V19C3.00063 20.1 3.90063 21 5.00063 21H18.1706L19.7806 22.61L21.1906 21.19ZM5.00063 19V7.83L16.1706 19H5.00063ZM17.0006 8V5H19.0006V16.17L21.0006 18.17V5C21.0006 3.9 20.1006 3 19.0006 3H14.8206C14.4006 1.84 13.3006 1 12.0006 1C10.7006 1 9.60063 1.84 9.18063 3H5.83063L10.8306 8H17.0006ZM12.0006 3C12.5506 3 13.0006 3.45 13.0006 4C13.0006 4.55 12.5506 5 12.0006 5C11.4506 5 11.0006 4.55 11.0006 4C11.0006 3.45 11.4506 3 12.0006 3Z" fill="black" />
</svg>
