<svg width="24" height="24" viewBox="0 0 24 24" fill="none" xmlns="http://www.w3.org/2000/svg">
<path d="M10.5 10C11.3284 10 12 9.32843 12 8.5C12 7.67157 11.3284 7 10.5 7C9.67157 7 9 7.67157 9 8.5C9 9.32843 9.67157 10 10.5 10Z" fill="black" />
<path d="M8.5 15C9.32843 15 10 14.3284 10 13.5C10 12.6716 9.32843 12 8.5 12C7.67157 12 7 12.6716 7 13.5C7 14.3284 7.67157 15 8.5 15Z" fill="black" />
<path d="M15 16C15.5523 16 16 15.5523 16 15C16 14.4477 15.5523 14 15 14C14.4477 14 14 14.4477 14 15C14 15.5523 14.4477 16 15 16Z" fill="black" />
<path d="M21.95 10.9899C20.16 10.9599 18.25 9.03991 19.27 6.76991C16.3 7.76991 13.49 5.17991 14.08 2.20991C7.11 0.739914 2 6.40991 2 11.9999C2 17.5199 6.48 21.9999 12 21.9999C17.89 21.9999 22.54 16.9199 21.95 10.9899ZM12 19.9999C7.59 19.9999 4 16.4099 4 11.9999C4 8.68991 6.73 3.81991 12.08 3.97991C12.5 6.51991 14.52 8.53991 17.07 8.91991C17.14 9.27991 17.59 11.4699 19.99 12.5499C19.7 16.8599 16.06 19.9999 12 19.9999Z" fill="black" />
</svg>
