<svg width="24" height="24" viewBox="0 0 24 24" fill="none" xmlns="http://www.w3.org/2000/svg">
<path d="M6.82945 4.0001H19.9995C21.1095 4.0001 21.9995 4.8901 21.9995 6.0001V18.0001C21.9995 18.3401 21.9195 18.6601 21.7695 18.9401L19.9995 17.1701V12.0001H14.8295L10.8295 8.0001H19.9995V6.0001H8.82945L6.82945 4.0001ZM20.4895 23.3101L17.1695 20.0001H3.99945C2.88945 20.0001 1.99945 19.1101 1.99945 18.0001L2.00945 6.0001C2.00945 5.6601 2.08945 5.3401 2.23945 5.0701L0.689453 3.5101L2.09945 2.1001L21.8995 21.9001L20.4895 23.3101ZM3.99945 6.8301V8.0001H5.16945L3.99945 6.8301ZM15.1695 18.0001L9.16945 12.0001H3.99945V18.0001H15.1695Z" fill="black" />
</svg>
