<svg width="24" height="24" viewBox="0 0 24 24" fill="none" xmlns="http://www.w3.org/2000/svg">
<path d="M3.00063 13.0001H5.00063V11.0001H3.00063V13.0001ZM7.00063 21.0001H9.00063V19.0001H7.00063V21.0001ZM13.0006 3.00006H11.0006V5.00006H13.0006V3.00006ZM19.0006 3.00006V5.00006H21.0006C21.0006 3.90006 20.1006 3.00006 19.0006 3.00006ZM5.00063 21.0001V19.0001H3.00063C3.00063 20.1001 3.90063 21.0001 5.00063 21.0001ZM3.00063 17.0001H5.00063V15.0001H3.00063V17.0001ZM11.0006 21.0001H13.0006V19.0001H11.0006V21.0001ZM19.0006 13.0001H21.0006V11.0001H19.0006V13.0001ZM19.0006 9.00006H21.0006V7.00006H19.0006V9.00006ZM15.0006 5.00006H17.0006V3.00006H15.0006V5.00006ZM7.83063 5.00006L7.00063 4.17006V3.00006H9.00063V5.00006H7.83063ZM19.8306 17.0001L19.0006 16.1701V15.0001H21.0006V17.0001H19.8306ZM21.1906 21.1901L2.81062 2.81006L1.39062 4.22006L4.17063 7.00006H3.00063V9.00006H5.00063V7.83006L7.00063 9.83006V17.0001H14.1706L16.1706 19.0001H15.0006V21.0001H17.0006V19.8301L19.7806 22.6101L21.1906 21.1901ZM9.00063 15.0001V11.8301L12.1706 15.0001H9.00063ZM15.0006 12.1701V9.00006H11.8306L9.83062 7.00006H17.0006V14.1701L15.0006 12.1701Z" fill="black" />
</svg>
