<svg width="24" height="24" viewBox="0 0 24 24" fill="none" xmlns="http://www.w3.org/2000/svg">
<path d="M7.82945 5.0001H17.9995V15.1701L19.8295 17.0001H21.9995V15.0001H19.9995V13.0001H21.9995V11.0001H19.9995V9.0001H21.9995V7.0001H19.9995V5.0001C19.9995 3.9001 19.0995 3.0001 17.9995 3.0001H5.82945L7.82945 5.0001ZM11.9995 9.1701V7.0001H15.9995V10.0001H12.8295L11.9995 9.1701ZM9.82945 7.0001H10.9995V8.1701L9.82945 7.0001ZM13.8295 11.0001H15.9995V13.1701L13.8295 11.0001ZM17.9995 21.0001C18.0595 21.0001 18.1095 21.0001 18.1595 20.9901L20.4795 23.3101L21.8895 21.9001L2.09945 2.1001L0.689453 3.5101L2.00945 4.8301C1.99945 4.8901 1.99945 4.9401 1.99945 5.0001V19.0001C1.99945 20.1001 2.89945 21.0001 3.99945 21.0001H17.9995ZM3.99945 19.0001V6.8301L5.99945 8.8301V12.0001H9.16945L10.1695 13.0001H5.99945V17.0001H10.9995V13.8301L11.9995 14.8301V17.0001H14.1695L16.1695 19.0001H3.99945Z" fill="black" />
</svg>
