<svg width="24" height="24" viewBox="0 0 24 24" fill="none" xmlns="http://www.w3.org/2000/svg">
<path d="M13.4906 5.47998C14.5906 5.47998 15.4906 4.57998 15.4906 3.47998C15.4906 2.37998 14.5906 1.47998 13.4906 1.47998C12.3906 1.47998 11.4906 2.37998 11.4906 3.47998C11.4906 4.57998 12.3906 5.47998 13.4906 5.47998ZM9.89062 19.38L10.8906 14.98L12.9906 16.98V22.98H14.9906V15.48L12.8906 13.48L13.4906 10.48C14.7906 11.98 16.7906 12.98 18.9906 12.98V10.98C17.0906 10.98 15.4906 9.97998 14.6906 8.57998L13.6906 6.97998C13.2906 6.37998 12.6906 5.97998 11.9906 5.97998C11.6906 5.97998 11.4906 6.07998 11.1906 6.07998L5.99062 8.27998V12.98H7.99062V9.57998L9.79062 8.87998L8.19062 16.98L3.29062 15.98L2.89062 17.98L9.89062 19.38Z" fill="black" />
</svg>
