<svg width="24" height="24" viewBox="0 0 24 24" fill="none" xmlns="http://www.w3.org/2000/svg">
<path d="M21.7109 11.2901L12.7109 2.29006C12.3209 1.90006 11.6909 1.90006 11.3009 2.29006L8.21094 5.38006L9.62094 6.79006L12.0009 4.42006L19.5809 12.0001L17.2009 14.3801L18.6109 15.7901L21.7009 12.7001C22.1009 12.3301 22.1009 11.7001 21.7109 11.2901Z" fill="black" />
<path d="M13 7.5V10.17L15.17 12.34L16.5 11L13 7.5Z" fill="black" />
<path d="M1.39062 4.22006L5.38063 8.21006L2.29062 11.3001C1.90062 11.6901 1.90062 12.3201 2.29062 12.7101L11.2906 21.7101C11.6806 22.1001 12.3106 22.1001 12.7006 21.7101L15.7906 18.6201L19.7806 22.6101L21.1906 21.2001L2.81062 2.81006L1.39062 4.22006ZM8.03062 10.8501C8.02062 10.9001 7.99062 10.9501 7.99062 11.0001V15.0001H9.99062V12.8201L14.3706 17.2001L12.0006 19.5801L4.42063 12.0001L6.80063 9.62006L8.03062 10.8501Z" fill="black" />
</svg>
