<svg width="24" height="24" viewBox="0 0 24 24" fill="none" xmlns="http://www.w3.org/2000/svg">
<path d="M2.81062 2.81L1.39062 4.22L7.00063 9.83V14.13L4.40063 12.65C4.23063 12.56 4.06062 12.51 3.86062 12.51C3.60062 12.51 3.36063 12.6 3.16063 12.77L2.00063 13.88L8.80063 21.06C9.37063 21.66 10.1506 22 10.9806 22H17.0006C17.6206 22 18.1806 21.81 18.6606 21.48L19.7806 22.6L21.1906 21.19L2.81062 2.81ZM17.0006 20H11.0006C10.6106 20 10.3606 19.77 10.2506 19.64L6.87063 16H9.00063V11.83L17.1406 19.97C17.0906 19.98 17.0506 20 17.0006 20ZM13.8306 11H14.0006V3.25C14.0006 2.56 14.5606 2 15.2506 2C15.9406 2 16.5006 2.56 16.5006 3.25V11H17.5006V5.25C17.5006 4.56 18.0606 4 18.7506 4C19.4406 4 20.0006 4.56 20.0006 5.25V17.17L18.0006 15.17V13H15.8306L13.8306 11ZM13.0006 10.17V2.25C13.0006 1.56 12.4406 1 11.7506 1C11.0606 1 10.5006 1.56 10.5006 2.25V7.67L13.0006 10.17ZM9.50062 6.67V4.25C9.50062 3.56 8.94063 3 8.25063 3C7.58063 3 7.05063 3.53 7.01063 4.18L9.50062 6.67Z" fill="black" />
</svg>
