<svg width="24" height="24" viewBox="0 0 24 24" fill="none" xmlns="http://www.w3.org/2000/svg">
<path d="M7.94023 5.12C9.14023 4.41 10.5202 4 12.0002 4C16.4102 4 20.0002 7.59 20.0002 12C20.0002 13.48 19.5902 14.86 18.8802 16.06L20.3402 17.52C21.3902 15.93 22.0002 14.04 22.0002 12C22.0002 6.48 17.5202 2 12.0002 2C9.96023 2 8.07023 2.61 6.49023 3.66L7.94023 5.12Z" fill="black" />
<path d="M2.81062 2.81006L1.39062 4.22006L3.66062 6.49006C2.61063 8.07006 2.00063 9.96006 2.00063 12.0001C2.00063 17.5201 6.48062 22.0001 12.0006 22.0001C14.0406 22.0001 15.9306 21.3901 17.5106 20.3401L19.7806 22.6101L21.1906 21.2001L2.81062 2.81006ZM12.0006 20.0001C7.59062 20.0001 4.00063 16.4101 4.00063 12.0001C4.00063 10.5201 4.41062 9.14006 5.12063 7.94006L8.17063 11.0001H7.00063V13.0001H10.1706L16.0506 18.8801C14.8606 19.5901 13.4806 20.0001 12.0006 20.0001Z" fill="black" />
<path d="M13.8301 11L15.8301 13H17.0001V11H13.8301Z" fill="black" />
</svg>
