<svg width="24" height="24" viewBox="0 0 24 24" fill="none" xmlns="http://www.w3.org/2000/svg">
<path d="M18.32 4.26005C16.84 3.05005 15.01 2.25005 13 2.05005V4.07005C14.46 4.25005 15.79 4.83005 16.9 5.69005L18.32 4.26005ZM19.93 11H21.95C21.75 8.99005 20.95 7.16005 19.74 5.68005L18.31 7.10005C19.17 8.21005 19.75 9.54005 19.93 11ZM18.31 16.9L19.74 18.33C20.95 16.85 21.75 15.01 21.95 13.01H19.93C19.75 14.46 19.17 15.79 18.31 16.9ZM13 19.93V21.9501C15.01 21.75 16.84 20.9501 18.32 19.74L16.89 18.31C15.79 19.17 14.46 19.75 13 19.93ZM15.59 10.59L13 13.17V7.00005H11V13.17L8.41 10.58L7 12L12 17L17 12L15.59 10.59ZM11 19.93V21.9501C5.95 21.4501 2 17.19 2 12C2 6.81005 5.95 2.55005 11 2.05005V4.07005C7.05 4.56005 4 7.92005 4 12C4 16.08 7.05 19.4401 11 19.93Z" fill="black" />
</svg>
