<svg width="24" height="24" viewBox="0 0 24 24" fill="none" xmlns="http://www.w3.org/2000/svg">
<path d="M16 3.00022C13.24 3.00022 11 5.24022 11 8.00022V16.0002C11 17.6602 9.66 19.0002 8 19.0002C6.34 19.0002 5 17.6602 5 16.0002V9.00022H5.83C7.44 9.00022 8.89 7.82022 9 6.21022C9.12 4.52022 7.84 3.11022 6.2 3.00022C4.44 2.89022 3 4.42022 3 6.19022V16.0002C3 18.7602 5.24 21.0002 8 21.0002C10.76 21.0002 13 18.7602 13 16.0002V8.00022C13 6.34022 14.34 5.00022 16 5.00022C17.66 5.00022 19 6.34022 19 8.00022V15.0002H18.17C16.56 15.0002 15.11 16.1802 15 17.7902C14.88 19.4802 16.16 20.8902 17.8 21.0002C19.56 21.1202 21 19.5802 21 17.8202V8.00022C21 5.24022 18.76 3.00022 16 3.00022ZM5 6.00022C5 5.45022 5.45 5.00022 6 5.00022C6.55 5.00022 7 5.45022 7 6.00022C7 6.55022 6.55 7.00022 6 7.00022H5V6.00022ZM19 18.0002C19 18.5502 18.55 19.0002 18 19.0002C17.45 19.0002 17 18.5502 17 18.0002C17 17.4502 17.45 17.0002 18 17.0002H19V18.0002Z" fill="black" />
</svg>
