<svg width="24" height="24" viewBox="0 0 24 24" fill="none" xmlns="http://www.w3.org/2000/svg">
<path d="M11 11.0001H13.12L19.28 4.84006L17.16 2.72006L11 8.88006V11.0001ZM20.71 2.00006L20 1.29006C19.61 0.900059 18.98 0.900059 18.59 1.29006L17.87 2.01006L19.99 4.13006L20.71 3.41006C21.1 3.02006 21.1 2.39006 20.71 2.00006ZM17.9 9.05006C17.96 9.41006 18 9.79006 18 10.2001C18 11.9101 16.92 14.8401 12 19.3401C7.08 14.8501 6 11.9101 6 10.2001C6 6.17006 9.09 4.00006 12 4.00006C12.32 4.00006 12.65 4.03006 12.97 4.08006L14.62 2.43006C13.78 2.16006 12.9 2.00006 12 2.00006C7.8 2.00006 4 5.22006 4 10.2001C4 13.5201 6.67 17.4501 12 22.0001C17.33 17.4501 20 13.5201 20 10.2001C20 9.19006 19.84 8.26006 19.55 7.40006L17.9 9.05006Z" fill="black" />
</svg>
