<svg width="24" height="24" viewBox="0 0 24 24" fill="none" xmlns="http://www.w3.org/2000/svg">
<path d="M14.0606 9.02006L14.9806 9.94006L13.8706 11.0501L15.2806 12.4601L17.8006 9.94006L14.0506 6.19006L11.5306 8.71006L12.9406 10.1201L14.0606 9.02006ZM20.7106 7.04006C21.1006 6.65006 21.1006 6.02006 20.7106 5.63006L18.3706 3.29006C18.1706 3.09006 17.9206 3.00006 17.6606 3.00006C17.4006 3.00006 17.1506 3.10006 16.9606 3.29006L15.1306 5.12006L18.8806 8.87006L20.7106 7.04006ZM2.81062 2.81006L1.39062 4.22006L8.71063 11.5401L3.00063 17.2501V21.0001H6.75063L12.4606 15.2901L19.7806 22.6101L21.1906 21.2001L2.81062 2.81006ZM5.92063 19.0001H5.00063V18.0801L10.1306 12.9501L11.0506 13.8701L5.92063 19.0001Z" fill="black" />
</svg>
