<svg width="24" height="24" viewBox="0 0 24 24" fill="none" xmlns="http://www.w3.org/2000/svg">
<path d="M11 2H3V4H11V2Z" fill="black" />
<path d="M6 11H8V7H11V5H3V7H6V11Z" fill="black" />
<path d="M20.1804 12.4035L12.4023 20.1816L13.8165 21.5958L21.5946 13.8177L20.1804 12.4035Z" fill="black" />
<path d="M14.5 16C15.3284 16 16 15.3284 16 14.5C16 13.6716 15.3284 13 14.5 13C13.6716 13 13 13.6716 13 14.5C13 15.3284 13.6716 16 14.5 16Z" fill="black" />
<path d="M19.5 21C20.3284 21 21 20.3284 21 19.5C21 18.6716 20.3284 18 19.5 18C18.6716 18 18 18.6716 18 19.5C18 20.3284 18.6716 21 19.5 21Z" fill="black" />
<path d="M15.5 11C16.88 11 18 9.88 18 8.5V4H21V2H17V6.51C16.58 6.19 16.07 6 15.5 6C14.12 6 13 7.12 13 8.5C13 9.88 14.12 11 15.5 11Z" fill="black" />
<path d="M9.73937 15.96L8.32937 17.37L7.61937 16.66L7.96937 16.31C8.94937 15.33 8.94937 13.75 7.96937 12.77C7.47937 12.28 6.83937 12.04 6.19937 12.04C5.55937 12.04 4.91937 12.28 4.42937 12.77C3.44937 13.75 3.44937 15.33 4.42937 16.31L4.77938 16.66L3.71938 17.72C2.73937 18.7 2.73937 20.28 3.71938 21.26C4.21938 21.76 4.85937 22 5.49937 22C6.13937 22 6.77937 21.76 7.26937 21.27L8.32937 20.21L9.73937 21.62L11.1494 20.21L9.73937 18.8L11.1494 17.39L9.73937 15.96ZM5.84937 14.2C5.96937 14.08 6.10937 14.05 6.19937 14.05C6.28937 14.05 6.42938 14.08 6.54938 14.2C6.73938 14.4 6.73938 14.71 6.54938 14.91L6.19937 15.26L5.84937 14.9C5.65937 14.71 5.65937 14.39 5.84937 14.2ZM5.84937 19.85C5.72937 19.97 5.58937 20 5.49937 20C5.40937 20 5.26937 19.97 5.14937 19.85C4.95937 19.66 4.95937 19.34 5.14937 19.14L6.20937 18.08L6.91937 18.79L5.84937 19.85Z" fill="black" />
</svg>
