<svg width="24" height="24" viewBox="0 0 24 24" fill="none" xmlns="http://www.w3.org/2000/svg">
<path d="M11.9993 3C11.5393 3 11.0693 3.04 10.5993 3.14C7.83934 3.67 5.63934 5.9 5.11934 8.66C4.63934 11.27 5.59934 13.67 7.33934 15.22C7.76934 15.6 7.99934 16.13 7.99934 16.69V19C7.99934 20.1 8.89934 21 9.99934 21H10.2793C10.6293 21.6 11.2593 22 11.9993 22C12.7393 22 13.3793 21.6 13.7193 21H13.9993C15.0993 21 15.9993 20.1 15.9993 19V16.69C15.9993 16.14 16.2193 15.6 16.6393 15.23C18.0893 13.95 18.9993 12.08 18.9993 10C18.9993 6.13 15.8693 3 11.9993 3ZM13.9993 17H9.99934V16H13.9993V17ZM9.99934 19V18H13.9993V19H9.99934ZM15.3093 13.74C15.2193 13.82 15.1493 13.92 15.0693 14H8.91934C8.83934 13.91 8.76934 13.81 8.67934 13.73C7.35934 12.55 6.76934 10.79 7.08934 9.03C7.44934 7.09 9.04934 5.48 10.9793 5.1C11.3193 5.03 11.6593 5 11.9993 5C14.7593 5 16.9993 7.24 16.9993 10C16.9993 11.43 16.3893 12.79 15.3093 13.74Z" fill="black" />
<path d="M12.5 11H11.5V14H12.5V11Z" fill="black" />
<path d="M10.379 8.87347L9.67188 9.58057L11.7932 11.7019L12.5003 10.9948L10.379 8.87347Z" fill="black" />
<path d="M11.4999 11.0048L12.207 11.7119L14.3283 9.59061L13.6212 8.88351L11.4999 11.0048Z" fill="black" />
</svg>
