<svg width="24" height="24" viewBox="0 0 24 24" fill="none" xmlns="http://www.w3.org/2000/svg">
<path d="M21.94 4.88C21.76 4.35 21.25 4 20.68 4C20.65 4 20.62 4 20.59 4H19.6L19.29 3.03C19.15 2.43 18.61 2 18 2C17.39 2 16.85 2.43 16.71 3.04L16.4 4H15.42C15.39 4 15.36 4 15.33 4C14.76 4 14.25 4.35 14.07 4.88C13.88 5.44 14.11 6.05 14.63 6.36L15.5 6.88L15.1 8.12C14.87 8.7 15.06 9.37 15.55 9.74C15.78 9.91 16.06 10 16.33 10C16.64 10 16.94 9.89 17.19 9.68L18 8.98L18.81 9.68C19.06 9.89 19.36 10 19.67 10C19.94 10 20.22 9.91 20.45 9.74C20.95 9.37 21.13 8.7 20.9 8.12L20.51 6.88L21.38 6.36C21.89 6.05 22.12 5.44 21.94 4.88ZM18 7C17.45 7 17 6.55 17 6C17 5.45 17.45 5 18 5C18.55 5 19 5.45 19 6C19 6.55 18.55 7 18 7Z" fill="black" />
<path d="M13.4905 10.51C13.0605 10.08 12.5505 9.78 12.0005 9.58V8H11.0005V9.38C10.8905 9.37 10.7705 9.35 10.6605 9.35C9.64051 9.35 8.61051 9.74 7.83051 10.52C7.71051 10.64 7.53051 10.82 7.33051 11.02L6.00051 10.52C4.44051 9.97 2.72051 10.79 2.17051 12.34C1.90051 13.09 1.94051 13.91 2.29051 14.63C2.52051 15.11 2.87051 15.5 3.29051 15.79C2.91051 17.14 3.23051 18.64 4.29051 19.7C5.07051 20.48 6.09051 20.87 7.12051 20.87C7.49051 20.87 7.85051 20.8 8.21051 20.7C8.50051 21.12 8.89051 21.47 9.37051 21.7C9.78051 21.9 10.2105 22 10.6505 22C10.9905 22 11.3305 21.94 11.6605 21.83C13.2205 21.28 14.0405 19.56 13.4805 17.98L12.9905 16.68C13.1905 16.48 13.3705 16.3 13.4905 16.18C14.3605 15.31 14.7305 14.14 14.6305 13.01H16.0005V12.01H14.4105C14.2205 11.46 13.9205 10.95 13.4905 10.51ZM7.58051 18.82C7.43051 18.86 7.28051 18.88 7.12051 18.88C6.59051 18.88 6.08051 18.67 5.71051 18.29C5.33051 17.91 5.12051 17.41 5.12051 16.88C5.12051 16.72 5.15051 16.56 5.18051 16.41C5.32051 16.42 5.46051 16.44 5.60051 16.44C6.45051 16.44 7.28051 16.24 8.04051 15.96C7.72051 16.85 7.50051 17.83 7.58051 18.82ZM4.67051 14.29C4.42051 14.2 4.22051 14.02 4.10051 13.78C3.98051 13.54 3.97051 13.27 4.06051 13.02C4.25051 12.5 4.82051 12.23 5.32051 12.41L8.48051 13.6C7.33051 14.2 5.85051 14.71 4.67051 14.29ZM10.9905 19.94C10.7405 20.03 10.4705 20.02 10.2305 19.9C9.99051 19.79 9.81051 19.58 9.72051 19.33C9.30051 18.15 9.81051 16.68 10.4205 15.53L11.6005 18.66C11.7805 19.18 11.5105 19.76 10.9905 19.94ZM12.2005 14.6L11.5905 12.99C11.5905 12.98 11.5805 12.97 11.5705 12.96C11.5505 12.92 11.5305 12.88 11.5105 12.84C11.4905 12.8 11.4705 12.77 11.4405 12.73C11.4105 12.7 11.3805 12.67 11.3505 12.64C11.3205 12.61 11.2905 12.58 11.2605 12.55C11.2305 12.52 11.1905 12.5 11.1505 12.48C11.1105 12.46 11.0805 12.43 11.0305 12.42C11.0205 12.42 11.0105 12.41 11.0005 12.4L9.40051 11.8C9.76051 11.51 10.1905 11.34 10.6605 11.34C11.1905 11.34 11.7005 11.55 12.0705 11.93C12.8005 12.66 12.8405 13.81 12.2005 14.6Z" fill="black" />
</svg>
