<svg width="24" height="24" viewBox="0 0 24 24" fill="none" xmlns="http://www.w3.org/2000/svg">
<path d="M1.39062 4.22L3.01063 5.84C3.01063 5.89 3.00063 5.94 3.00063 6V9.8C5.70062 9.8 6.00063 11.96 6.00063 12.5C6.00063 13.04 5.71063 15.2 3.00063 15.2V19C3.00063 20.1 3.90063 21 5.00063 21H8.80063C8.80063 18.29 10.9606 18 11.5006 18C12.0406 18 14.2006 18.29 14.2006 21H18.0006C18.0606 21 18.1106 21 18.1606 20.99L19.7706 22.6L21.1806 21.19L2.81062 2.81L1.39062 4.22ZM11.5006 16C10.0006 16 7.93063 16.83 7.13063 19H5.00063V16.87C7.17063 16.07 8.00063 14 8.00063 12.5C8.00063 11.81 7.82063 11 7.42063 10.25L13.7506 16.58C13.0006 16.18 12.1906 16 11.5006 16ZM8.83063 6L6.83063 4H9.00063C9.00063 2.62 10.1206 1.5 11.5006 1.5C12.8806 1.5 14.0006 2.62 14.0006 4H18.0006C19.1006 4 20.0006 4.9 20.0006 6V10C21.3806 10 22.5006 11.12 22.5006 12.5C22.5006 13.88 21.3806 15 20.0006 15V17.17L18.0006 15.17V13H20.0006C20.2806 13 20.5006 12.78 20.5006 12.5C20.5006 12.22 20.2806 12 20.0006 12H18.0006V6H12.0006V4C12.0006 3.72 11.7806 3.5 11.5006 3.5C11.2206 3.5 11.0006 3.72 11.0006 4V6H8.83063Z" fill="black" />
</svg>
