<svg width="24" height="24" viewBox="0 0 24 24" fill="none" xmlns="http://www.w3.org/2000/svg">
<path d="M9 14.25C9.69036 14.25 10.25 13.6904 10.25 13C10.25 12.3096 9.69036 11.75 9 11.75C8.30964 11.75 7.75 12.3096 7.75 13C7.75 13.6904 8.30964 14.25 9 14.25Z" fill="black" />
<path d="M17.5013 10C18.2513 10 18.9713 9.91 19.6713 9.76C19.8813 10.47 20.0013 11.22 20.0013 12C20.0013 13.22 19.7213 14.37 19.2313 15.4L20.7213 16.89C21.5313 15.44 22.0013 13.78 22.0013 12C22.0013 6.48 17.5213 2 12.0013 2C10.2213 2 8.56133 2.47 7.11133 3.28L12.4413 8.61C13.9313 9.49 15.6513 10 17.5013 10ZM10.6613 4.12C11.0913 4.05 11.5413 4 12.0013 4C14.9013 4 17.4413 5.56 18.8413 7.88C18.4113 7.95 17.9613 8 17.5013 8C14.6013 8 12.0613 6.44 10.6613 4.12Z" fill="black" />
<path d="M1.89062 3.72006L4.08063 5.91006C2.78063 7.60006 2.00063 9.71006 2.00063 12.0001C2.00063 17.5201 6.48062 22.0001 12.0006 22.0001C14.2906 22.0001 16.4006 21.2201 18.0906 19.9201L20.2806 22.1101L21.6906 20.7001L3.31062 2.31006L1.89062 3.72006ZM16.6606 18.4901C15.3506 19.4401 13.7406 20.0001 12.0006 20.0001C7.59062 20.0001 4.00063 16.4101 4.00063 12.0001C4.00063 11.9501 4.01063 11.9001 4.00063 11.8601C5.39062 11.3401 6.63062 10.5101 7.64062 9.47006L16.6606 18.4901ZM6.23063 8.06006C5.70063 8.61006 5.09063 9.09006 4.42063 9.47006C4.68063 8.70006 5.05063 7.99006 5.51063 7.34006L6.23063 8.06006Z" fill="black" />
</svg>
