<svg width="24" height="24" viewBox="0 0 24 24" fill="none" xmlns="http://www.w3.org/2000/svg">
<path d="M18.7008 12.4001C18.4208 12.2401 18.1308 12.1101 17.8408 12.0001C18.1308 11.8901 18.4208 11.7601 18.7008 11.6001C20.6208 10.4901 21.6908 8.48006 21.7008 6.41006C20.7908 5.89006 19.7508 5.61006 18.6908 5.61006C17.6708 5.61006 16.6408 5.87006 15.7008 6.41006C15.4208 6.57006 15.1608 6.76006 14.9208 6.95006C14.9708 6.64006 15.0008 6.32006 15.0008 6.00006C15.0008 3.78006 13.7908 1.85006 12.0008 0.810059C10.2108 1.85006 9.00078 3.78006 9.00078 6.00006C9.00078 6.32006 9.03078 6.64006 9.08078 6.95006C8.84078 6.75006 8.58078 6.56006 8.30078 6.40006C7.36078 5.86006 6.33078 5.60006 5.31078 5.60006C4.26078 5.60006 3.21078 5.88006 2.30078 6.40006C2.30078 8.47006 3.37078 10.4801 5.30078 11.5901C5.58078 11.7501 5.87078 11.8801 6.16078 11.9901C5.87078 12.1001 5.58078 12.2301 5.30078 12.3901C3.38078 13.5001 2.31078 15.5101 2.30078 17.5801C3.21078 18.1001 4.25078 18.3801 5.31078 18.3801C6.33078 18.3801 7.36078 18.1201 8.30078 17.5801C8.58078 17.4201 8.84078 17.2301 9.08078 17.0401C9.03078 17.3601 9.00078 17.6801 9.00078 18.0001C9.00078 20.2201 10.2108 22.1501 12.0008 23.1901C13.7908 22.1501 15.0008 20.2201 15.0008 18.0001C15.0008 17.6801 14.9708 17.3601 14.9208 17.0501C15.1608 17.2501 15.4208 17.4301 15.7008 17.5901C16.6408 18.1301 17.6708 18.3901 18.6908 18.3901C19.7408 18.3901 20.7908 18.1101 21.7008 17.5901C21.6908 15.5201 20.6208 13.5101 18.7008 12.4001ZM16.1608 8.52006C16.3708 8.35006 16.5408 8.23006 16.7008 8.15006C17.3108 7.80006 18.0008 7.61006 18.7008 7.61006C18.9708 7.61006 19.2308 7.64006 19.4908 7.69006C19.1808 8.60006 18.5508 9.38006 17.7108 9.87006C17.5408 9.97006 17.3508 10.0501 17.1308 10.1401L15.7508 10.6601C15.5808 10.2001 15.3408 9.79006 15.0308 9.42006L16.1608 8.52006ZM12.0008 3.37006C12.6308 4.09006 13.0008 5.03006 13.0008 6.00006C13.0008 6.19006 12.9808 6.41006 12.9508 6.63006L12.7208 8.07006C12.4808 8.03006 12.2408 8.00006 12.0008 8.00006C11.7608 8.00006 11.5208 8.03006 11.2908 8.07006L11.0608 6.63006C11.0208 6.41006 11.0008 6.19006 11.0008 6.00006C11.0008 5.02006 11.3708 4.09006 12.0008 3.37006ZM4.51078 7.68006C4.77078 7.62006 5.04078 7.60006 5.31078 7.60006C6.00078 7.60006 6.69078 7.78006 7.30078 8.14006C7.45078 8.23006 7.62078 8.34006 7.79078 8.49006L8.94078 9.45006C8.64078 9.81006 8.41078 10.2101 8.24078 10.6501L6.86078 10.1301C6.65078 10.0401 6.46078 9.95006 6.30078 9.86006C5.43078 9.36006 4.81078 8.59006 4.51078 7.68006ZM7.84078 15.4701C7.63078 15.6401 7.46078 15.7601 7.30078 15.8401C6.69078 16.1901 6.00078 16.3801 5.30078 16.3801C5.03078 16.3801 4.77078 16.3501 4.51078 16.3001C4.82078 15.3901 5.45078 14.6101 6.29078 14.1201C6.46078 14.0201 6.65078 13.9401 6.87078 13.8501L8.25078 13.3301C8.41078 13.7901 8.66078 14.2101 8.97078 14.5701L7.84078 15.4701ZM12.0008 20.6301C11.3708 19.9101 11.0008 18.9701 11.0008 18.0001C11.0008 17.8001 11.0208 17.5901 11.0608 17.3501L11.2808 15.9301C11.5108 15.9701 11.7508 16.0001 12.0008 16.0001C12.2408 16.0001 12.4808 15.9701 12.7108 15.9301L12.9408 17.3701C12.9808 17.5901 13.0008 17.8101 13.0008 18.0001C13.0008 18.9801 12.6308 19.9101 12.0008 20.6301ZM18.6908 16.3901C18.0008 16.3901 17.3108 16.2101 16.7008 15.8501C16.5208 15.7501 16.3608 15.6301 16.2108 15.5101L15.0608 14.5501C15.3608 14.1901 15.6008 13.7901 15.7608 13.3401L17.1408 13.8601C17.3608 13.9401 17.5508 14.0301 17.7108 14.1201C18.5608 14.6101 19.1808 15.3901 19.4908 16.3001C19.2208 16.3701 18.9508 16.3901 18.6908 16.3901Z" fill="black" />
</svg>
