<svg width="24" height="24" viewBox="0 0 24 24" fill="none" xmlns="http://www.w3.org/2000/svg">
<path d="M19.8902 13.89C20.9302 13.89 21.7802 13.04 21.7802 12C21.7802 10.96 20.9302 10.11 19.8902 10.11C18.8502 10.11 18.0002 10.96 18.0002 12C18.0002 13.04 18.8502 13.89 19.8902 13.89ZM15.6502 13.68C16.5802 13.68 17.3302 12.93 17.3302 12C17.3302 11.07 16.5802 10.32 15.6502 10.32C14.7202 10.32 13.9702 11.07 13.9702 12C13.9702 12.93 14.7202 13.68 15.6502 13.68ZM15.6502 9.42C16.5802 9.42 17.3302 8.67 17.3302 7.74C17.3302 6.81 16.5802 6.06 15.6502 6.06C14.7202 6.06 13.9702 6.81 13.9702 7.74C13.9702 8.67 14.7202 9.42 15.6502 9.42ZM15.6502 17.93C16.5802 17.93 17.3302 17.18 17.3302 16.25C17.3302 15.32 16.5802 14.57 15.6502 14.57C14.7202 14.57 13.9702 15.32 13.9702 16.25C13.9702 17.17 14.7202 17.93 15.6502 17.93ZM11.4102 13.47C12.2202 13.47 12.8802 12.81 12.8802 12C12.8802 11.19 12.2202 10.53 11.4102 10.53C10.6002 10.53 9.94023 11.19 9.94023 12C9.94023 12.81 10.5902 13.47 11.4102 13.47ZM11.4102 9.21C12.2202 9.21 12.8802 8.55 12.8802 7.74C12.8802 6.93 12.2202 6.27 11.4102 6.27C10.6002 6.27 9.94023 6.93 9.94023 7.74C9.94023 8.55 10.5902 9.21 11.4102 9.21ZM11.4102 17.73C12.2202 17.73 12.8802 17.07 12.8802 16.26C12.8802 15.45 12.2202 14.79 11.4102 14.79C10.6002 14.79 9.94023 15.45 9.94023 16.26C9.93023 17.07 10.5902 17.73 11.4102 17.73ZM11.4102 22C12.2202 22 12.8802 21.34 12.8802 20.53C12.8802 19.72 12.2202 19.06 11.4102 19.06C10.6002 19.06 9.94023 19.72 9.94023 20.53C9.93023 21.34 10.5902 22 11.4102 22ZM11.4102 4.94C12.2202 4.94 12.8802 4.28 12.8802 3.47C12.8802 2.66 12.2202 2 11.4102 2C10.6002 2 9.94023 2.66 9.94023 3.47C9.94023 4.28 10.5902 4.94 11.4102 4.94ZM7.16023 13.26C7.86023 13.26 8.42023 12.69 8.42023 12C8.42023 11.31 7.85023 10.74 7.16023 10.74C6.46023 10.74 5.90023 11.31 5.90023 12C5.90023 12.69 6.46023 13.26 7.16023 13.26ZM7.16023 17.51C7.86023 17.51 8.42023 16.94 8.42023 16.25C8.42023 15.55 7.85023 14.99 7.16023 14.99C6.46023 14.99 5.90023 15.56 5.90023 16.25C5.90023 16.94 6.46023 17.51 7.16023 17.51ZM7.16023 9.02C7.86023 9.02 8.42023 8.45 8.42023 7.76C8.42023 7.06 7.85023 6.5 7.16023 6.5C6.46023 6.5 5.90023 7.07 5.90023 7.76C5.90023 8.45 6.46023 9.02 7.16023 9.02ZM3.29023 13.05C3.87023 13.05 4.34023 12.58 4.34023 12C4.34023 11.42 3.87023 10.95 3.29023 10.95C2.71023 10.95 2.24023 11.42 2.24023 12C2.24023 12.58 2.71023 13.05 3.29023 13.05Z" fill="black" />
</svg>
