<svg width="24" height="24" viewBox="0 0 24 24" fill="none" xmlns="http://www.w3.org/2000/svg">
<path d="M5 15H19V9H5V15ZM7 11H17V13H7V11Z" fill="black" />
<path d="M13 2H11V5H13V2Z" fill="black" />
<path d="M19.0768 4.59654L17.2871 6.39893L18.7063 7.80813L20.496 6.00574L19.0768 4.59654Z" fill="black" />
<path d="M13 19H11V22H13V19Z" fill="black" />
<path d="M17.2891 17.7098L19.0791 19.5098L20.4991 18.0898L18.6991 16.2998L17.2891 17.7098Z" fill="black" />
<path d="M4.90127 4.60215L3.49414 6.00928L5.2831 7.79824L6.69023 6.39111L4.90127 4.60215Z" fill="black" />
<path d="M5.29457 16.2865L3.49219 18.0762L4.90139 19.4954L6.70377 17.7057L5.29457 16.2865Z" fill="black" />
</svg>
