<svg width="24" height="24" viewBox="0 0 24 24" fill="none" xmlns="http://www.w3.org/2000/svg">
<path d="M19.9999 6H11.9999L9.99992 4H7.16992L11.1699 8H19.9999V17.17L21.7599 18.93C21.9099 18.65 21.9999 18.34 21.9999 18V8C21.9999 6.9 21.0999 6 19.9999 6Z" fill="black" />
<path d="M2.09945 2.1001L0.689453 3.5101L2.24945 5.0701C2.09945 5.3501 2.00945 5.6601 2.00945 6.0001L1.99945 18.0001C1.99945 19.1001 2.89945 20.0001 3.99945 20.0001H17.1695L20.4795 23.3101L21.8895 21.9001L2.09945 2.1001ZM3.99945 18.0001V6.8301L15.1695 18.0001H3.99945Z" fill="black" />
</svg>
