<svg width="24" height="24" viewBox="0 0 24 24" fill="none" xmlns="http://www.w3.org/2000/svg">
<path d="M4.82945 2H19.9995C21.0995 2 21.9995 2.9 21.9995 4V19.17L19.9995 17.17V4H6.82945L4.82945 2ZM10.9195 6L10.3495 7.52L11.7095 8.88L11.9395 8.22H12.0395L12.5795 9.74L15.6195 12.78L13.0695 6H10.9195ZM20.4895 23.31L19.1695 22H3.99945C2.89945 22 1.99945 21.1 1.99945 20V4.83L0.689453 3.51L2.09945 2.1L21.8995 21.9L20.4895 23.31ZM17.1695 20L12.0995 14.93H9.57945L8.48945 18H6.40945L8.79945 11.63L3.99945 6.83V20H17.1695Z" fill="black" />
</svg>
