<svg width="24" height="24" viewBox="0 0 24 24" fill="none" xmlns="http://www.w3.org/2000/svg">
<path d="M17.9492 13C17.9492 16.31 15.2592 19 11.9492 19C8.63922 19 5.94922 16.31 5.94922 13C5.94922 9.69 8.63922 7 11.9492 7V11L16.9492 6L11.9492 1V5C7.52922 5 3.94922 8.58 3.94922 13C3.94922 17.42 7.52922 21 11.9492 21C16.3692 21 19.9492 17.42 19.9492 13H17.9492ZM12.4292 15.15C12.3792 15.22 12.3192 15.28 12.2492 15.32C12.1792 15.36 12.0792 15.38 11.9792 15.38C11.8092 15.38 11.6692 15.33 11.5592 15.23C11.4492 15.13 11.3892 14.99 11.3692 14.82H10.5292C10.5392 15.02 10.5792 15.19 10.6592 15.35C10.7392 15.51 10.8492 15.63 10.9792 15.74C11.1092 15.85 11.2692 15.93 11.4392 15.98C11.6092 16.03 11.7892 16.06 11.9692 16.06C12.2092 16.06 12.4292 16.02 12.6092 15.94C12.7892 15.86 12.9392 15.76 13.0592 15.63C13.1792 15.5 13.2692 15.35 13.3292 15.18C13.3892 15.01 13.4192 14.83 13.4192 14.64C13.4192 14.42 13.3892 14.21 13.3292 14.04C13.2692 13.87 13.1892 13.71 13.0792 13.59C12.9692 13.47 12.8292 13.37 12.6692 13.31C12.5092 13.25 12.3292 13.21 12.1192 13.21C12.0492 13.21 11.9792 13.22 11.9192 13.23C11.8592 13.24 11.7892 13.25 11.7392 13.27C11.6892 13.29 11.6392 13.3 11.5892 13.32C11.5392 13.34 11.5092 13.36 11.4792 13.37L11.5892 12.45H13.2892V11.74H10.8992L10.6492 13.91L11.3192 14.08C11.3492 14.05 11.3792 14.02 11.4192 13.99C11.4592 13.96 11.4892 13.94 11.5392 13.92C11.5892 13.9 11.6392 13.88 11.6892 13.87C11.7392 13.86 11.8192 13.85 11.8892 13.85C12.0092 13.85 12.1092 13.87 12.1892 13.9C12.2692 13.93 12.3492 13.99 12.3992 14.05C12.4492 14.11 12.4992 14.19 12.5292 14.29C12.5592 14.39 12.5692 14.48 12.5692 14.6C12.5692 14.72 12.5592 14.82 12.5392 14.91C12.5192 15 12.4792 15.08 12.4292 15.15Z" fill="black" />
</svg>
