<svg width="24" height="24" viewBox="0 0 24 24" fill="none" xmlns="http://www.w3.org/2000/svg">
<path d="M18 13C18 16.31 15.31 19 12 19C8.69 19 6 16.31 6 13C6 9.69 8.69 7 12 7V11L17 6L12 1V5C7.58 5 4 8.58 4 13C4 17.42 7.58 21 12 21C16.42 21 20 17.42 20 13H18Z" fill="black" />
<path d="M10.8991 16V11.73H10.8091L9.03906 12.36V13.05L10.0491 12.74V16H10.8991Z" fill="black" />
<path d="M14.3208 11.7802C14.1408 11.7102 13.9508 11.6802 13.7308 11.6802C13.5108 11.6802 13.3208 11.7102 13.1408 11.7802C12.9608 11.8502 12.8108 11.9602 12.6908 12.1102C12.5708 12.2602 12.4608 12.4502 12.4008 12.6802C12.3408 12.9102 12.3008 13.1802 12.3008 13.5002V14.2402C12.3008 14.5602 12.3408 14.8402 12.4108 15.0602C12.4808 15.2802 12.5808 15.4802 12.7108 15.6302C12.8408 15.7802 12.9908 15.8902 13.1708 15.9602C13.3508 16.0302 13.5408 16.0602 13.7608 16.0602C13.9808 16.0602 14.1708 16.0302 14.3508 15.9602C14.5308 15.8902 14.6808 15.7802 14.8008 15.6302C14.9208 15.4802 15.0208 15.2902 15.0908 15.0602C15.1608 14.8302 15.1908 14.5602 15.1908 14.2402V13.5002C15.1908 13.1802 15.1508 12.9002 15.0808 12.6802C15.0108 12.4602 14.9108 12.2602 14.7808 12.1102C14.6508 11.9602 14.4908 11.8502 14.3208 11.7802ZM14.3308 14.3502C14.3308 14.5402 14.3208 14.7002 14.2908 14.8302C14.2608 14.9602 14.2308 15.0702 14.1808 15.1502C14.1308 15.2302 14.0708 15.2902 13.9908 15.3202C13.9108 15.3502 13.8308 15.3702 13.7408 15.3702C13.6508 15.3702 13.5608 15.3502 13.4908 15.3202C13.4208 15.2902 13.3508 15.2302 13.3008 15.1502C13.2508 15.0702 13.2108 14.9602 13.1808 14.8302C13.1508 14.7002 13.1408 14.5402 13.1408 14.3502V13.3802C13.1408 13.1902 13.1508 13.0302 13.1808 12.9002C13.2108 12.7702 13.2408 12.6702 13.3008 12.5902C13.3608 12.5102 13.4108 12.4502 13.4908 12.4202C13.5708 12.3902 13.6508 12.3702 13.7408 12.3702C13.8308 12.3702 13.9208 12.3902 13.9908 12.4202C14.0608 12.4502 14.1308 12.5102 14.1808 12.5902C14.2308 12.6702 14.2708 12.7702 14.3008 12.9002C14.3308 13.0302 14.3408 13.1902 14.3408 13.3802V14.3502H14.3308Z" fill="black" />
</svg>
