<svg width="24" height="24" viewBox="0 0 24 24" fill="none" xmlns="http://www.w3.org/2000/svg">
<path d="M18 18.4999V17.4999C18 16.6999 17.3 15.9999 16.5 15.9999H13V21.9999H14.5V19.9999H15.6L16.5 21.9999H18L17.1 19.8999C17.6 19.5999 18 19.0999 18 18.4999ZM16.5 18.4999H14.5V17.4999H16.5V18.4999ZM3.5 17.9999H1.5V15.9999H0V21.9999H1.5V19.4999H3.5V21.9999H5V15.9999H3.5V17.9999ZM10 15.9999H6.5V21.9999H10C10.8 21.9999 11.5 21.2999 11.5 20.4999V17.4999C11.5 16.6999 10.8 15.9999 10 15.9999ZM10 20.4999H8V17.4999H10V20.4999ZM24 19.9999H22V21.9999H20.5V19.9999H18.5V18.4999H20.5V16.4999H22V18.4999H24V19.9999ZM10.98 4.14989L9.42 2.58989C14.52 0.169888 19.83 5.47989 17.41 10.5799L15.85 9.01989C16.66 6.05989 13.94 3.33989 10.98 4.14989ZM6.34 2.33989L4.93 3.75989L6.59 5.41989C4.17 10.5199 9.48 15.8299 14.58 13.4099L16.24 15.0699L17.65 13.6599L6.34 2.33989ZM8.15 6.97989L13.02 11.8499C10.06 12.6599 7.34 9.93989 8.15 6.97989Z" fill="black" />
</svg>
