<svg width="24" height="24" viewBox="0 0 24 24" fill="none" xmlns="http://www.w3.org/2000/svg">
<path d="M17.4992 15.0002V13.0002H18.5992L19.4992 15.0002H20.9992L20.0992 12.9002C20.5992 12.6002 20.9992 12.1002 20.9992 11.5002V10.5002C20.9992 9.70023 20.2992 9.00023 19.4992 9.00023H15.9992V13.8602L17.1392 15.0002H17.4992ZM17.4992 10.5002H19.4992V11.5002H17.4992V10.5002ZM12.9992 10.5002V10.8602L14.4992 12.3602V10.5002C14.4992 9.70023 13.7992 9.00023 12.9992 9.00023H11.1392L12.6392 10.5002H12.9992ZM2.50922 2.49023L1.44922 3.55023L6.89922 9.00023H6.49922V11.0002H4.49922V9.00023H2.99922V15.0002H4.49922V12.5002H6.49922V15.0002H7.99922V10.1002L9.49922 11.6002V15.0002H12.8992L20.4992 22.6002L21.5592 21.5402L2.50922 2.49023Z" fill="black" />
</svg>
