<svg width="24" height="24" viewBox="0 0 24 24" fill="none" xmlns="http://www.w3.org/2000/svg">
<path d="M11.9991 4C15.8691 4 18.9991 7.13 18.9991 11V12H14.9991V12.17L16.8291 14H18.9991V16.17L20.9991 18.17V11C20.9991 6.03 16.9691 2 11.9991 2C9.97914 2 8.11914 2.67 6.61914 3.8L8.04914 5.23C9.16914 4.45 10.5291 4 11.9991 4Z" fill="black" />
<path d="M2.09945 2.1001L0.689453 3.5101L4.01945 6.8401C3.36945 8.0901 2.99945 9.5001 2.99945 11.0001V18.0001C2.99945 19.1001 3.89945 20.0001 4.99945 20.0001H8.99945V12.0001H4.99945V11.0001C4.99945 10.0601 5.18945 9.1701 5.51945 8.3501L14.9995 17.8301V20.0001H17.1695L18.1695 21.0001H11.9995V23.0001H18.9995C19.3395 23.0001 19.6495 22.9101 19.9295 22.7601L20.4795 23.3101L21.8895 21.9001L2.09945 2.1001ZM6.99945 14.0001V18.0001H4.99945V14.0001H6.99945Z" fill="black" />
</svg>
