<svg width="24" height="24" viewBox="0 0 24 24" fill="none" xmlns="http://www.w3.org/2000/svg">
<path d="M6.03063 3.20021C7.15063 2.44021 8.51062 2.00021 10.0006 2.00021C13.9306 2.00021 17.0006 5.07021 17.0006 9.00021C17.0006 10.2602 16.6206 11.6502 15.9306 12.9002C15.9106 12.9402 15.8806 12.9802 15.8506 13.0302L14.3706 11.5502C14.7706 10.6902 15.0006 9.80021 15.0006 9.00021C15.0006 6.20021 12.8006 4.00021 10.0006 4.00021C9.08062 4.00021 8.24063 4.26021 7.50063 4.67021L6.03063 3.20021ZM17.2106 14.3802L18.6406 15.8102C20.1106 13.9302 21.0006 11.5702 21.0006 9.00021C21.0006 5.96021 19.7706 3.21021 17.7806 1.22021L16.3606 2.64021C17.9906 4.26021 19.0006 6.51021 19.0006 9.00021C19.0006 11.0202 18.3306 12.8802 17.2106 14.3802ZM10.0006 6.50021C9.79062 6.50021 9.60062 6.53021 9.41062 6.58021L12.4206 9.59021C12.4706 9.40022 12.5006 9.21021 12.5006 9.00021C12.5006 7.62021 11.3806 6.50021 10.0006 6.50021ZM21.1906 21.1902L2.81062 2.81021L1.39062 4.22021L3.52063 6.35021C3.19063 7.16021 3.00063 8.05021 3.00063 9.00021H5.00063C5.00063 8.64021 5.05063 8.29021 5.12063 7.95021L11.7306 14.5602C10.8506 15.2402 9.95062 15.9702 9.46062 17.4602C8.96062 18.9602 8.46063 19.4702 7.75063 19.8402C7.56063 19.9402 7.29063 20.0002 7.00063 20.0002C5.90063 20.0002 5.00063 19.1002 5.00063 18.0002H3.00063C3.00063 20.2102 4.79063 22.0002 7.00063 22.0002C7.57063 22.0002 8.13063 21.8802 8.64063 21.6502C10.0006 20.9402 10.7706 19.9202 11.3706 18.1002C11.6906 17.1202 12.2706 16.6702 13.0806 16.0502C13.1106 16.0302 13.1306 16.0102 13.1606 15.9902L19.7806 22.6102L21.1906 21.1902Z" fill="black" />
</svg>
