<svg width="24" height="24" viewBox="0 0 24 24" fill="none" xmlns="http://www.w3.org/2000/svg">
<path d="M13.4998 5.5C14.5998 5.5 15.4998 4.6 15.4998 3.5C15.4998 2.4 14.5998 1.5 13.4998 1.5C12.3998 1.5 11.4998 2.4 11.4998 3.5C11.4998 4.6 12.3998 5.5 13.4998 5.5ZM17.4998 10.78C16.2698 10.41 15.2798 9.61 14.6998 8.6L13.6998 7C13.2898 6.35 12.5898 6 11.8598 6C11.0798 6 10.2698 6.5 10.0798 7.44C9.8898 8.38 6.9998 23 6.9998 23H9.0998L10.8998 15L12.9998 17V23H14.9998V15.5L12.8998 13.5L13.4998 10.5C14.4998 11.65 15.9098 12.51 17.4998 12.84V23H18.9998V9H17.4998V10.78ZM7.4298 13.13L5.3098 12.72C4.7698 12.61 4.4098 12.09 4.5198 11.55L5.2798 7.62C5.4898 6.54 6.5398 5.83 7.6198 6.04L8.7798 6.27L7.4298 13.13Z" fill="black" />
</svg>
