<svg width="24" height="24" viewBox="0 0 24 24" fill="none" xmlns="http://www.w3.org/2000/svg">
<path d="M8.99945 4V5.38C8.16945 5.05 7.27945 4.88 6.38945 4.88C4.59945 4.88 2.80945 5.56 1.43945 6.93L4.76945 10.26H5.87945V11.37C6.73945 12.23 7.85945 12.68 8.98945 12.73V15H5.99945V18C5.99945 19.1 6.89945 20 7.99945 20H17.9995C19.6595 20 20.9995 18.66 20.9995 17V4H8.99945ZM7.88945 10.41V8.26H5.60945L4.56945 7.22C5.13945 7 5.75945 6.88 6.38945 6.88C7.72945 6.88 8.97945 7.4 9.92945 8.34L11.3395 9.75L11.1395 9.95C10.6295 10.46 9.94945 10.75 9.21945 10.75C8.74945 10.75 8.28945 10.63 7.88945 10.41ZM18.9995 17C18.9995 17.55 18.5495 18 17.9995 18C17.4495 18 16.9995 17.55 16.9995 17V15H10.9995V12.41C11.5695 12.18 12.0995 11.84 12.5595 11.38L12.7595 11.18L15.5895 14H16.9995V12.59L10.9995 6.62V6H18.9995V17Z" fill="black" />
</svg>
