<svg width="24" height="24" viewBox="0 0 24 24" fill="none" xmlns="http://www.w3.org/2000/svg">
<path d="M17.8306 15.0001H19.5006C20.0506 15.0001 20.5006 14.5501 20.5006 14.0001V12.5001C20.5006 11.9501 20.0506 11.5001 19.5006 11.5001H17.0006V10.5001H19.0006V11.0001H20.5006V10.0001C20.5006 9.45006 20.0506 9.00006 19.5006 9.00006H16.5006C15.9506 9.00006 15.5006 9.45006 15.5006 10.0001V11.5001C15.5006 12.0501 15.9506 12.5001 16.5006 12.5001H19.0006V13.5001H17.0006V13.0001H15.8306L17.8306 15.0001ZM8.00063 10.8301V15.0001H6.50063V12.5001H4.50063V15.0001H3.00063V9.00006H4.50063V11.0001H6.50063V9.33006L1.39062 4.22006L2.80062 2.81006L21.1806 21.1901L19.7706 22.6001L12.1706 15.0001H10.0006V12.8301L8.00063 10.8301Z" fill="black" />
</svg>
