<svg width="24" height="24" viewBox="0 0 24 24" fill="none" xmlns="http://www.w3.org/2000/svg">
<path d="M21.8995 21.9001L15.7995 15.8001L13.1095 13.1101L4.99945 5.0001L3.58945 3.5901L2.09945 2.1001L0.689453 3.5101L2.99945 5.8301V19.0001C2.99945 20.1001 3.89945 21.0001 4.99945 21.0001H18.1695L20.4795 23.3101L21.8995 21.9001ZM4.99945 19.0001V7.8301L11.8395 14.6701L10.9995 15.7201L8.99945 13.0001L5.99945 17.0001H14.1695L16.1695 19.0001H4.99945ZM7.82945 5.0001L5.82945 3.0001H18.9995C20.0995 3.0001 20.9995 3.9001 20.9995 5.0001V18.1701L18.9995 16.1701V5.0001H7.82945Z" fill="black" />
</svg>
