<svg width="24" height="24" viewBox="0 0 24 24" fill="none" xmlns="http://www.w3.org/2000/svg">
<path d="M21.1906 21.19L2.81062 2.81L1.39062 4.22L5.59063 8.42C4.59063 9.73 3.99062 11.36 3.99062 13.12C4.00062 17.48 7.58062 21 12.0006 21C13.7506 21 15.3606 20.44 16.6706 19.5L19.7706 22.6L21.1906 21.19ZM12.0006 19C8.69062 19 6.00063 16.37 6.00063 13.13C6.00063 11.94 6.36063 10.81 7.02063 9.85L12.0006 14.83V19ZM8.38063 5.56L12.0006 2L17.6506 7.56C19.1006 8.99 20.0006 10.96 20.0006 13.13C20.0006 14.31 19.7306 15.42 19.2606 16.43L12.0006 9.17V4.81L9.80062 6.97L8.38063 5.56Z" fill="black" />
</svg>
