<svg width="24" height="24" viewBox="0 0 24 24" fill="none" xmlns="http://www.w3.org/2000/svg">
<path d="M12 17.7398C13.6569 17.7398 15 15.1699 15 11.9998C15 8.82965 13.6569 6.25977 12 6.25977C10.3431 6.25977 9 8.82965 9 11.9998C9 15.1699 10.3431 17.7398 12 17.7398Z" fill="black" />
<path d="M9.04 16.87C8.71 16.95 8.36 17 8 17C5.24 17 3 14.76 3 12C3 9.24 5.24 7 8 7C8.36 7 8.71 7.05 9.04 7.13C9.43 6.57 9.92 6.01 10.53 5.5C9.75 5.19 8.9 5 8 5C4.14 5 1 8.14 1 12C1 15.86 4.14 19 8 19C8.9 19 9.75 18.81 10.53 18.5C9.92 17.99 9.43 17.43 9.04 16.87Z" fill="black" />
<path d="M16.0007 5C15.1007 5 14.2507 5.19 13.4707 5.5C14.0807 6.01 14.5707 6.57 14.9607 7.13C15.2907 7.05 15.6407 7 16.0007 7C18.7607 7 21.0007 9.24 21.0007 12C21.0007 14.76 18.7607 17 16.0007 17C15.6407 17 15.2907 16.95 14.9607 16.87C14.5707 17.43 14.0807 17.99 13.4707 18.5C14.2507 18.81 15.1007 19 16.0007 19C19.8607 19 23.0007 15.86 23.0007 12C23.0007 8.14 19.8607 5 16.0007 5Z" fill="black" />
</svg>
