<svg width="24" height="24" viewBox="0 0 24 24" fill="none" xmlns="http://www.w3.org/2000/svg">
<path d="M10.7 13.5296L8.99 11.8196C9 11.8796 9 11.9396 9 11.9996C9 13.0996 8.1 13.9996 7 13.9996C5.9 13.9996 5 13.0996 5 11.9996C5 10.8996 5.9 9.99957 7 9.99957C7.06 9.99957 7.12 9.99957 7.18 10.0096L5.47 8.29957C4.02 8.89957 3 10.3296 3 11.9996C3 14.2096 4.79 15.9996 7 15.9996C8.67 15.9996 10.1 14.9796 10.7 13.5296ZM12.19 15.0196C11.15 16.7996 9.21 17.9996 7 17.9996C3.69 17.9996 1 15.3096 1 11.9996C1 9.78957 2.2 7.84957 3.98 6.80957L1.39 4.21957L2.8 2.80957L21.18 21.1896L19.77 22.5996L12.19 15.0196ZM16.26 13.4296L17.5 12.4996L19.31 13.8596L21.17 11.9996L20.17 10.9996H13.83L11.83 8.99957H21L24 11.9996L19.5 16.4996L18.81 15.9896L16.26 13.4296Z" fill="black" />
</svg>
