<svg width="24" height="24" viewBox="0 0 24 24" fill="none" xmlns="http://www.w3.org/2000/svg">
<path d="M12.9998 3C8.02977 3 3.99977 7.03 3.99977 12C3.99977 12.06 4.00977 12.12 4.00977 12.19L2.16977 10.35L0.759766 11.76L4.99977 16L9.23977 11.76L7.82977 10.35L6.00977 12.17C6.00977 12.11 5.99977 12.06 5.99977 12C5.99977 8.14 9.13977 5 12.9998 5C16.8598 5 19.9998 8.14 19.9998 12C19.9998 15.86 16.8598 19 12.9998 19C11.0998 19 9.37977 18.24 8.11977 17.01L6.69977 18.42C8.31977 20.01 10.5498 21 12.9998 21C17.9698 21 21.9998 16.97 21.9998 12C21.9998 7.03 17.9698 3 12.9998 3ZM14.9998 11V10C14.9998 8.9 14.0998 8 12.9998 8C11.8998 8 10.9998 8.9 10.9998 10V11C10.4498 11 9.99977 11.45 9.99977 12V15C9.99977 15.55 10.4498 16 10.9998 16H14.9998C15.5498 16 15.9998 15.55 15.9998 15V12C15.9998 11.45 15.5498 11 14.9998 11ZM13.9998 11H11.9998V10C11.9998 9.45 12.4498 9 12.9998 9C13.5498 9 13.9998 9.45 13.9998 10V11Z" fill="black" />
</svg>
