<svg width="24" height="24" viewBox="0 0 24 24" fill="none" xmlns="http://www.w3.org/2000/svg">
<path d="M19 3H5C3.9 3 3 3.9 3 5V19C3 20.1 3.9 21 5 21H19C20.1 21 21 20.1 21 19V5C21 3.9 20.1 3 19 3ZM7.68 14.98H6V9H7.71C8.99 9 9.42 10.03 9.42 10.71V13.27C9.42 13.95 9 14.98 7.68 14.98ZM12.38 11.46V12.53H11.2V13.92H13.13V14.99H10.88C10.48 15 10.14 14.68 10.13 14.28V9.75C10.12 9.35 10.44 9.01 10.84 9H13.12V10.07H11.2V11.46H12.38ZM16.88 14.23C16.4 15.34 15.55 15.12 15.17 14.23L13.77 9H14.95L16.02 13.11L17.09 9H18.27L16.88 14.23Z" fill="black" />
<path d="M7.77063 10.1201H7.14062V13.8901H7.77063C7.91063 13.8901 8.05062 13.8401 8.19062 13.7301C8.33062 13.6301 8.40062 13.4701 8.40062 13.2601V10.7401C8.40062 10.5301 8.33062 10.3701 8.19062 10.2701C8.05062 10.1701 7.91063 10.1201 7.77063 10.1201Z" fill="black" />
</svg>
