<svg width="24" height="24" viewBox="0 0 24 24" fill="none" xmlns="http://www.w3.org/2000/svg">
<path d="M2 19C2 20.1 2.9 21 4 21H20C21.1 21 22 20.1 22 19V16H2V19ZM4 18H20V19H4V18Z" fill="black" />
<path d="M18.6598 11.5C16.7098 11.5 16.5698 12.5 15.3298 12.5C14.1398 12.5 13.9098 11.5 11.9998 11.5C10.0498 11.5 9.90977 12.5 8.66977 12.5C7.47977 12.5 7.24977 11.5 5.33977 11.5C3.38977 11.5 3.24977 12.5 2.00977 12.5V14.5C3.90977 14.5 4.17977 13.5 5.35977 13.5C6.54977 13.5 6.77977 14.5 8.68976 14.5C10.6398 14.5 10.7798 13.5 12.0198 13.5C13.2098 13.5 13.4398 14.5 15.3498 14.5C17.2998 14.5 17.4398 13.5 18.6798 13.5C19.8698 13.5 20.0798 14.48 21.9998 14.5L21.9898 12.52C20.3798 12.19 20.3698 11.5 18.6598 11.5Z" fill="black" />
<path d="M22 9C22.02 5 17.72 3 12 3C6.29 3 2 5 2 9V10H22V9ZM4.18 8C5.01 5.81 8.61 5 12 5C15.31 5 17.93 5.73 19.19 6.99C19.49 7.3 19.71 7.63 19.84 8H4.18Z" fill="black" />
</svg>
