<svg width="24" height="24" viewBox="0 0 24 24" fill="none" xmlns="http://www.w3.org/2000/svg">
<path d="M9.00063 6.16957V2.99957H15.0006V6.99957H11.0006V8.16957L9.00063 6.16957ZM19.4206 14.9996L22.0006 17.5696L21.2006 18.3696L14.4206 11.5896L15.2206 10.7896L17.9706 13.5396V8.99957H18.5706L22.0006 12.4296L19.4206 14.9996ZM19.1706 13.5496L20.3006 12.4196L19.1706 11.2896V13.5496ZM21.1906 21.1896L19.7806 22.5996L15.8006 18.6196L15.2206 19.1996L14.3706 18.3496L14.9506 17.7696L11.0006 13.8296V16.9996C11.0006 19.2096 9.22063 20.9996 7.01063 20.9996C4.80063 20.9996 3.00063 19.2096 3.00063 16.9996C3.00063 14.7896 4.79063 12.9996 7.01063 12.9996C7.74063 12.9996 8.42063 13.2096 9.01063 13.5496V11.8296L1.39062 4.21957L2.80062 2.80957L21.1906 21.1896Z" fill="black" />
</svg>
