<svg width="24" height="24" viewBox="0 0 24 24" fill="none" xmlns="http://www.w3.org/2000/svg">
<path d="M10.0001 5C10.0001 3.34 8.66008 2 7.00008 2C6.38008 2 5.81008 2.19 5.33008 2.5L9.48008 6.65C9.80008 6.18 10.0001 5.61 10.0001 5Z" fill="black" />
<path d="M14 6C14 4.9 14.9 4 16 4C17.1 4 18 4.9 18 6V15.17L20 17.17V6C20 3.79 18.21 2 16 2C13.79 2 12 3.79 12 6V9.17L14 11.17V6Z" fill="black" />
<path d="M2.09945 2.09961L0.689453 3.50961L5.16945 7.99961H3.99945L4.99945 17.9996H5.99945C5.99945 20.2096 7.78945 21.9996 9.99945 21.9996C12.2095 21.9996 13.9995 20.2096 13.9995 17.9996V16.8296L20.4895 23.3196L21.8995 21.9096L2.09945 2.09961ZM7.18945 15.9996H6.80945L6.20945 9.99961H7.16945L7.72945 10.5596L7.18945 15.9996ZM11.9995 17.9996C11.9995 19.0996 11.0995 19.9996 9.99945 19.9996C8.89945 19.9996 7.99945 19.0996 7.99945 17.9996H8.99945L9.55945 12.3896L11.9995 14.8296V17.9996Z" fill="black" />
</svg>
