<svg width="24" height="24" viewBox="0 0 24 24" fill="none" xmlns="http://www.w3.org/2000/svg">
<path d="M14.1705 13.71L15.5705 11.29C15.6605 11.14 15.6205 10.95 15.4905 10.84L14.0105 9.68C14.0405 9.46 14.0605 9.23 14.0605 9C14.0605 8.77 14.0405 8.54 14.0105 8.31L15.4905 7.15C15.6205 7.04 15.6605 6.85 15.5705 6.7L14.1705 4.28C14.0805 4.13 13.9005 4.07 13.7405 4.13L12.0005 4.83C11.6405 4.55 11.2505 4.32 10.8205 4.14L10.5605 2.29C10.5305 2.13 10.3805 2 10.2105 2H7.41049C7.24049 2 7.09049 2.13 7.06049 2.3L6.80049 4.15C6.38049 4.33 5.98049 4.56 5.62049 4.84L3.88049 4.14C3.72049 4.08 3.54049 4.14 3.45049 4.29L2.05049 6.71C1.96049 6.86 2.00049 7.05 2.13049 7.16L3.61049 8.32C3.58049 8.54 3.56049 8.77 3.56049 9C3.56049 9.23 3.58049 9.46 3.61049 9.69L2.13049 10.85C2.00049 10.96 1.96049 11.15 2.05049 11.3L3.45049 13.72C3.54049 13.87 3.72049 13.93 3.88049 13.87L5.62049 13.17C5.98049 13.45 6.37049 13.68 6.80049 13.86L7.06049 15.71C7.09049 15.87 7.24049 16 7.41049 16H10.2105C10.3805 16 10.5305 15.87 10.5605 15.7L10.8205 13.85C11.2405 13.67 11.6405 13.44 12.0005 13.16L13.7405 13.86C13.9005 13.92 14.0805 13.86 14.1705 13.71ZM8.81049 11C7.71049 11 6.81049 10.1 6.81049 9C6.81049 7.9 7.71049 7 8.81049 7C9.91049 7 10.8105 7.9 10.8105 9C10.8105 10.1 9.91049 11 8.81049 11Z" fill="black" />
<path d="M21.9212 18.67L20.9612 17.93C20.9812 17.79 21.0012 17.64 21.0012 17.49C21.0012 17.34 20.9912 17.19 20.9612 17.05L21.9112 16.31C21.9912 16.24 22.0212 16.12 21.9612 16.02L21.0612 14.47C21.0112 14.37 20.8912 14.34 20.7812 14.37L19.6712 14.82C19.4412 14.64 19.1912 14.49 18.9112 14.38L18.7412 13.2C18.7312 13.08 18.6312 13 18.5312 13H16.7412C16.6312 13 16.5312 13.08 16.5212 13.19L16.3512 14.37C16.0812 14.49 15.8212 14.63 15.5912 14.81L14.4812 14.36C14.3812 14.32 14.2612 14.36 14.2012 14.46L13.3012 16.01C13.2512 16.11 13.2612 16.23 13.3512 16.3L14.3012 17.04C14.2812 17.18 14.2712 17.33 14.2712 17.48C14.2712 17.63 14.2812 17.78 14.3012 17.92L13.3512 18.66C13.2712 18.73 13.2412 18.85 13.3012 18.95L14.2012 20.5C14.2512 20.6 14.3712 20.63 14.4812 20.6L15.5912 20.15C15.8212 20.33 16.0712 20.48 16.3512 20.59L16.5212 21.77C16.5412 21.88 16.6312 21.96 16.7412 21.96H18.5312C18.6412 21.96 18.7412 21.88 18.7512 21.77L18.9212 20.59C19.1912 20.47 19.4512 20.33 19.6712 20.15L20.7912 20.6C20.8912 20.64 21.0112 20.6 21.0712 20.5L21.9712 18.95C22.0312 18.86 22.0012 18.74 21.9212 18.67ZM17.6312 18.83C16.8912 18.83 16.2812 18.23 16.2812 17.48C16.2812 16.73 16.8812 16.13 17.6312 16.13C18.3812 16.13 18.9812 16.73 18.9812 17.48C18.9812 18.23 18.3712 18.83 17.6312 18.83Z" fill="black" />
</svg>
