<svg width="24" height="24" viewBox="0 0 24 24" fill="none" xmlns="http://www.w3.org/2000/svg">
<path d="M12.5005 6.9C14.2805 6.9 14.9405 7.75 15.0005 9H17.2105C17.1405 7.28 16.0905 5.7 14.0005 5.19V3H11.0005V5.16C10.6105 5.24 10.2505 5.37 9.90055 5.52L11.4105 7.03C11.7305 6.95 12.1005 6.9 12.5005 6.9ZM5.47055 3.92L4.06055 5.33L7.50055 8.77C7.50055 10.85 9.06055 11.99 11.4105 12.68L14.9205 16.19C14.5805 16.68 13.8705 17.1 12.5005 17.1C10.4405 17.1 9.63055 16.18 9.52055 15H7.32055C7.44055 17.19 9.08055 18.42 11.0005 18.83V21H14.0005V18.85C14.9605 18.67 15.8305 18.3 16.4605 17.73L18.6805 19.95L20.0905 18.54L5.47055 3.92Z" fill="black" />
</svg>
