<svg width="24" height="24" viewBox="0 0 24 24" fill="none" xmlns="http://www.w3.org/2000/svg">
<path d="M2.81062 2.80957L1.39062 4.21957L3.66062 6.48957C2.61063 8.06957 2.00063 9.95957 2.00063 11.9996C2.00063 17.5196 6.48062 21.9996 12.0006 21.9996C14.0406 21.9996 15.9306 21.3896 17.5106 20.3396L19.7806 22.6096L21.1906 21.1896L2.81062 2.80957ZM12.0006 19.9996C7.59062 19.9996 4.00063 16.4096 4.00063 11.9996C4.00063 10.5196 4.41062 9.13957 5.12063 7.93957L16.0506 18.8796C14.8606 19.5896 13.4806 19.9996 12.0006 19.9996Z" fill="black" />
<path d="M12.0002 4C16.4102 4 20.0002 7.59 20.0002 12C20.0002 13.48 19.5902 14.86 18.8802 16.05L20.3302 17.5C21.3902 15.93 22.0002 14.04 22.0002 12C22.0002 6.48 17.5202 2 12.0002 2C9.96023 2 8.07023 2.61 6.49023 3.66L7.94023 5.11C9.14023 4.41 10.5202 4 12.0002 4Z" fill="black" />
</svg>
