<svg width="24" height="24" viewBox="0 0 24 24" fill="none" xmlns="http://www.w3.org/2000/svg">
<path d="M21.4106 13.4199L18.8306 15.9999L17.0206 14.1899L19.2006 11.9999L12.0006 4.79988L9.81063 6.98988L8.00063 5.16988L10.5806 2.58988C11.3606 1.80988 12.6306 1.80988 13.4106 2.58988L21.4106 10.5899C22.2006 11.3699 22.2006 12.6299 21.4106 13.4199ZM21.1906 21.1899L19.7806 22.5999L16.0006 18.8299L13.4206 21.4099C12.6406 22.1899 11.3706 22.1899 10.5906 21.4099L2.59062 13.4099C1.81062 12.6299 1.81062 11.3599 2.59062 10.5799L5.17063 7.99988L1.39062 4.21988L2.80062 2.80988L21.1906 21.1899ZM14.1906 17.0199L12.8006 15.6299L12.0006 16.4299L7.58063 11.9999L8.38063 11.1999L6.98063 9.80988L4.80063 11.9999L12.0006 19.1999L14.1906 17.0199ZM16.4206 11.9999L12.0006 7.57988L11.2006 8.37988L15.6206 12.7999L16.4206 11.9999Z" fill="black" />
</svg>
