<svg width="24" height="24" viewBox="0 0 24 24" fill="none" xmlns="http://www.w3.org/2000/svg">
<path d="M11.9991 7.57012L16.4191 11.9901L11.9991 16.4101L7.57914 11.9901L11.9991 7.57012ZM11.9991 19.1901L4.79914 11.9901L11.9991 4.79012L17.9991 10.7901V7.16012L13.4191 2.58012C12.6391 1.80012 11.3691 1.80012 10.5891 2.58012L2.57914 10.5801C1.79914 11.3601 1.79914 12.6301 2.57914 13.4101L10.5891 21.4101C11.3691 22.1901 12.6391 22.1901 13.4191 21.4101L17.9991 16.8201V13.1901L11.9991 19.1901ZM19.9991 20.0001H21.9991V22.0001H19.9991V20.0001ZM21.9991 10.0001H19.9991V18.0001H21.9991V10.0001Z" fill="black" />
</svg>
