<svg width="24" height="24" viewBox="0 0 24 24" fill="none" xmlns="http://www.w3.org/2000/svg">
<path d="M19.7805 17.5098C17.3105 17.5098 13.2105 16.1798 11.1005 12.0798C8.77047 7.56977 10.6005 3.59977 11.6305 2.00977C6.27047 2.19977 1.98047 6.58977 1.98047 11.9998C1.98047 12.1398 2.00047 12.2798 2.00047 12.4198C2.61047 12.1598 3.28047 11.9998 3.98047 11.9998C3.98047 8.90977 5.71047 6.22977 8.28047 4.89977C7.78047 7.08977 7.74047 9.93977 9.32047 12.9998C10.8905 16.0398 13.5005 17.9498 16.1205 18.8598C14.8905 19.5998 13.4705 20.0098 11.9905 20.0098C11.4905 20.0098 10.9905 19.9598 10.5105 19.8698C10.1405 20.5698 9.57047 21.1398 8.87047 21.5098C9.85047 21.8298 10.9005 22.0098 11.9805 22.0098C15.4805 22.0098 18.5605 20.2098 20.3505 17.4898C20.1805 17.4998 19.9805 17.5098 19.7805 17.5098Z" fill="black" />
<path d="M7 16H6.82C6.4 14.84 5.3 14 4 14C2.34 14 1 15.34 1 17C1 18.66 2.34 20 4 20C4.62 20 6.49 20 7 20C8.1 20 9 19.1 9 18C9 16.9 8.1 16 7 16Z" fill="black" />
</svg>
