<svg width="24" height="24" viewBox="0 0 24 24" fill="none" xmlns="http://www.w3.org/2000/svg">
<path d="M6.98063 4.15C6.99063 4.15 6.99062 4.14 7.00063 4.14V2H10.0006V4H14.0006V2H17.0006V4.14C18.7206 4.59 20.0006 6.14 20.0006 8V17.17L18.0006 15.17V8C18.0006 6.9 17.1006 6 16.0006 6H8.83063L6.98063 4.15ZM14.8306 12L16.5006 13.67V12H14.8306ZM19.7806 22.61L18.9306 21.76C18.6506 21.91 18.3406 22 18.0006 22H6.00063C4.90063 22 4.00063 21.1 4.00063 20V8C4.00063 7.64 4.06063 7.31 4.15063 6.98L1.39062 4.22L2.80062 2.81L21.1806 21.19L19.7806 22.61ZM17.1706 20L11.1706 14H7.50063V12H9.17063L6.00063 8.83V20H17.1706Z" fill="black" />
</svg>
