<svg width="24" height="24" viewBox="0 0 24 24" fill="none" xmlns="http://www.w3.org/2000/svg">
<path d="M17.0006 6V14.17L19.0006 16.17V3C19.0006 1.9 18.1006 1.01 17.0006 1.01L7.00063 1C6.15063 1 5.42063 1.55 5.13063 2.3L8.83063 6H17.0006ZM7.00063 3H17.0006V4H7.00063V3ZM21.1906 21.19L19.0006 19L17.0006 17L7.00063 7L5.00063 5L2.81062 2.81L1.39062 4.22L5.00063 7.83V21C5.00063 22.1 5.90063 23 7.00063 23H17.0006C17.8506 23 18.5806 22.45 18.8706 21.7L19.7806 22.61L21.1906 21.19ZM17.0006 21H7.00063V20H17.0006V21ZM7.00063 18V9.83L15.1706 18H7.00063Z" fill="black" />
</svg>
