<svg width="24" height="24" viewBox="0 0 24 24" fill="none" xmlns="http://www.w3.org/2000/svg">
<path d="M20.3995 5.6H21.9995L18.9995 11V7H17.9995V2H21.9995L20.3995 5.6ZM15.9995 11.4V13.17L17.9995 15.17V11C17.9995 10.12 17.2795 9.4 16.3995 9.4H13.8595L12.5795 8H10.8295L14.2295 11.4H15.9995ZM2.09945 2.1L0.689453 3.51L6.34945 9.17L6.13945 9.4H3.59945C2.71945 9.4 1.99945 10.12 1.99945 11V20.4C1.99945 21.28 2.71945 22 3.59945 22H16.3995C17.1495 22 17.7795 21.48 17.9495 20.78L20.4895 23.32L21.8995 21.91L2.09945 2.1ZM11.4995 15.5C11.4995 16.33 10.8295 17 9.99945 17C9.16945 17 8.49945 16.33 8.49945 15.5C8.49945 14.67 9.16945 14 9.99945 14C10.8295 14 11.4995 14.67 11.4995 15.5ZM15.9595 20H3.99945V11.4H6.13945H7.01945L7.60945 10.75L7.75945 10.59L9.25945 12.09C7.67945 12.43 6.49945 13.82 6.49945 15.5C6.49945 17.43 8.06945 19 9.99945 19C11.6795 19 13.0695 17.82 13.4195 16.24L15.9695 18.79L15.9595 20Z" fill="black" />
</svg>
