<svg width="24" height="24" viewBox="0 0 24 24" fill="none" xmlns="http://www.w3.org/2000/svg">
<path d="M0.999687 21H16.0097V21.98C16.0097 22.54 15.5597 22.99 14.9997 22.99H2.00969C1.44969 22.99 0.999687 22.54 0.999687 21.98V21ZM20.4897 23.31L15.9997 18.83V19H0.999687V17H14.1697L12.1697 15H0.999687C0.999687 11.76 3.45969 9.83 6.37969 9.21L0.679688 3.51L2.09969 2.1L12.9997 13L14.9997 15L21.8997 21.9L20.4897 23.31ZM10.1697 13L8.16969 11C6.74969 11.06 4.64969 11.56 3.61969 13H10.1697ZM22.9997 5H17.9997V1H15.9997V5H10.9997L11.2297 7H20.7897L19.7897 16.97L21.6197 18.8L22.9997 5Z" fill="black" />
</svg>
