<svg width="24" height="24" viewBox="0 0 24 24" fill="none" xmlns="http://www.w3.org/2000/svg">
<path d="M16.0006 13.17L14.5006 11.67V9H16.0006V13.17ZM19.7806 22.61L17.9306 20.76C17.6506 20.91 17.3406 21 17.0006 21C17.0006 21.55 16.5506 22 16.0006 22C15.4506 22 15.0006 21.55 15.0006 21H9.00063C9.00063 21.55 8.55063 22 8.00063 22C7.45062 22 7.00063 21.55 7.00063 21C5.90063 21 5.00063 20.1 5.00063 19V8C5.00063 7.95 5.02063 7.9 5.02063 7.85L1.39062 4.22L2.80062 2.81L21.1806 21.19L19.7806 22.61ZM16.1706 19L12.7506 15.58V18H11.2506V14.08L9.50062 12.33V18H8.00063V10.83L7.00063 9.83V19H16.1706ZM12.7506 9H11.8306L12.7506 9.92V9ZM19.0006 8V16.17L17.0006 14.17V8H10.8306L9.84062 7.01L9.00063 6.17V6V3C9.00063 2.45 9.45062 2 10.0006 2H14.0006C14.5506 2 15.0006 2.45 15.0006 3V6H17.0006C18.1006 6 19.0006 6.9 19.0006 8ZM10.5006 6H13.5006V3.5H10.5006V6Z" fill="black" />
</svg>
