<svg width="24" height="24" viewBox="0 0 24 24" fill="none" xmlns="http://www.w3.org/2000/svg">
<path d="M15.9995 14V6C15.9995 4.24 18.2395 2 20.9995 2V18.17L18.9995 16.17V14H15.9995ZM20.4895 23.31L10.0195 12.85C9.68945 12.94 9.35945 13 8.99945 13V22H6.99945V13C4.78945 13 2.99945 11.21 2.99945 9V5.83L0.689453 3.51L2.09945 2.1L21.8995 21.9L20.4895 23.31ZM6.16945 9L4.99945 7.83V9H6.16945ZM8.99945 2H6.99945V4.17L8.99945 6.17V2ZM12.9995 9V2H10.9995V8.17L12.8495 10.02C12.9395 9.69 12.9995 9.36 12.9995 9Z" fill="black" />
</svg>
