<svg width="24" height="24" viewBox="0 0 24 24" fill="none" xmlns="http://www.w3.org/2000/svg">
<path d="M8.89969 6.06961L7.47969 4.65961L8.99969 2.99961H14.9997L16.8297 4.99961H19.9997C21.0997 4.99961 21.9997 5.89961 21.9997 6.99961V18.9996C21.9997 19.0496 21.9897 19.0996 21.9797 19.1596L19.9997 17.1696V6.99961H15.9497L14.1197 4.99961H9.87969L8.89969 6.06961ZM20.4897 23.3096L18.1697 20.9996H3.99969C2.89969 20.9996 1.99969 20.0996 1.99969 18.9996V6.99961C1.99969 6.40961 2.26969 5.87961 2.67969 5.50961L0.679688 3.50961L2.09969 2.09961L21.8997 21.8996L20.4897 23.3096ZM9.18969 12.0196C9.07969 12.3296 8.99969 12.6496 8.99969 12.9996C8.99969 14.6596 10.3397 15.9996 11.9997 15.9996C12.3497 15.9996 12.6697 15.9196 12.9797 15.8096L9.18969 12.0196ZM16.1697 18.9996L14.4897 17.3196C13.7597 17.7496 12.9097 17.9996 11.9997 17.9996C9.23969 17.9996 6.99969 15.7596 6.99969 12.9996C6.99969 12.0896 7.24969 11.2396 7.67969 10.5096L4.16969 6.99961H3.99969V18.9996H16.1697ZM14.8097 11.9796L16.8797 14.0496C16.9597 13.7096 16.9997 13.3596 16.9997 12.9996C16.9997 10.2396 14.7597 7.99961 11.9997 7.99961C11.6397 7.99961 11.2897 8.03961 10.9397 8.11961L13.0097 10.1896C13.8497 10.4896 14.5097 11.1496 14.8097 11.9796Z" fill="black" />
</svg>
