<svg width="24" height="24" viewBox="0 0 24 24" fill="none" xmlns="http://www.w3.org/2000/svg">
<path d="M8.00063 19.9996C8.00063 21.0996 7.10063 21.9996 6.00063 21.9996C4.90063 21.9996 4.00063 21.0996 4.00063 19.9996C4.00063 18.8996 4.90063 17.9996 6.00063 17.9996C7.10063 17.9996 8.00063 18.8996 8.00063 19.9996ZM15.0006 8.65957V12.1696L17.0006 14.1696V6.26957C17.5806 5.58957 17.9706 4.99957 18.6506 4.99957C19.4206 4.99957 20.0006 5.65957 20.0006 6.47957V6.99957H22.0006V6.47957C22.0006 4.55957 20.5206 2.99957 18.6506 2.99957C16.9906 2.99957 16.1106 4.26957 15.4706 5.02957L11.9706 9.13957L13.3906 10.5596L15.0006 8.65957ZM19.7806 22.6096L17.8706 20.6996C17.5806 21.4596 16.8606 21.9996 16.0006 21.9996C14.9006 21.9996 14.0006 21.0996 14.0006 19.9996C14.0006 19.1396 14.5406 18.4196 15.3006 18.1296L14.1706 16.9996H7.43062C6.58063 16.9996 6.12063 15.9996 6.67063 15.3496L9.36062 12.1896L1.39062 4.21957L2.80062 2.80957L10.6606 10.6696L12.0806 12.0896L21.1906 21.1996L19.7806 22.6096ZM12.1706 14.9996L10.7806 13.6096L9.60063 14.9996H12.1706ZM10.0006 4.99957C10.2906 4.99957 10.5806 5.01957 10.8606 5.04957L9.49062 6.66957L10.9106 8.08957L14.3006 4.09957C13.0306 3.39957 11.5606 2.99957 10.0006 2.99957C8.77062 2.99957 7.60063 3.24957 6.53063 3.69957L8.10063 5.26957C8.71063 5.09957 9.35062 4.99957 10.0006 4.99957Z" fill="black" />
</svg>
