<svg width="24" height="24" viewBox="0 0 24 24" fill="none" xmlns="http://www.w3.org/2000/svg">
<path d="M10.0006 4C10.0006 2.9 10.9006 2 12.0006 2C13.1006 2 14.0006 2.9 14.0006 4C14.0006 5.1 13.1006 6 12.0006 6C10.9006 6 10.0006 5.1 10.0006 4ZM19.0006 13V11C17.4606 11.02 15.9106 10.25 14.9306 9.17L13.6406 7.74C13.4006 7.5 13.2006 7.38 13.0106 7.28C12.6506 7.09 12.2906 6.98 11.8106 7.02C11.3206 7.06 10.9006 7.29 10.5806 7.63L14.0006 11.05C15.2906 12.12 17.2506 12.99 19.0006 13ZM10.0006 20C8.34062 20 7.00063 18.66 7.00063 17C7.00063 15.69 7.84063 14.59 9.00063 14.17V12.1C6.72062 12.56 5.00063 14.58 5.00063 17C5.00063 19.76 7.24062 22 10.0006 22C12.4206 22 14.4406 20.28 14.9006 18H12.8306C12.4206 19.16 11.3106 20 10.0006 20ZM2.81062 2.81L1.39062 4.22L10.0006 12.83V15C10.0006 16.1 10.9006 17 12.0006 17H14.1706L19.7806 22.61L21.1906 21.2L2.81062 2.81Z" fill="black" />
</svg>
