<svg width="24" height="24" viewBox="0 0 24 24" fill="none" xmlns="http://www.w3.org/2000/svg">
<path d="M19 3H14.82C14.4 1.84 13.3 1 12 1C10.7 1 9.6 1.84 9.18 3H5C3.9 3 3 3.9 3 5V19C3 20.1 3.9 21 5 21H19C20.1 21 21 20.1 21 19V5C21 3.9 20.1 3 19 3ZM12 2.75C12.41 2.75 12.75 3.09 12.75 3.5C12.75 3.91 12.41 4.25 12 4.25C11.59 4.25 11.25 3.91 11.25 3.5C11.25 3.09 11.59 2.75 12 2.75ZM19 19H5V5H19V19Z" fill="black" />
<path d="M15.08 11.0302L12.96 8.91016L7 14.8602V17.0002H9.1L15.08 11.0302Z" fill="black" />
<path d="M16.8499 9.27C17.0499 9.07 17.0499 8.76 16.8499 8.56L15.4399 7.15C15.2399 6.95 14.9299 6.95 14.7299 7.15L13.6699 8.21L15.7899 10.33L16.8499 9.27Z" fill="black" />
</svg>
