<svg width="24" height="24" viewBox="0 0 24 24" fill="none" xmlns="http://www.w3.org/2000/svg">
<path d="M11.9993 22C13.0993 22 13.9993 21.1 13.9993 20H9.9993C9.9993 21.1 10.8993 22 11.9993 22ZM17.9993 16V11C17.9993 7.93 16.3693 5.36 13.4993 4.68V4C13.4993 3.17 12.8293 2.5 11.9993 2.5C11.1693 2.5 10.4993 3.17 10.4993 4V4.68C7.6393 5.36 5.9993 7.92 5.9993 11V16L3.9993 18V19H19.9993V18L17.9993 16ZM15.9993 17H7.9993V11C7.9993 8.52 9.5093 6.5 11.9993 6.5C14.4893 6.5 15.9993 8.52 15.9993 11V17ZM7.5793 4.08L6.1493 2.65C3.7493 4.48 2.1693 7.3 2.0293 10.5H4.0293C4.1793 7.85 5.5393 5.53 7.5793 4.08ZM19.9693 10.5H21.9693C21.8193 7.3 20.2393 4.48 17.8493 2.65L16.4293 4.08C18.4493 5.53 19.8193 7.85 19.9693 10.5Z" fill="black" />
</svg>
