<svg width="24" height="24" viewBox="0 0 24 24" fill="none" xmlns="http://www.w3.org/2000/svg">
<path d="M8.50063 13C9.33063 13 10.0006 13.67 10.0006 14.5C10.0006 15.33 9.33063 16 8.50063 16C7.67063 16 7.00063 15.33 7.00063 14.5C7.00063 13.67 7.67063 13 8.50063 13ZM19.7806 22.61L18.1406 20.97C18.0906 20.98 18.0506 21 18.0006 21H17.0006C16.4506 21 16.0006 20.55 16.0006 20V19H8.00063V20C8.00063 20.55 7.55063 21 7.00063 21H6.00063C5.45062 21 5.00063 20.55 5.00063 20V18.22C4.39062 17.67 4.00063 16.88 4.00063 16V6.83L1.39062 4.22L2.80062 2.81L21.1806 21.19L19.7806 22.61ZM6.00063 8.83V10H7.17063L6.00063 8.83ZM14.1706 17L9.17063 12H6.00063V16C6.00063 16.37 6.21063 16.62 6.34063 16.73L6.63063 17H14.1706ZM12.0006 4C15.6906 4 17.1106 4.46 17.6606 4.99H7.82063L9.82062 6.99H18.0006V10H12.8306L14.8306 12H18.0006V15.17L19.8106 16.98C19.9206 16.67 20.0006 16.35 20.0006 16V6C20.0006 2.5 16.4206 2 12.0006 2C9.48063 2 7.24063 2.16 5.78063 2.95L7.31063 4.48C8.17063 4.2 9.60062 4 12.0006 4Z" fill="black" />
</svg>
