<svg width="24" height="24" viewBox="0 0 24 24" fill="none" xmlns="http://www.w3.org/2000/svg">
<path d="M11.9995 2.01953C6.48953 2.01953 2.01953 6.48953 2.01953 11.9995C2.01953 17.5095 6.48953 21.9795 11.9995 21.9795C17.5095 21.9795 21.9795 17.5095 21.9795 11.9995C21.9795 6.48953 17.5095 2.01953 11.9995 2.01953ZM11.9995 19.9795C7.59953 19.9795 4.01953 16.3995 4.01953 11.9995C4.01953 7.59953 7.59953 4.01953 11.9995 4.01953C16.3995 4.01953 19.9795 7.59953 19.9795 11.9995C19.9795 16.3995 16.3995 19.9795 11.9995 19.9795ZM12.7495 4.99953L8.24953 13.4995H11.3895V18.9995L15.7495 10.4995H12.7495V4.99953Z" fill="black" />
</svg>
