<svg width="24" height="24" viewBox="0 0 24 24" fill="none" xmlns="http://www.w3.org/2000/svg">
<path d="M16.7906 5.79957L14.0006 2.99957H21.0006V9.99957L18.2106 7.19957L14.1206 11.2896L12.7106 9.87957L16.7906 5.79957ZM19.0006 11.9996V16.1696L21.0006 18.1696V11.9996H19.0006ZM19.7806 22.6096L18.1706 20.9996H5.00063C3.89062 20.9996 3.00063 20.0996 3.00063 18.9996V5.82957L1.39062 4.21957L2.80062 2.80957L21.1806 21.1896L19.7806 22.6096ZM16.1706 18.9996L11.2906 14.1196L9.70062 15.7096L8.29063 14.2996L9.88062 12.7096L5.00063 7.82957V18.9996H16.1706ZM7.83063 4.99957H12.0006V2.99957H5.83063L7.83063 4.99957Z" fill="black" />
</svg>
