<svg width="24" height="24" viewBox="0 0 24 24" fill="none" xmlns="http://www.w3.org/2000/svg">
<path d="M20.0006 17.1696L16.6306 13.7896C17.2706 14.0096 17.8606 14.2696 18.4006 14.5496C19.3706 15.0596 19.9806 16.0696 20.0006 17.1696ZM21.1906 21.1896L19.7806 22.5996L17.1706 19.9996H4.00063V17.2196C4.00063 16.0996 4.61063 15.0696 5.61063 14.5596C6.90063 13.8996 8.48062 13.3396 10.2806 13.1096L1.39062 4.21957L2.80062 2.80957L21.1906 21.1896ZM15.1706 17.9996L12.1706 14.9996C12.1106 14.9996 12.0606 14.9996 12.0006 14.9996C9.63062 14.9996 7.71063 15.7296 6.52063 16.3396C6.20062 16.4996 6.00063 16.8396 6.00063 17.2196V17.9996H15.1706ZM12.0006 5.99957C13.1006 5.99957 14.0006 6.89957 14.0006 7.99957C14.0006 8.85957 13.4606 9.58957 12.7006 9.86957L14.1806 11.3496C15.2806 10.6396 16.0006 9.39957 16.0006 7.99957C16.0006 5.78957 14.2106 3.99957 12.0006 3.99957C10.6006 3.99957 9.36062 4.71957 8.65062 5.81957L10.1306 7.29957C10.4106 6.53957 11.1406 5.99957 12.0006 5.99957Z" fill="black" />
</svg>
