<svg width="24" height="24" viewBox="0 0 24 24" fill="none" xmlns="http://www.w3.org/2000/svg">
<path d="M17.3406 14.5396L15.9106 13.1096C16.4706 12.3796 16.9606 11.6096 17.3806 10.7896L15.1806 8.58957C14.9006 8.30957 14.8206 7.91957 14.9306 7.56957C15.3006 6.44957 15.5006 5.24957 15.5006 3.99957C15.5006 3.44957 15.9506 2.99957 16.5006 2.99957H20.0006C20.5506 2.99957 21.0006 3.44957 21.0006 3.99957C21.0006 7.97957 19.6306 11.6396 17.3406 14.5396ZM14.5206 17.3496C11.6306 19.6396 7.97062 20.9996 4.00063 20.9996C3.45063 20.9996 3.00063 20.5496 3.00063 19.9996V16.5096C3.00063 15.9596 3.45063 15.5096 4.00063 15.5096C5.24063 15.5096 6.45063 15.3096 7.57063 14.9396C7.67063 14.8996 7.78063 14.8896 7.88063 14.8896C8.14062 14.8896 8.39063 14.9896 8.59063 15.1796L10.7906 17.3796C11.6006 16.9596 12.3706 16.4796 13.0906 15.9196L1.39062 4.21957L2.81062 2.80957L21.1906 21.1996L19.7806 22.6096L14.5206 17.3496ZM7.60063 17.0196C6.75063 17.2596 5.88063 17.4096 5.00063 17.4696V18.9596C6.32063 18.8696 7.59063 18.6096 8.80063 18.2096L7.60063 17.0196ZM17.4606 4.99957C17.4006 5.88957 17.2506 6.75957 17.0106 7.58957L18.2106 8.78957C18.6206 7.58957 18.8806 6.31957 18.9706 4.99957H17.4606Z" fill="black" />
</svg>
