<svg width="24" height="24" viewBox="0 0 24 24" fill="none" xmlns="http://www.w3.org/2000/svg">
<path d="M20 5V4C20 2.9 19.1 2 18 2C16.9 2 16 2.9 16 4V5H15V10H21V5H20ZM19 5H17V4C17 3.45 17.45 3 18 3C18.55 3 19 3.45 19 4V5Z" fill="black" />
<path d="M20.1994 14.87L16.5294 14.14C16.0294 14.04 15.6994 14.34 15.6294 14.41L13.1094 16.91C10.6094 15.48 8.53941 13.41 7.10941 10.91L9.60941 8.39C9.83941 8.15 9.93941 7.82 9.87941 7.49L9.12941 3.8C9.03941 3.34 8.62941 3 8.14941 3H3.99941C3.43941 3 2.96941 3.47 2.99941 4.03C3.16941 6.92 4.04941 9.63 5.42941 12C7.00941 14.73 9.27941 16.99 11.9994 18.57C14.3694 19.94 17.0794 20.83 19.9694 21C20.5194 21.03 20.9994 20.57 20.9994 20V15.85C20.9994 15.37 20.6594 14.96 20.1994 14.87ZM5.09941 5H7.32941L7.79941 7.35L6.16941 9C5.62941 7.7 5.26941 6.37 5.09941 5ZM18.9994 18.9C17.6294 18.72 16.2994 18.37 14.9994 17.83L16.6494 16.2L18.9994 16.67V18.9Z" fill="black" />
</svg>
