<svg width="24" height="24" viewBox="0 0 24 24" fill="none" xmlns="http://www.w3.org/2000/svg">
<path d="M21.1906 21.1896L2.81062 2.80957L1.39062 4.21957L3.00063 5.82957V18.9996C3.00063 20.0996 3.90063 20.9996 5.00063 20.9996H18.1706L19.7806 22.6096L21.1906 21.1896ZM8.25063 18.9996H5.00063V7.82957L7.00063 9.82957V13.4996C7.00063 14.0496 7.45062 14.4996 8.00063 14.4996H8.25063V18.9996ZM9.75062 18.9996V14.4996H10.0006C10.4606 14.4996 10.8206 14.1896 10.9406 13.7696L14.2506 17.0796V18.9996H9.75062ZM11.0006 8.16957L5.83063 2.99957H19.0006C20.1006 2.99957 21.0006 3.89957 21.0006 4.99957V18.1696L19.0006 16.1696V4.99957H17.0006V13.4996C17.0006 13.6896 16.9306 13.8596 16.8406 14.0096L13.0006 10.1696V4.99957H11.0006V8.16957Z" fill="black" />
</svg>
