<svg width="24" height="24" viewBox="0 0 24 24" fill="none" xmlns="http://www.w3.org/2000/svg">
<path d="M20 4H4C2.9 4 2 4.9 2 6V18C2 19.1 2.9 20 4 20H20C21.1 20 22 19.1 22 18V6C22 4.9 21.1 4 20 4ZM20 18H4V6H20V18Z" fill="black" />
<path d="M6.48977 10.5V15H7.63977V9H6.76977L5.00977 10.27L5.58977 11.16L6.48977 10.5Z" fill="black" />
<path d="M11.4705 10.0501C11.9705 10.0501 12.2805 10.3701 12.2805 10.7701C12.2805 11.1401 12.1405 11.4101 11.7405 11.8301C11.3805 12.2101 10.6805 12.9101 9.61055 13.9801V15.0001H13.5005V14.0101H11.1305L11.1005 13.9601C11.7805 13.2801 12.2505 12.8201 12.5005 12.5701C13.1105 11.9701 13.4205 11.3501 13.4205 10.7101C13.4205 10.4701 13.3705 9.67014 12.5105 9.23014C12.0405 9.00014 11.2505 8.87014 10.5605 9.20014C9.74055 9.59014 9.57055 10.3301 9.56055 10.3501L10.5705 10.7701C10.6705 10.4401 10.9505 10.0501 11.4705 10.0501Z" fill="black" />
<path d="M16.9895 13.94C16.1595 13.94 15.9995 13.18 15.9695 13.08L14.9395 13.49C15.3895 15.08 16.9495 15 16.9895 15C18.1895 15 18.6695 14.28 18.7495 14.15C19.0695 13.66 19.1095 12.91 18.7395 12.39C18.5695 12.15 18.3395 11.98 18.0595 11.87V11.8C18.2595 11.7 18.4295 11.54 18.5795 11.32C18.8395 10.91 18.8895 10.25 18.5595 9.75C18.4795 9.64 18.0295 9 16.9395 9C15.6795 9 15.1995 9.9 15.0895 10.24L16.0795 10.65C16.1895 10.33 16.4295 10.01 16.9295 10.01C17.3695 10.01 17.6795 10.27 17.6795 10.66C17.6795 11.24 17.1295 11.38 16.7995 11.38H16.3395V12.38H16.8395C17.3995 12.38 17.8795 12.62 17.8795 13.17C17.8795 13.66 17.3995 13.94 16.9895 13.94Z" fill="black" />
</svg>
