<svg width="24" height="24" viewBox="0 0 24 24" fill="none" xmlns="http://www.w3.org/2000/svg">
<path d="M15.4502 16.5209L12.4402 13.5109C12.3302 13.4009 12.2002 13.3809 12.1302 13.3809C12.0602 13.3809 11.9302 13.4009 11.8202 13.5109L8.80016 16.5309C8.46016 16.8709 7.93016 17.4209 6.16016 17.4209L9.87016 21.1209C11.0402 22.2909 12.9402 22.2909 14.1102 21.1209L17.8302 17.4109C16.9202 17.4109 16.1602 17.2309 15.4502 16.5209Z" fill="black" />
<path d="M8.79945 7.47043L11.8195 10.4904C11.8995 10.5704 12.0195 10.6204 12.1295 10.6204C12.2395 10.6204 12.3595 10.5704 12.4395 10.4904L15.4295 7.50043C16.1395 6.76043 16.9495 6.59043 17.8595 6.59043L14.1395 2.88043C12.9695 1.71043 11.0695 1.71043 9.89945 2.88043L6.18945 6.58043C7.94945 6.58043 8.48945 7.16043 8.79945 7.47043Z" fill="black" />
<path d="M21.1095 9.85031L18.8595 7.59031H17.5995C17.0595 7.59031 16.5195 7.81031 16.1495 8.20031L13.1495 11.2003C12.8695 11.4803 12.4995 11.6203 12.1295 11.6203C11.7695 11.6203 11.3895 11.4703 11.1095 11.2003L8.08945 8.17031C7.70945 7.79031 7.18945 7.57031 6.63945 7.57031H5.16945L2.87945 9.87031C1.70945 11.0403 1.70945 12.9403 2.87945 14.1103L5.16945 16.4103H6.64945C7.18945 16.4103 7.70945 16.1903 8.09945 15.8103L11.1195 12.7903C11.3995 12.5103 11.7695 12.3703 12.1395 12.3703C12.5095 12.3703 12.8795 12.5103 13.1595 12.7903L16.1695 15.8003C16.5495 16.1803 17.0695 16.4003 17.6195 16.4003H18.8795L21.1295 14.1403C22.2995 12.9603 22.2995 11.0403 21.1095 9.85031Z" fill="black" />
</svg>
