<svg width="24" height="24" viewBox="0 0 24 24" fill="none" xmlns="http://www.w3.org/2000/svg">
<path d="M14 2H6C4.9 2 4 2.9 4 4V20C4 21.1 4.89 22 5.99 22H18C19.1 22 20 21.1 20 20V8L14 2ZM18 20H6V4H13V9H18V20Z" fill="black" />
<path d="M9.02945 11.0304C7.65945 12.4004 7.65945 14.6104 9.02945 15.9804C10.1495 17.1004 11.8295 17.2904 13.1595 16.5704L15.0395 18.4504L16.4495 17.0404L14.5695 15.1604C15.2795 13.8304 15.0995 12.1504 13.9795 11.0304C12.6095 9.66043 10.3895 9.66043 9.02945 11.0304ZM12.5595 14.5604C11.9695 15.1504 11.0195 15.1504 10.4395 14.5604C9.84945 13.9704 9.84945 13.0204 10.4395 12.4404C11.0295 11.8504 11.9795 11.8504 12.5595 12.4404C13.1495 13.0304 13.1495 13.9704 12.5595 14.5604Z" fill="black" />
</svg>
