<svg width="24" height="24" viewBox="0 0 24 24" fill="none" xmlns="http://www.w3.org/2000/svg">
<path d="M19.28 4.92961L17.16 2.80961C16.38 2.02961 15.11 2.02961 14.33 2.80961L11.5 5.63961L13.62 7.75961L15.74 5.63961L19.28 9.17961C20.45 7.99961 20.45 6.09961 19.28 4.92961Z" fill="black" />
<path d="M5.49133 13.7699C6.08133 14.3599 7.03133 14.3599 7.61133 13.7699L10.0813 11.2999L7.96133 9.16992L5.49133 11.6399C4.90133 12.2299 4.90133 13.1799 5.49133 13.7699Z" fill="black" />
<path d="M15.0407 7.76009L14.3307 8.47009L13.6207 9.18009L10.4407 6.00009C9.8507 5.40009 8.9007 5.40009 8.3207 5.99009C7.7307 6.58009 7.7307 7.53009 8.3207 8.11009L11.5007 11.2901L10.7907 12.0001L4.4307 18.3601C3.6507 19.1401 3.6507 20.4101 4.4307 21.1901C5.2107 21.9701 6.4807 21.9701 7.2607 21.1901L16.4507 12.0001C16.8407 12.3901 17.4707 12.3901 17.8607 12.0001C18.2507 11.6101 18.2507 10.9801 17.8607 10.5901L15.0407 7.76009Z" fill="black" />
</svg>
