<svg width="24" height="24" viewBox="0 0 24 24" fill="none" xmlns="http://www.w3.org/2000/svg">
<path d="M11.0006 8.17L6.49062 3.66C8.07062 2.61 9.96062 2 12.0006 2C17.5206 2 22.0006 6.48 22.0006 12C22.0006 14.04 21.3906 15.93 20.3406 17.51L18.8806 16.05C19.5906 14.87 20.0006 13.48 20.0006 12C20.0006 8.65 17.9306 5.78 15.0006 4.59V5C15.0006 6.1 14.1006 7 13.0006 7H11.0006V8.17ZM21.1906 21.19L19.7806 22.6L17.5106 20.33C15.9306 21.39 14.0406 22 12.0006 22C6.48062 22 2.00063 17.52 2.00063 12C2.00063 9.96 2.61063 8.07 3.66062 6.49L1.39062 4.22L2.80062 2.81L21.1906 21.19ZM11.0006 18C9.90062 18 9.00063 17.1 9.00063 16V15L4.21063 10.21C4.08063 10.79 4.00063 11.38 4.00063 12C4.00063 16.08 7.05062 19.44 11.0006 19.93V18Z" fill="black" />
</svg>
