<svg width="24" height="24" viewBox="0 0 24 24" fill="none" xmlns="http://www.w3.org/2000/svg">
<path d="M17.15 14.32L17.74 11.96L18.5 15H19.98L21.48 9H19.98L19.24 12L18.5 9H16.98L16.24 12L15.5 9H14L14.72 11.9L17.15 14.32Z" fill="black" />
<path d="M1.39062 4.21957L6.17063 8.99957H3.00063V14.9996H4.50063V12.9996H5.60063L6.50063 14.9996H8.00063L7.10063 12.8996C7.60063 12.5996 8.00063 12.0996 8.00063 11.4996V10.8296L9.43062 12.2596L8.75063 14.9996H10.2506L10.6306 13.4996H10.6706L19.7806 22.6096L21.1906 21.1996L2.81062 2.80957L1.39062 4.21957ZM6.50063 11.4996H4.50063V10.4996H6.50063V11.4996Z" fill="black" />
</svg>
