<svg width="24" height="24" viewBox="0 0 24 24" fill="none" xmlns="http://www.w3.org/2000/svg">
<path d="M21 5H23V19H21V5ZM17 5H19V19H17V5ZM14 5H2C1.45 5 1 5.45 1 6V18C1 18.55 1.45 19 2 19H14C14.55 19 15 18.55 15 18V6C15 5.45 14.55 5 14 5ZM13 17H3V7H13V17Z" fill="black" />
<path d="M8.00078 11.8902C9.07774 11.8902 9.95078 11.0172 9.95078 9.94023C9.95078 8.86328 9.07774 7.99023 8.00078 7.99023C6.92383 7.99023 6.05078 8.86328 6.05078 9.94023C6.05078 11.0172 6.92383 11.8902 8.00078 11.8902Z" fill="black" />
<path d="M11.8894 15.3504C11.8894 14.0504 9.29937 13.4004 7.99937 13.4004C6.69937 13.4004 4.10938 14.0504 4.10938 15.3504V16.0004H11.8894V15.3504Z" fill="black" />
</svg>
