<svg width="24" height="24" viewBox="0 0 24 24" fill="none" xmlns="http://www.w3.org/2000/svg">
<path d="M12 2C6.48 2 2 6.48 2 12C2 17.52 6.48 22 12 22C17.52 22 22 17.52 22 12C22 6.48 17.52 2 12 2ZM12 20C7.59 20 4 16.41 4 12C4 7.59 7.59 4 12 4C16.41 4 20 7.59 20 12C20 16.41 16.41 20 12 20Z" fill="black" />
<path d="M16.9998 10H12.4098L12.9898 6.59V6.39C12.9798 6.13 12.8698 5.88 12.6898 5.69L11.9998 5L7.39982 10C7.12982 10.26 6.97982 10.62 6.99982 11V16C6.99982 17.1 7.89982 18 8.99982 18H14.4998C15.0598 18.03 15.5798 17.71 15.7998 17.2L17.8998 12.3C17.9798 12.15 18.0198 11.97 17.9998 11.8V11C17.9998 10.45 17.5498 10 16.9998 10Z" fill="black" />
</svg>
