<svg width="24" height="24" viewBox="0 0 24 24" fill="none" xmlns="http://www.w3.org/2000/svg">
<path d="M12.0006 4.14L18.0006 6.39V11.09C18.0006 12.28 17.7706 13.45 17.3606 14.53L18.8706 16.04C19.5906 14.51 20.0006 12.82 20.0006 11.09V5L12.0006 2L6.78063 3.96L8.33063 5.51L12.0006 4.14ZM2.81062 2.81L1.39062 4.22L4.00063 6.83V11.09C4.00063 16.14 7.41062 20.85 12.0006 22C13.7206 21.57 15.2806 20.64 16.5506 19.38L19.7806 22.61L21.1906 21.2L2.81062 2.81ZM12.0006 19.92C8.55062 18.79 6.00063 15.1 6.00063 11.09V8.83L15.1406 17.97C14.2406 18.85 13.1706 19.54 12.0006 19.92Z" fill="black" />
</svg>
