<svg width="24" height="24" viewBox="0 0 24 24" fill="none" xmlns="http://www.w3.org/2000/svg">
<path d="M12 2C6.48 2 2 6.48 2 12C2 17.52 6.48 22 12 22C17.52 22 22 17.52 22 12C22 6.48 17.52 2 12 2ZM12 20C7.58 20 4 16.42 4 12C4 7.58 7.58 4 12 4C16.42 4 20 7.58 20 12C20 16.42 16.42 20 12 20Z" fill="black" />
<path d="M13.5396 8.96976C13.3096 8.49976 12.7796 8.25976 12.2796 8.43976L8.99961 9.64976V11.9998H9.99961V10.3498L11.5396 9.77976L10.5796 14.6698L7.79961 14.0998L7.59961 15.0798L11.3596 15.8498L11.8796 13.2098L12.9996 14.4198V17.9998H13.9996V14.0298L12.6796 12.5898L13.0896 10.2398C13.9896 11.4598 15.2996 11.9998 15.9996 11.9998V10.9998C15.5896 10.9998 14.3696 10.6698 13.5396 8.96976Z" fill="black" />
<path d="M13.5 8C14.0523 8 14.5 7.55228 14.5 7C14.5 6.44772 14.0523 6 13.5 6C12.9477 6 12.5 6.44772 12.5 7C12.5 7.55228 12.9477 8 13.5 8Z" fill="black" />
</svg>
