<svg width="24" height="24" viewBox="0 0 24 24" fill="none" xmlns="http://www.w3.org/2000/svg">
<path d="M22.3008 13.77L19.7308 11.2L18.3208 12.61L20.5408 14.83L14.8808 20.49L3.56078 9.17L9.22078 3.51L11.3208 5.61L12.7308 4.2L10.2808 1.75C9.69078 1.16 8.74078 1.16 8.16078 1.75L1.80078 8.11C1.21078 8.7 1.21078 9.65 1.80078 10.23L13.8208 22.25C14.4108 22.84 15.3608 22.84 15.9408 22.25L22.3008 15.89C22.8908 15.3 22.8908 14.35 22.3008 13.77ZM7.52078 21.48C4.25078 19.94 1.91078 16.76 1.55078 13H0.0507812C0.560781 19.16 5.71078 24 12.0008 24L12.6608 23.97L8.85078 20.15L7.52078 21.48ZM15.0508 10H20.0508C20.6008 10 21.0508 9.55 21.0508 9V5C21.0508 4.45 20.6008 4 20.0508 4V3.5C20.0508 2.12 18.9308 1 17.5508 1C16.1708 1 15.0508 2.12 15.0508 3.5V4C14.5008 4 14.0508 4.45 14.0508 5V9C14.0508 9.55 14.5008 10 15.0508 10ZM15.8508 3.5C15.8508 2.56 16.6108 1.8 17.5508 1.8C18.4908 1.8 19.2508 2.56 19.2508 3.5V4H15.8508V3.5Z" fill="black" />
</svg>
