<svg width="24" height="24" viewBox="0 0 24 24" fill="none" xmlns="http://www.w3.org/2000/svg">
<path d="M4 18H20C21.1 18 21.99 17.1 21.99 16L22 5C22 3.9 21.1 3 20 3H4C2.9 3 2 3.9 2 5V16C2 17.1 2.9 18 4 18ZM4 5H20V16H4V5Z" fill="black" />
<path d="M23 19H1V21H23V19Z" fill="black" />
<path d="M13.9697 7.53043C12.5997 6.16043 10.3897 6.16043 9.01969 7.53043C7.64969 8.90043 7.64969 11.1104 9.01969 12.4804C10.1997 13.6604 12.0197 13.8204 13.3797 12.9504L15.4697 15.0404L16.5297 13.9804L14.4397 11.8904C15.3097 10.5304 15.1597 8.71043 13.9697 7.53043ZM12.9097 11.4104C12.1297 12.1904 10.8597 12.1904 10.0797 11.4104C9.29969 10.6304 9.29969 9.36043 10.0797 8.58043C10.8597 7.80043 12.1297 7.80043 12.9097 8.58043C13.6897 9.37043 13.6897 10.6304 12.9097 11.4104Z" fill="black" />
</svg>
