<svg width="24" height="24" viewBox="0 0 24 24" fill="none" xmlns="http://www.w3.org/2000/svg">
<g clip-path="url(#clip0_305_654)">
<path d="M16.4808 2.52C19.7508 4.07 22.0908 7.24 22.4508 11H23.9508C23.4408 4.84 18.2908 0 12.0008 0L11.3408 0.03L15.1508 3.84L16.4808 2.52ZM10.2308 1.75C9.64078 1.16 8.69078 1.16 8.11078 1.75L1.75078 8.11C1.16078 8.7 1.16078 9.65 1.75078 10.23L13.7708 22.25C14.3608 22.84 15.3108 22.84 15.8908 22.25L22.2508 15.89C22.8408 15.3 22.8408 14.35 22.2508 13.77L10.2308 1.75ZM14.8308 21.19L2.81078 9.17L9.17078 2.81L21.1908 14.83L14.8308 21.19ZM7.52078 21.48C4.25078 19.94 1.91078 16.76 1.55078 13H0.0507812C0.560781 19.16 5.71078 24 12.0008 24L12.6608 23.97L8.85078 20.16L7.52078 21.48Z" fill="black" />
</g>
<defs>
<clipPath id="clip0_305_654">
<rect width="24" height="24" fill="white"/>
</clipPath>
</defs>
</svg>
