<svg width="24" height="24" viewBox="0 0 24 24" fill="none" xmlns="http://www.w3.org/2000/svg">
<path d="M8.14063 10.9596C8.05063 11.2896 8.00063 11.6396 8.00063 11.9996C8.00063 13.0996 8.45063 14.0996 9.17063 14.8296L7.75063 16.2496C6.67063 15.1596 6.00063 13.6596 6.00063 11.9996C6.00063 11.0696 6.21063 10.1996 6.58063 9.40957L5.11063 7.93957C4.40063 9.12957 4.00063 10.5196 4.00063 11.9996C4.00063 14.2096 4.90062 16.2096 6.35063 17.6496L4.93062 19.0696C3.12063 17.2596 2.00063 14.7596 2.00063 11.9996C2.00063 9.95957 2.61063 8.06957 3.66062 6.48957L1.39062 4.21957L2.80062 2.80957L21.1806 21.1896L19.7706 22.5996L8.14063 10.9596ZM17.4206 14.5896C17.7906 13.7996 18.0006 12.9296 18.0006 11.9996C18.0006 10.3396 17.3306 8.83957 16.2406 7.75957L14.8206 9.17957C15.5506 9.89957 16.0006 10.8996 16.0006 11.9996C16.0006 12.3596 15.9506 12.7096 15.8606 13.0396L17.4206 14.5896ZM20.0006 11.9996C20.0006 13.4796 19.6006 14.8696 18.8906 16.0596L20.3406 17.5096C21.3906 15.9296 22.0006 14.0396 22.0006 11.9996C22.0006 9.23957 20.8806 6.73957 19.0706 4.92957L17.6506 6.34957C19.1006 7.78957 20.0006 9.78957 20.0006 11.9996Z" fill="black" />
</svg>
