<svg width="24" height="24" viewBox="0 0 24 24" fill="none" xmlns="http://www.w3.org/2000/svg">
<path d="M10.0003 13C10.5503 13 11.0003 13.45 11.0003 14C11.0003 14.55 10.5503 15 10.0003 15C9.45031 15 9.00031 14.55 9.00031 14C9.00031 13.45 9.45031 13 10.0003 13ZM10.0003 11C8.34031 11 7.00031 12.34 7.00031 14C7.00031 15.66 8.34031 17 10.0003 17C11.6603 17 13.0003 15.66 13.0003 14C13.0003 12.34 11.6603 11 10.0003 11ZM18.5003 9L19.5903 6.59L22.0003 5.5L19.5903 4.41L18.5003 2L17.4103 4.41L15.0003 5.5L17.4103 6.59L18.5003 9ZM21.2803 12.72L20.5003 11L19.7203 12.72L18.0003 13.5L19.7203 14.28L20.5003 16L21.2803 14.28L23.0003 13.5L21.2803 12.72ZM16.2503 14C16.2503 13.88 16.2503 13.75 16.2403 13.63L18.1803 12.16L15.6803 7.83L13.4403 8.77C13.2403 8.64 13.0203 8.51 12.8003 8.4L12.5003 6H7.50031L7.20031 8.41C6.98031 8.52 6.77031 8.65 6.56031 8.78L4.32031 7.83L1.82031 12.16L3.76031 13.63C3.75031 13.75 3.75031 13.88 3.75031 14C3.75031 14.12 3.75031 14.25 3.76031 14.37L1.82031 15.84L4.32031 20.17L6.56031 19.23C6.76031 19.36 6.98031 19.49 7.20031 19.6L7.50031 22H12.5003L12.8003 19.59C13.0203 19.48 13.2303 19.36 13.4403 19.22L15.6803 20.16L18.1803 15.83L16.2403 14.36C16.2503 14.25 16.2503 14.12 16.2503 14ZM14.8303 17.64L13.1003 16.91C12.5403 17.51 11.8003 17.95 10.9703 18.14L10.7303 20H9.27031L9.04031 18.14C8.21031 17.95 7.47031 17.51 6.91031 16.91L5.18031 17.64L4.45031 16.37L5.94031 15.24C5.82031 14.85 5.76031 14.44 5.76031 14.01C5.76031 13.58 5.82031 13.17 5.94031 12.78L4.45031 11.65L5.18031 10.38L6.91031 11.11C7.47031 10.51 8.21031 10.07 9.04031 9.88L9.27031 8H10.7403L10.9703 9.86C11.8003 10.05 12.5403 10.49 13.1003 11.09L14.8303 10.36L15.5603 11.63L14.0703 12.76C14.1903 13.15 14.2503 13.56 14.2503 13.99C14.2503 14.42 14.1903 14.83 14.0703 15.22L15.5603 16.35L14.8303 17.64Z" fill="black" />
</svg>
