<svg width="24" height="24" viewBox="0 0 24 24" fill="none" xmlns="http://www.w3.org/2000/svg">
<path d="M13.0195 19.9296V21.9496C15.0295 21.7496 16.8595 20.9496 18.3395 19.7396L16.9195 18.3096C15.8095 19.1696 14.4795 19.7496 13.0195 19.9296Z" fill="black" />
<path d="M4.0293 11.9998C4.0293 7.9498 7.0593 4.5898 10.9793 4.0698V2.0498C5.9493 2.5798 2.0293 6.8398 2.0293 11.9998C2.0293 17.1598 5.9493 21.4198 10.9793 21.9498V19.9298C7.0593 19.4098 4.0293 16.0498 4.0293 11.9998Z" fill="black" />
<path d="M19.9501 10.9997H21.9701C21.7701 8.98969 20.9701 7.15969 19.7601 5.67969L18.3301 7.10969C19.1901 8.20969 19.7701 9.53969 19.9501 10.9997Z" fill="black" />
<path d="M18.3395 4.2598C16.8595 3.0498 15.0195 2.2498 13.0195 2.0498V4.0698C14.4795 4.2498 15.8095 4.8298 16.9195 5.6898L18.3395 4.2598Z" fill="black" />
<path d="M18.3301 16.9L19.7601 18.32C20.9701 16.84 21.7701 15.01 21.9701 13H19.9501C19.7701 14.46 19.1901 15.79 18.3301 16.9Z" fill="black" />
<path d="M16 11.1C16 8.61 14.1 7 12 7C9.9 7 8 8.61 8 11.1C8 12.76 9.33 14.73 12 17C14.67 14.73 16 12.76 16 11.1ZM12 12C11.41 12 10.93 11.52 10.93 10.93C10.93 10.34 11.41 9.86 12 9.86C12.59 9.86 13.07 10.34 13.07 10.93C13.07 11.52 12.59 12 12 12Z" fill="black" />
</svg>
