<svg width="24" height="24" viewBox="0 0 24 24" fill="none" xmlns="http://www.w3.org/2000/svg">
<path d="M12 2L4 5V11.09C4 16.14 7.41 20.85 12 22C16.59 20.85 20 16.14 20 11.09V5L12 2ZM18 11.09C18 15.09 15.45 18.79 12 19.92C8.55 18.79 6 15.1 6 11.09V6.39L12 4.14L18 6.39V11.09Z" fill="black" />
<path d="M9.01055 14.3303C10.7606 16.5003 14.1306 16.5703 15.9706 14.4003C16.2006 14.1303 16.0506 13.7203 15.7106 13.6603C14.4206 13.4503 13.2306 12.6803 12.5306 11.4603C11.8206 10.2403 11.7506 8.83028 12.2106 7.60028C12.3306 7.27028 12.0506 6.94028 11.7006 7.00028C8.36055 7.62028 6.81055 11.6103 9.01055 14.3303Z" fill="black" />
</svg>
