<svg width="24" height="24" viewBox="0 0 24 24" fill="none" xmlns="http://www.w3.org/2000/svg">
<path d="M7.31969 10.56L8.37969 9.5L7.31969 8.44L8.37969 7.38L10.4997 9.5L8.37969 11.62L7.31969 10.56ZM4.49969 9C4.52969 9 4.54969 9.01 4.57969 9.01C5.76969 6.07 8.63969 4 11.9997 4C14.1897 4 16.1597 4.88 17.6097 6.3C17.7597 5.7 18.0597 5.01 18.4197 4.34C16.6797 2.88 14.4397 2 11.9897 2C7.10969 2 3.04969 5.51 2.17969 10.14C2.73969 9.44 3.58969 9 4.49969 9ZM20.9997 10.5C20.5797 10.5 20.1797 10.41 19.8097 10.28C19.9297 10.83 19.9997 11.41 19.9997 12C19.9997 16.42 16.4197 20 11.9997 20C8.63969 20 5.76969 17.93 4.57969 14.99C4.54969 14.99 4.52969 15 4.49969 15C3.97969 15 3.45969 14.86 2.99969 14.6C2.67969 14.42 2.40969 14.18 2.17969 13.9C3.06969 18.51 7.10969 22 11.9797 22C17.5197 22 21.9997 17.52 21.9997 12C21.9997 11.45 21.9397 10.91 21.8597 10.38C21.5797 10.45 21.2997 10.5 20.9997 10.5ZM20.9997 3C20.9997 3 18.9997 5.9 18.9997 7C18.9997 8.1 19.8997 9 20.9997 9C22.0997 9 22.9997 8.1 22.9997 7C22.9997 5.9 20.9997 3 20.9997 3ZM15.6197 7.38L13.4997 9.5L15.6197 11.62L16.6797 10.56L15.6197 9.5L16.6797 8.44L15.6197 7.38ZM8.55969 17C9.24969 15.81 10.5297 15 11.9997 15C13.4697 15 14.7497 15.81 15.4397 17H17.1197C16.3197 14.95 14.3297 13.5 11.9997 13.5C11.1297 13.5 10.2997 13.7 9.56969 14.07L5.98969 12C5.98969 11.48 5.72969 10.98 5.24969 10.71C4.52969 10.3 3.61969 10.54 3.19969 11.26C2.78969 11.98 3.02969 12.89 3.74969 13.31C4.22969 13.59 4.79969 13.56 5.23969 13.31L8.20969 15.03C7.63969 15.56 7.17969 16.24 6.87969 17H8.55969Z" fill="black" />
</svg>
