<svg width="24" height="24" viewBox="0 0 24 24" fill="none" xmlns="http://www.w3.org/2000/svg">
<path d="M13.0508 9.79078L10.0008 7.50078V16.5008L13.0508 14.2108L16.0008 12.0008L13.0508 9.79078ZM13.0508 9.79078L10.0008 7.50078V16.5008L13.0508 14.2108L16.0008 12.0008L13.0508 9.79078ZM13.0508 9.79078L10.0008 7.50078V16.5008L13.0508 14.2108L16.0008 12.0008L13.0508 9.79078ZM11.0008 4.07078V2.05078C8.99078 2.25078 7.16078 3.05078 5.68078 4.26078L7.10078 5.69078C8.21078 4.83078 9.54078 4.25078 11.0008 4.07078ZM5.69078 7.10078L4.26078 5.68078C3.05078 7.16078 2.25078 8.99078 2.05078 11.0008H4.07078C4.25078 9.54078 4.83078 8.21078 5.69078 7.10078ZM4.07078 13.0008H2.05078C2.25078 15.0108 3.05078 16.8408 4.26078 18.3208L5.69078 16.8908C4.83078 15.7908 4.25078 14.4608 4.07078 13.0008ZM5.68078 19.7408C7.16078 20.9508 9.00078 21.7508 11.0008 21.9508V19.9308C9.54078 19.7508 8.21078 19.1708 7.10078 18.3108L5.68078 19.7408ZM22.0008 12.0008C22.0008 17.1608 18.0808 21.4208 13.0508 21.9508V19.9308C16.9708 19.4108 20.0008 16.0508 20.0008 12.0008C20.0008 7.95078 16.9708 4.59078 13.0508 4.07078V2.05078C18.0808 2.58078 22.0008 6.84078 22.0008 12.0008Z" fill="black" />
</svg>
