<svg width="24" height="24" viewBox="0 0 24 24" fill="none" xmlns="http://www.w3.org/2000/svg">
<path d="M20.5 12.9992H22V15.9992H20.5V12.9992ZM18 12.9992H19.5V15.9992H18V12.9992ZM17 12.9992H14.66L17 15.3392V12.9992ZM14.5 8.64922H16.03C17.08 8.64922 18 9.38922 18 10.6992V11.9992H19.5V10.3592C19.5 8.54922 17.9 7.19922 16.03 7.19922H14.5C13.48 7.19922 12.65 6.21922 12.65 5.19922C12.65 4.17922 13.48 3.44922 14.5 3.44922V1.94922C12.65 1.94922 11.15 3.44922 11.15 5.29922C11.15 7.14922 12.65 8.64922 14.5 8.64922ZM18.85 4.72922C19.47 4.11922 19.85 3.27922 19.85 2.34922H18.35C18.35 3.36922 17.52 4.19922 16.5 4.19922V5.69922C18.74 5.69922 20.5 7.52922 20.5 9.76922V11.9992H22V9.75922C22 7.53922 20.72 5.61922 18.85 4.72922ZM3.41 4.58922L2 5.99922L9 12.9992H2V15.9992H12L19 22.9992L20.41 21.5892L3.41 4.58922Z" fill="black" />
</svg>
