<svg width="24" height="24" viewBox="0 0 24 24" fill="none" xmlns="http://www.w3.org/2000/svg">
<path d="M9.00064 11.0005H12.6306L9.00064 15.2005V17.0005H15.0006V15.0005H11.3706L15.0006 10.8005V9.00055H9.00064V11.0005ZM16.0566 3.34655L17.3386 1.81155L21.9456 5.66155L20.6656 7.20155L16.0566 3.34655ZM3.33664 7.19055L2.05664 5.65455L6.66264 1.81055L7.94264 3.34655L3.33664 7.19055ZM12.0006 6.00055C15.8606 6.00055 19.0006 9.14055 19.0006 13.0005C19.0006 16.8605 15.8606 20.0005 12.0006 20.0005C8.14064 20.0005 5.00064 16.8605 5.00064 13.0005C5.00064 9.14055 8.14064 6.00055 12.0006 6.00055ZM12.0006 4.00055C7.03064 4.00055 3.00064 8.03055 3.00064 13.0005C3.00064 17.9705 7.03064 22.0005 12.0006 22.0005C16.9706 22.0005 21.0006 17.9705 21.0006 13.0005C21.0006 8.03055 16.9706 4.00055 12.0006 4.00055Z" fill="black" />
</svg>
