<svg width="24" height="24" viewBox="0 0 24 24" fill="none" xmlns="http://www.w3.org/2000/svg">
<path d="M14.0004 3C14.0004 1.9 14.9004 1 16.0004 1C17.1004 1 18.0004 1.9 18.0004 3C18.0004 4.1 17.1004 5 16.0004 5C14.9004 5 14.0004 4.1 14.0004 3ZM21.4004 20.09C21.1704 20.04 20.9404 20.11 20.7604 20.26C20.0704 20.86 19.1204 21.14 18.1604 20.93L17.0004 20.69L16.0004 14.5L12.6804 11.83L14.4804 8.94C15.6304 10.78 17.6804 12 20.0004 12V10C18.1504 10 16.5604 8.88 15.8704 7.28L15.3504 6.07C15.1604 5.64 14.6104 5 13.7004 5H8.00039L5.50039 9L7.20039 10.06L9.10039 7H11.4504L8.94039 10.99C8.66039 11.44 8.57039 11.99 8.69039 12.51L9.50039 16L6.00039 18.35L5.53039 18.25C4.57039 18.05 3.82039 17.4 3.43039 16.58C3.33039 16.37 3.15039 16.21 2.92039 16.16C2.49039 16.07 2.10039 16.36 2.02039 16.74C1.98039 16.88 2.00039 17.05 2.07039 17.2C2.65039 18.44 3.78039 19.4 5.22039 19.71L17.8504 22.4C19.2904 22.71 20.7104 22.29 21.7504 21.39C21.8804 21.28 21.9604 21.13 21.9904 20.98C22.0604 20.6 21.8304 20.18 21.4004 20.09ZM8.73039 18.93L11.7504 16.9L11.3104 13.58L14.1504 15.6L14.9004 20.24L8.73039 18.93Z" fill="black" />
</svg>
