<svg width="24" height="24" viewBox="0 0 24 24" fill="none" xmlns="http://www.w3.org/2000/svg">
<path d="M6.4007 7C6.0607 7.55 6.0007 7.97 6.0007 8.38C6.0007 9.15 7.0007 11 7.0007 12C7.0007 12.95 6.6007 13.5 6.6007 13.5H5.1007C5.1007 13.5 5.5007 12.95 5.5007 12C5.5007 11 4.5007 9.15 4.5007 8.38C4.5007 7.97 4.5607 7.55 4.9007 7H6.4007ZM11.4007 7C11.0607 7.55 11.0007 7.97 11.0007 8.38C11.0007 9.15 12.0007 11 12.0007 12C12.0007 12.95 11.6007 13.5 11.6007 13.5H13.1007C13.1007 13.5 13.5007 12.95 13.5007 12C13.5007 11 12.5007 9.15 12.5007 8.38C12.5007 7.97 12.5607 7.55 12.9007 7H11.4007ZM8.1507 7C7.8107 7.55 7.7507 7.97 7.7507 8.38C7.7507 9.15 8.7507 11.01 8.7507 12C8.7507 12.95 8.35071 13.5 8.35071 13.5H9.85071C9.85071 13.5 10.2507 12.95 10.2507 12C10.2507 11 9.2507 9.15 9.2507 8.38C9.2507 7.97 9.3107 7.55 9.6507 7H8.1507ZM18.6007 2C17.0607 2 15.7907 3.16 15.6207 4.65L14.5307 15H4.0107C3.4107 15 2.9207 15.53 3.0107 16.13C3.5307 19.46 6.3907 22 9.7507 22C13.2307 22 16.0907 19.27 16.4607 15.77L17.6107 4.9C17.6607 4.39 18.0807 4 18.6007 4C19.1507 4 19.6007 4.45 19.6007 5C19.6007 5.3 19.5007 6.25 19.5007 6.25L21.4707 6.5C21.4707 6.5 21.6007 5.44 21.6007 5C21.6007 3.35 20.2507 2 18.6007 2ZM9.7507 20C7.8107 20 6.0807 18.77 5.3207 17H14.1007H14.1107C13.3907 18.78 11.6907 20 9.7507 20Z" fill="black" />
</svg>
