<svg width="24" height="24" viewBox="0 0 24 24" fill="none" xmlns="http://www.w3.org/2000/svg">
<path d="M20.3792 8.56914L19.1492 10.4191C19.7424 11.6022 20.0328 12.914 19.9944 14.2369C19.956 15.5598 19.59 16.8525 18.9292 17.9991H5.0692C4.21036 16.5092 3.85449 14.7823 4.05434 13.0742C4.25418 11.3662 4.99911 9.76797 6.17867 8.51657C7.35824 7.26517 8.90966 6.42719 10.6029 6.12684C12.2962 5.82649 14.0412 6.07978 15.5792 6.84914L17.4292 5.61914C15.5457 4.41136 13.3115 3.87015 11.0841 4.08208C8.85665 4.29401 6.76464 5.24684 5.14269 6.78816C3.52074 8.32947 2.46256 10.3702 2.13741 12.584C1.81227 14.7977 2.23895 17.0565 3.3492 18.9991C3.52371 19.3014 3.77428 19.5528 4.07603 19.7282C4.37777 19.9036 4.72017 19.997 5.0692 19.9991H18.9192C19.2716 20.0005 19.6181 19.9088 19.9237 19.7332C20.2293 19.5576 20.483 19.3044 20.6592 18.9991C21.5806 17.4031 22.043 15.5834 21.9953 13.7411C21.9477 11.8988 21.3918 10.1055 20.3892 8.55914L20.3792 8.56914Z" fill="black" />
<path d="M10.5905 15.4099C10.7762 15.5959 10.9968 15.7434 11.2396 15.844C11.4824 15.9447 11.7426 15.9965 12.0055 15.9965C12.2683 15.9965 12.5286 15.9447 12.7714 15.844C13.0142 15.7434 13.2347 15.5959 13.4205 15.4099L19.0805 6.91992L10.5905 12.5799C10.4045 12.7657 10.257 12.9862 10.1564 13.229C10.0557 13.4718 10.0039 13.7321 10.0039 13.9949C10.0039 14.2578 10.0557 14.518 10.1564 14.7608C10.257 15.0036 10.4045 15.2242 10.5905 15.4099Z" fill="black" />
</svg>
