<svg width="24" height="24" viewBox="0 0 24 24" fill="none" xmlns="http://www.w3.org/2000/svg">
<path d="M20.4893 3.50906C19.9293 2.94906 18.3393 2.53906 16.3293 2.53906C13.2493 2.53906 9.17927 3.49906 6.34927 6.32906C1.65927 11.0291 2.09927 19.0691 3.50927 20.4891C4.06927 21.0491 5.65927 21.4591 7.66927 21.4591C10.7493 21.4591 14.8193 20.4991 17.6493 17.6691C22.3393 12.9691 21.8993 4.92906 20.4893 3.50906ZM5.70927 18.2891C6.33927 16.3991 7.86927 13.2991 10.5793 10.5891C13.2593 7.90906 16.3593 6.35906 18.2793 5.70906C17.6493 7.59906 16.1193 10.6991 13.3993 13.4091C10.7393 16.0891 7.63927 17.6391 5.70927 18.2891ZM7.75927 7.75906C10.3993 5.11906 14.0993 4.63906 15.7893 4.56906C13.7393 5.50906 11.3293 7.02906 9.17927 9.17906C7.01927 11.3391 5.50927 13.7591 4.56927 15.8091C4.65927 13.3291 5.43927 10.0691 7.75927 7.75906ZM16.2393 16.2391C13.5993 18.8791 9.89927 19.3591 8.20927 19.4291C10.2593 18.4891 12.6693 16.9691 14.8193 14.8191C16.9793 12.6591 18.4893 10.2391 19.4393 8.18906C19.3393 10.6691 18.5593 13.9291 16.2393 16.2391Z" fill="black" />
</svg>
