<svg width="24" height="24" viewBox="0 0 24 24" fill="none" xmlns="http://www.w3.org/2000/svg">
<path d="M14.2703 6.00026C13.7203 6.95026 14.0503 8.18026 15.0003 8.73026C15.9503 9.28026 17.1803 8.95026 17.7303 8.00026C18.2803 7.05026 17.9503 5.82026 17.0003 5.27026C16.0503 4.72026 14.8203 5.05026 14.2703 6.00026Z" fill="black" />
<path d="M15.8398 10.4098C15.8398 10.4098 14.2098 9.46984 13.2398 8.90984C10.8598 7.52984 10.0398 4.46984 11.4198 2.08984L9.68976 1.08984C8.09976 3.82984 8.59977 7.20984 10.6598 9.39984L5.50977 18.3198L7.23977 19.3198L8.73977 16.7198L10.4698 17.7198L7.46977 22.9198L9.19977 23.9198L15.4898 13.0298C16.6298 14.5798 16.8198 16.7198 15.7998 18.4898L17.5298 19.4898C19.1298 16.7398 18.8098 12.9098 15.8398 10.4098Z" fill="black" />
<path d="M12.7497 3.79965C13.4697 4.20965 14.3797 3.96965 14.7997 3.24965C15.2097 2.52965 14.9697 1.61965 14.2497 1.19965C13.5297 0.789655 12.6197 1.02965 12.1997 1.74965C11.7897 2.46965 12.0297 3.38965 12.7497 3.79965Z" fill="black" />
</svg>
