<svg width="24" height="24" viewBox="0 0 24 24" fill="none" xmlns="http://www.w3.org/2000/svg">
<path d="M21.5808 16.09L20.4908 8.43C20.2108 6.46 18.5208 5 16.5308 5H7.4708C5.4808 5 3.7908 6.46 3.5108 8.43L2.4208 16.09C2.2008 17.63 3.3908 19 4.9408 19C5.6208 19 6.2608 18.73 6.7408 18.25L9.0008 16H15.0008L17.2508 18.25C17.7308 18.73 18.3808 19 19.0508 19C20.6108 19 21.8008 17.63 21.5808 16.09ZM19.4808 16.81C19.4008 16.9 19.2708 17 19.0608 17C18.9108 17 18.7708 16.94 18.6708 16.84L15.8308 14H8.1708L5.3308 16.84C5.2308 16.94 5.0908 17 4.9408 17C4.7308 17 4.6008 16.9 4.5208 16.81C4.4408 16.72 4.3608 16.58 4.3908 16.37L5.4808 8.71C5.6308 7.74 6.4808 7 7.4708 7H16.5308C17.5208 7 18.3708 7.74 18.5108 8.72L19.6008 16.38C19.6308 16.58 19.5508 16.72 19.4808 16.81Z" fill="black" />
<path d="M9 8H8V10H6V11H8V13H9V11H11V10H9V8Z" fill="black" />
<path d="M17 13C17.5523 13 18 12.5523 18 12C18 11.4477 17.5523 11 17 11C16.4477 11 16 11.4477 16 12C16 12.5523 16.4477 13 17 13Z" fill="black" />
<path d="M15 10C15.5523 10 16 9.55228 16 9C16 8.44772 15.5523 8 15 8C14.4477 8 14 8.44772 14 9C14 9.55228 14.4477 10 15 10Z" fill="black" />
</svg>
