<svg width="24" height="24" viewBox="0 0 24 24" fill="none" xmlns="http://www.w3.org/2000/svg">
<g clip-path="url(#clip0_305_874)">
<path d="M16.5 4.38086C17.6046 4.38086 18.5 3.48543 18.5 2.38086C18.5 1.27629 17.6046 0.380859 16.5 0.380859C15.3954 0.380859 14.5 1.27629 14.5 2.38086C14.5 3.48543 15.3954 4.38086 16.5 4.38086Z" fill="black" />
<path d="M24.0006 11.8814V7.18135L18.9506 5.04135C17.9806 4.63135 16.8606 4.98135 16.3006 5.88135L15.3006 7.48135C14.6306 8.66135 13.3906 9.54135 11.8906 9.80135L11.9506 9.86135C12.6406 10.5514 13.4706 10.9314 14.4106 11.0314C15.2106 10.6114 15.9306 10.0514 16.5006 9.39135L17.1006 12.3914L15.9406 13.4914L15.0006 14.3814V15.1414V21.8814H17.0006V15.8814L19.1006 13.8814L20.9006 21.8814H23.0006L20.8206 10.8814L20.2006 7.78135L22.0006 8.48135V11.8814H24.0006Z" fill="black" />
<path d="M10.2905 8.09016C10.5105 8.24016 10.7605 8.33016 11.0105 8.38016C11.1405 8.40016 11.2605 8.42016 11.3905 8.42016C11.5205 8.42016 11.6505 8.41016 11.7705 8.38016C11.9005 8.36016 12.0205 8.32016 12.1405 8.27016C12.3805 8.17016 12.6105 8.03016 12.8005 7.83016C13.2905 7.34016 13.4705 6.66016 13.3505 6.03016C13.2805 5.66016 13.1005 5.29016 12.8005 5.00016C12.6105 4.81016 12.3805 4.66016 12.1405 4.56016C12.0205 4.51016 11.9005 4.47016 11.7705 4.45016C11.6405 4.43016 11.5205 4.41016 11.3905 4.41016C11.2705 4.41016 11.1605 4.42016 11.0405 4.44016C10.9005 4.46016 10.7605 4.50016 10.6305 4.55016C10.4005 4.66016 10.1705 4.81016 9.98045 5.00016C9.68045 5.29016 9.50045 5.66016 9.43045 6.03016C9.31045 6.66016 9.49045 7.34016 9.98045 7.83016C10.0705 7.93016 10.1805 8.01016 10.2905 8.09016Z" fill="black" />
<path d="M11.2408 10.5605L9.24078 8.56047C9.14078 8.46047 9.04078 8.38047 8.93078 8.30047C8.71078 8.16047 8.46078 8.06047 8.21078 8.02047C8.08078 7.99047 7.96078 7.98047 7.83078 7.98047C7.32078 7.98047 6.81078 8.18047 6.42078 8.57047L3.08078 11.9105C2.67078 12.3205 2.46078 12.8905 2.50078 13.4505C2.50078 13.6305 2.54078 13.8205 2.61078 14.0005L3.68078 16.9505L0.0507812 20.5805L1.46078 22.0005L5.70078 17.7605V15.5405L7.00078 16.7505V21.8805H9.00078V15.8805L6.88078 13.7605L9.24078 11.4005L9.95078 12.1105C11.2408 13.3705 12.9208 14.1505 14.9808 14.1505L14.8408 12.0805C13.3408 12.0605 12.1408 11.4605 11.2408 10.5605Z" fill="black" />
</g>
<defs>
<clipPath id="clip0_305_874">
<rect width="24" height="24" fill="white"/>
</clipPath>
</defs>
</svg>
