<svg width="24" height="24" viewBox="0 0 24 24" fill="none" xmlns="http://www.w3.org/2000/svg">
<path d="M20.3108 3.69C19.9908 3.36 18.3708 3 16.2608 3C13.2308 3 9.17081 3.75 6.46081 6.46C1.87081 11.05 2.90081 19.52 3.69081 20.31C4.01081 20.64 5.63081 21 7.74081 21C10.7708 21 14.8308 20.25 17.5408 17.54C22.1308 12.95 21.1008 4.48 20.3108 3.69ZM7.74081 19C6.60081 19 5.72081 18.88 5.21081 18.77C5.03081 17.98 4.91081 16.56 5.04081 14.94L9.05081 18.95C8.53081 18.99 8.08081 19 7.74081 19ZM16.1308 16.13C14.8008 17.46 13.0708 18.18 11.4708 18.57L5.43081 12.53C5.85081 10.85 6.59081 9.16 7.88081 7.88C9.20081 6.56 10.9308 5.84 12.5208 5.45L18.5708 11.5C18.1508 13.17 17.4008 14.85 16.1308 16.13ZM18.9608 9.09L14.9308 5.06C15.4508 5.01 15.9108 5 16.2608 5C17.4008 5 18.2808 5.12 18.7908 5.23C18.9708 6.02 19.0908 7.45 18.9608 9.09Z" fill="black" />
<path d="M14.1002 8.49938L8.5 14.0996L9.90006 15.4997L15.5003 9.89944L14.1002 8.49938Z" fill="black" />
</svg>
