<svg width="24" height="24" viewBox="0 0 24 24" fill="none" xmlns="http://www.w3.org/2000/svg">
<path d="M19.5198 2.48971C17.1798 0.149714 12.8998 0.619713 9.96984 3.54971C8.36984 5.14971 7.44984 7.41971 7.42984 9.00971C7.40984 10.5897 7.68984 12.8997 6.07984 14.5097L1.83984 18.7497L3.25984 20.1697L7.49984 15.9297C9.10984 14.3197 11.4198 14.5997 12.9998 14.5797C14.5798 14.5597 16.8598 13.6397 18.4598 12.0397C21.3798 9.10971 21.8598 4.82971 19.5198 2.48971ZM10.3198 11.6797C8.78984 10.1497 9.26984 7.06971 11.3798 4.95971C13.4898 2.84971 16.5598 2.36971 18.0998 3.89971C19.6298 5.42971 19.1498 8.50971 17.0398 10.6197C14.9298 12.7297 11.8598 13.2097 10.3198 11.6797Z" fill="black" />
<path d="M18 17C18.53 17 19.04 17.21 19.41 17.59C20.19 18.37 20.19 19.64 19.41 20.42C19.04 20.79 18.53 21 18 21C17.47 21 16.96 20.79 16.59 20.41C15.81 19.63 15.81 18.36 16.59 17.58C16.96 17.21 17.47 17 18 17ZM18 15C16.98 15 15.95 15.39 15.17 16.17C13.61 17.73 13.61 20.26 15.17 21.83C15.95 22.61 16.98 23 18 23C19.02 23 20.05 22.61 20.83 21.83C22.39 20.27 22.39 17.74 20.83 16.17C20.05 15.39 19.02 15 18 15Z" fill="black" />
</svg>
