<svg width="24" height="24" viewBox="0 0 24 24" fill="none" xmlns="http://www.w3.org/2000/svg">
<path d="M2 17V20H4V16H3C2.45 16 2 16.45 2 17Z" fill="black" />
<path d="M9 16.0005H5V20.0005L9.69 19.9905C10.07 19.9905 10.41 19.7805 10.58 19.4405L11.45 17.5405L9.86 14.0605L9 16.0005Z" fill="black" />
<path d="M21.71 16.29C21.53 16.11 21.28 16 21 16H20V20H22V17C22 16.72 21.89 16.47 21.71 16.29Z" fill="black" />
<path d="M13.5996 12.84L17.6496 4H14.2996L12.5396 7.97L12.0496 9.07L11.9996 9.21L9.69961 4H6.34961L10.3996 12.84L11.9196 16.16L11.9996 16.34L13.4196 19.44C13.5896 19.78 13.9296 19.99 14.3096 19.99L18.9996 20V16H14.9996L13.5996 12.84Z" fill="black" />
</svg>
