<svg width="24" height="24" viewBox="0 0 24 24" fill="none" xmlns="http://www.w3.org/2000/svg">
<path d="M15.0405 12.79L6.54055 4.29C6.35055 4.1 6.09055 4 5.83055 4C5.57055 4 5.32055 4.1 5.13055 4.29L2.29055 7.13C1.90055 7.52 1.90055 8.16 2.29055 8.55L10.7905 17.05C10.9905 17.25 11.2405 17.34 11.5005 17.34C11.7605 17.34 12.0105 17.24 12.2105 17.05L15.0405 14.22C15.4305 13.82 15.4305 13.18 15.0405 12.79ZM11.5005 14.92L4.41055 7.83L5.83055 6.41L12.9205 13.5L11.5005 14.92Z" fill="black" />
<path d="M15.756 16.3417L14.3418 17.7559L18.5844 21.9985L19.9986 20.5843L15.756 16.3417Z" fill="black" />
<path d="M18.5 2C16.57 2 15 3.57 15 5.5C15 7.43 16.57 9 18.5 9C20.43 9 22 7.43 22 5.5C22 3.57 20.43 2 18.5 2ZM18.5 7C17.67 7 17 6.33 17 5.5C17 4.67 17.67 4 18.5 4C19.33 4 20 4.67 20 5.5C20 6.33 19.33 7 18.5 7Z" fill="black" />
</svg>
