<svg width="24" height="24" viewBox="0 0 24 24" fill="none" xmlns="http://www.w3.org/2000/svg">
<path d="M21.9005 8.89L20.8505 4.52C20.6305 3.62 19.8505 3 18.9405 3H5.0505C4.1505 3 3.3605 3.63 3.1505 4.52L2.10049 8.89C1.86049 9.91 2.08049 10.95 2.72049 11.77C2.80049 11.88 2.91049 11.96 3.00049 12.06V19C3.00049 20.1 3.90049 21 5.00049 21H19.0005C20.1005 21 21.0005 20.1 21.0005 19V12.06C21.0905 11.97 21.2005 11.88 21.2805 11.78C21.9205 10.96 22.1505 9.91 21.9005 8.89ZM18.9105 4.99L19.9605 9.36C20.0605 9.78 19.9705 10.2 19.7105 10.53C19.5705 10.71 19.2705 11 18.7705 11C18.1605 11 17.6305 10.51 17.5605 9.86L16.9805 5L18.9105 4.99ZM13.0005 5H14.9605L15.5005 9.52C15.5505 9.91 15.4305 10.3 15.1705 10.59C14.9505 10.85 14.6305 11 14.2205 11C13.5505 11 13.0005 10.41 13.0005 9.69V5ZM8.49049 9.52L9.04049 5H11.0005V9.69C11.0005 10.41 10.4505 11 9.71049 11C9.37049 11 9.06049 10.85 8.82049 10.59C8.57049 10.3 8.45049 9.91 8.49049 9.52ZM4.04049 9.36L5.0505 5H7.02049L6.4405 9.86C6.3605 10.51 5.8405 11 5.23049 11C4.74049 11 4.4305 10.71 4.3005 10.53C4.0305 10.21 3.94049 9.78 4.04049 9.36ZM5.00049 19V12.97C5.08049 12.98 5.1505 13 5.23049 13C6.10049 13 6.89049 12.64 7.47049 12.05C8.07049 12.65 8.87049 13 9.78049 13C10.6505 13 11.4305 12.64 12.0105 12.07C12.6005 12.64 13.4005 13 14.3005 13C15.1405 13 15.9405 12.65 16.5405 12.05C17.1205 12.64 17.9105 13 18.7805 13C18.8605 13 18.9305 12.98 19.0105 12.97V19H5.00049Z" fill="black" />
</svg>
