<svg width="24" height="24" viewBox="0 0 24 24" fill="none" xmlns="http://www.w3.org/2000/svg">
<path d="M18.9301 8C16.7201 4.18 11.8201 2.87 8.00013 5.07C6.59013 5.89 5.52013 7.07 4.84013 8.44C4.71013 6.24 5.06013 4.04 5.86013 2H3.74013C2.20013 6.49 2.52013 11.58 5.07013 16C6.17013 17.91 7.95013 19.19 9.93013 19.72C11.9101 20.25 14.0901 20.03 16.0001 18.93C17.4101 18.11 18.4801 16.93 19.1601 15.56C19.2901 17.76 18.9501 19.96 18.1501 22H20.2601C21.7901 17.51 21.4801 12.42 18.9301 8ZM15.0001 17.2C12.1301 18.85 8.46013 17.87 6.80013 15C6.69013 14.8 6.59013 14.6 6.50013 14.4C5.30013 11.64 6.33013 8.34 9.00013 6.8C11.8601 5.15 15.5401 6.13 17.2001 9C17.3101 9.2 17.4101 9.4 17.5001 9.6C18.7001 12.36 17.6701 15.66 15.0001 17.2ZM12.0001 10C13.1001 10 14.0001 10.9 14.0001 12C14.0001 13.1 13.1001 14 12.0001 14C10.9001 14 10.0001 13.1 10.0001 12C10.0001 10.9 10.9001 10 12.0001 10ZM12.0001 8C9.79013 8 8.00013 9.79 8.00013 12C8.00013 14.21 9.79013 16 12.0001 16C14.2101 16 16.0001 14.21 16.0001 12C16.0001 9.79 14.2101 8 12.0001 8Z" fill="black" />
</svg>
