<svg width="24" height="24" viewBox="0 0 24 24" fill="none" xmlns="http://www.w3.org/2000/svg">
<path d="M20 14C21.1046 14 22 13.1046 22 12C22 10.8954 21.1046 10 20 10C18.8954 10 18 10.8954 18 12C18 13.1046 18.8954 14 20 14Z" fill="black" />
<path d="M4 14C5.10457 14 6 13.1046 6 12C6 10.8954 5.10457 10 4 10C2.89543 10 2 10.8954 2 12C2 13.1046 2.89543 14 4 14Z" fill="black" />
<path d="M12 22C13.1046 22 14 21.1046 14 20C14 18.8954 13.1046 18 12 18C10.8954 18 10 18.8954 10 20C10 21.1046 10.8954 22 12 22Z" fill="black" />
<path d="M18.3477 4.2272L13.9434 8.61914L15.3556 10.0353L19.7599 5.6434L18.3477 4.2272Z" fill="black" />
<path d="M8.31906 9.68047L8.62906 10.0005L10.0491 8.59047L6.02906 4.55047H6.01906L5.70906 4.23047L4.28906 5.64047L8.30906 9.69047L8.31906 9.68047Z" fill="black" />
<path d="M15.41 13.9395L14 15.3495L17.99 19.3595L18.34 19.7095L19.76 18.2995L15.77 14.2895L15.41 13.9395Z" fill="black" />
<path d="M8.59023 13.9492L4.56023 17.9592L4.24023 18.2892L5.65023 19.6992L9.68023 15.6792L10.0102 15.3592L8.59023 13.9492Z" fill="black" />
<path d="M12 6C13.1046 6 14 5.10457 14 4C14 2.89543 13.1046 2 12 2C10.8954 2 10 2.89543 10 4C10 5.10457 10.8954 6 12 6Z" fill="black" />
</svg>
