<svg width="24" height="24" viewBox="0 0 24 24" fill="none" xmlns="http://www.w3.org/2000/svg">
<path d="M19.9981 4H6.82812L8.82812 6H19.9981V17.17L21.7581 18.93C21.9081 18.65 21.9981 18.34 21.9981 18V6C21.9981 4.9 21.0981 4 19.9981 4Z" fill="black" />
<path d="M17.9981 10H12.8281L14.8281 12H17.9981V10Z" fill="black" />
<path d="M1.03906 3.86922L2.23906 5.06922C2.08906 5.34922 1.99906 5.65922 1.99906 5.99922V17.9992C1.99906 19.0992 2.89906 19.9992 3.99906 19.9992H17.1691L20.1291 22.9592L21.5391 21.5492L2.44906 2.44922L1.03906 3.86922ZM3.99906 6.82922L7.16906 9.99922H5.99906V11.9992H7.99906V10.8292L11.1691 13.9992H5.99906V15.9992H13.1691L15.1691 17.9992H3.99906V6.82922Z" fill="black" />
</svg>
