<svg width="24" height="24" viewBox="0 0 24 24" fill="none" xmlns="http://www.w3.org/2000/svg">
<path d="M20.5 2V4.02C18.18 2.13 15.22 1 12 1C8.78 1 5.82 2.13 3.5 4.02V2H2V5.5V7H3.5H7V5.5H4.09C6.2 3.64 8.97 2.5 12 2.5C15.03 2.5 17.79 3.64 19.91 5.5H17V7H20.5H22V5.5V2H20.5Z" fill="black" />
<path d="M18.89 13.7699L15.09 12.0999C14.96 12.0399 14.81 11.9999 14.65 11.9999H14V7.62988C14 6.30988 13.04 5.12988 11.73 5.00988C10.25 4.87988 9 6.04988 9 7.49988V15.6499L7.13 15.2499C6.94 15.2199 6.11 15.0999 5.4 15.8099L4 17.2199L9.12 22.4099C9.49 22.7899 10 22.9999 10.53 22.9999H17.08C18.06 22.9999 18.89 22.2999 19.05 21.3299L19.97 15.8899C20.12 15.0299 19.68 14.1699 18.89 13.7699ZM18 15.5599L17.08 20.9999H10.53L6.83 17.2199L11 18.1099V7.49988C11 7.21988 11.22 6.99988 11.5 6.99988C11.78 6.99988 12 7.21988 12 7.49988V13.6799H13.76L18 15.5599Z" fill="black" />
</svg>
