<svg width="24" height="24" viewBox="0 0 24 24" fill="none" xmlns="http://www.w3.org/2000/svg">
<path d="M9.99938 6.35V4.26C9.33938 4.43 8.70938 4.69 8.11938 5.01L9.61938 6.51C9.74938 6.46 9.86938 6.4 9.99938 6.35ZM19.9994 12C19.9994 9.79 19.0894 7.8 17.6394 6.36L19.9994 4H13.9994V10L16.2394 7.76C17.3194 8.85 17.9994 10.34 17.9994 12C17.9994 12.85 17.8094 13.65 17.4894 14.38L18.9894 15.88C19.6294 14.74 19.9994 13.41 19.9994 12ZM4.26938 4L2.85938 5.41L5.21937 7.77C4.44937 8.99 3.99938 10.44 3.99938 12C3.99938 14.21 4.90938 16.2 6.35938 17.64L3.99938 20H9.99938V14L7.75938 16.24C6.67938 15.15 5.99938 13.66 5.99938 12C5.99938 11 6.24937 10.06 6.67937 9.23L14.7594 17.31C14.5094 17.44 14.2594 17.55 13.9994 17.65V19.74C14.7994 19.53 15.5494 19.2 16.2294 18.78L18.8094 21.36L20.2194 19.95L4.26938 4Z" fill="black" />
</svg>
