<svg width="24" height="24" viewBox="0 0 24 24" fill="none" xmlns="http://www.w3.org/2000/svg">
<path d="M15 1H9V3H15V1Z" fill="black" />
<path d="M12.0016 6C15.8716 6 19.0016 9.13 19.0016 13C19.0016 13.94 18.8116 14.83 18.4816 15.65L19.9816 17.15C20.6316 15.91 21.0016 14.5 21.0016 13C21.0016 10.88 20.2616 8.93 19.0316 7.39L20.4516 5.97C20.0216 5.46 19.5516 4.98 19.0416 4.56L17.6216 5.98C16.0716 4.74 14.1216 4 12.0016 4C10.5016 4 9.09156 4.37 7.85156 5.02L9.35156 6.52C10.1716 6.19 11.0616 6 12.0016 6Z" fill="black" />
<path d="M11 8.17L13 10.17V8H11V8.17Z" fill="black" />
<path d="M2.81062 2.81055L1.39062 4.22055L4.79063 7.62055C3.67063 9.12055 3.00063 10.9805 3.00063 13.0005C3.00063 17.9705 7.02062 22.0005 12.0006 22.0005C14.0206 22.0005 15.8806 21.3305 17.3806 20.2105L19.7806 22.6105L21.1906 21.2005L2.81062 2.81055ZM12.0006 20.0005C8.13062 20.0005 5.00063 16.8705 5.00063 13.0005C5.00063 11.5305 5.45062 10.1705 6.22062 9.05055L15.9506 18.7805C14.8306 19.5505 13.4706 20.0005 12.0006 20.0005Z" fill="black" />
</svg>
