<svg width="24" height="24" viewBox="0 0 24 24" fill="none" xmlns="http://www.w3.org/2000/svg">
<path d="M11.6095 12.9704C11.4495 12.7304 11.2495 12.5104 10.9895 12.3204C10.7395 12.1304 10.4295 11.9704 10.0595 11.8404C10.3595 11.7004 10.6295 11.5404 10.8595 11.3404C11.0895 11.1404 11.2795 10.9304 11.4295 10.7004C11.5795 10.4704 11.6995 10.2404 11.7695 9.99039C11.8495 9.75039 11.8795 9.50039 11.8795 9.26039C11.8795 8.71039 11.7895 8.22039 11.5995 7.80039C11.4195 7.38039 11.1595 7.03039 10.8195 6.74039C10.4895 6.46039 10.0895 6.24039 9.61945 6.10039C9.16945 5.97039 8.64945 5.90039 8.08945 5.90039C7.53945 5.90039 7.02945 5.98039 6.56945 6.14039C6.09945 6.31039 5.69945 6.54039 5.36945 6.83039C5.03945 7.12039 4.76945 7.46039 4.58945 7.86039C4.38945 8.25039 4.29945 8.69039 4.29945 9.15039H6.27945C6.27945 8.89039 6.32945 8.66039 6.41945 8.46039C6.50945 8.26039 6.63945 8.08039 6.79945 7.94039C6.96945 7.80039 7.15945 7.69039 7.37945 7.61039C7.59945 7.53039 7.83945 7.49039 8.10945 7.49039C8.71945 7.49039 9.16945 7.65039 9.46945 7.96039C9.76945 8.27039 9.90945 8.71039 9.90945 9.28039C9.90945 9.55039 9.86945 9.80039 9.78945 10.0204C9.70945 10.2404 9.57945 10.4304 9.40945 10.5904C9.23945 10.7504 9.02945 10.8704 8.77945 10.9604C8.52945 11.0504 8.22945 11.0904 7.88945 11.0904H6.71945V12.6604H7.89945C8.23945 12.6604 8.53945 12.7004 8.80945 12.7704C9.07945 12.8504 9.30945 12.9604 9.49945 13.1204C9.68945 13.2804 9.83945 13.4804 9.93945 13.7304C10.0395 13.9704 10.0995 14.2704 10.0995 14.6004C10.0995 15.2204 9.91945 15.6904 9.56945 16.0204C9.21945 16.3504 8.72945 16.5104 8.11945 16.5104C7.82945 16.5104 7.55945 16.4704 7.31945 16.3804C7.07945 16.3004 6.87945 16.1804 6.70945 16.0204C6.53945 15.8604 6.40945 15.6804 6.31945 15.4604C6.22945 15.2404 6.17945 15.0004 6.17945 14.7404H4.18945C4.18945 15.2904 4.29945 15.7704 4.50945 16.1904C4.71945 16.6104 5.00945 16.9604 5.36945 17.2404C5.72945 17.5204 6.13945 17.7304 6.60945 17.8704C7.07945 18.0104 7.56945 18.0804 8.08945 18.0804C8.65945 18.0804 9.17945 18.0004 9.66945 17.8504C10.1595 17.7004 10.5795 17.4704 10.9295 17.1704C11.2895 16.8704 11.5695 16.5104 11.7695 16.0704C11.9695 15.6404 12.0695 15.1404 12.0695 14.5904C12.0695 14.3004 12.0295 14.0104 11.9595 13.7304C11.8795 13.4804 11.7695 13.2204 11.6095 12.9704ZM20.8695 14.3704C20.7295 14.0904 20.5195 13.8404 20.2395 13.6304C19.9595 13.4204 19.6295 13.2404 19.2295 13.1004C18.8295 12.9604 18.3795 12.8304 17.8795 12.7204C17.5295 12.6504 17.2395 12.5704 17.0095 12.4904C16.7795 12.4104 16.5995 12.3304 16.4595 12.2404C16.3195 12.1504 16.2295 12.0504 16.1795 11.9404C16.1295 11.8304 16.0995 11.7004 16.0995 11.5504C16.0995 11.4004 16.1295 11.2704 16.1895 11.1404C16.2495 11.0104 16.3395 10.8904 16.4595 10.8004C16.5795 10.7004 16.7295 10.6204 16.9095 10.5604C17.0895 10.5004 17.3095 10.4704 17.5495 10.4704C17.7995 10.4704 18.0195 10.5104 18.2095 10.5804C18.3995 10.6504 18.5595 10.7504 18.6895 10.8704C18.8195 10.9904 18.9095 11.1304 18.9795 11.2904C19.0395 11.4504 19.0795 11.6104 19.0795 11.7804H21.0295C21.0295 11.3904 20.9495 11.0304 20.7895 10.6904C20.6295 10.3504 20.3995 10.0604 20.0995 9.81039C19.7995 9.56039 19.4395 9.37039 19.0095 9.22039C18.5795 9.07039 18.0895 9.00039 17.5495 9.00039C17.0395 9.00039 16.5695 9.07039 16.1595 9.21039C15.7495 9.35039 15.3895 9.54039 15.0995 9.78039C14.8095 10.0204 14.5895 10.3004 14.4295 10.6204C14.2695 10.9404 14.1995 11.2704 14.1995 11.6304C14.1995 11.9904 14.2795 12.3104 14.4295 12.5904C14.5795 12.8704 14.7995 13.1104 15.0695 13.3204C15.3395 13.5304 15.6695 13.7004 16.0495 13.8504C16.4295 13.9904 16.8595 14.1104 17.3195 14.2104C17.7095 14.2904 18.0295 14.3804 18.2695 14.4704C18.5095 14.5604 18.6995 14.6604 18.8395 14.7604C18.9695 14.8604 19.0595 14.9804 19.1095 15.1004C19.1595 15.2204 19.1795 15.3504 19.1795 15.4904C19.1795 15.8104 19.0495 16.0604 18.7795 16.2604C18.5095 16.4604 18.1195 16.5504 17.6095 16.5504C17.3895 16.5504 17.1795 16.5304 16.9695 16.4704C16.7595 16.4204 16.5695 16.3404 16.4095 16.2304C16.2395 16.1204 16.1095 15.9704 15.9995 15.7904C15.8895 15.6104 15.8295 15.3804 15.8195 15.1204H13.9295C13.9295 15.4804 14.0095 15.8304 14.1695 16.1704C14.3295 16.5104 14.5595 16.8204 14.8695 17.1004C15.1795 17.3704 15.5595 17.5904 16.0195 17.7604C16.4795 17.9304 16.9995 18.0104 17.5995 18.0104C18.1295 18.0104 18.6095 17.9504 19.0395 17.8204C19.4695 17.6904 19.8395 17.5104 20.1495 17.2804C20.4595 17.0504 20.6895 16.7704 20.8595 16.4504C21.0295 16.1304 21.1095 15.7804 21.1095 15.3904C21.0895 14.9904 21.0195 14.6504 20.8695 14.3704Z" fill="black" />
</svg>
