<svg width="24" height="24" viewBox="0 0 24 24" fill="none" xmlns="http://www.w3.org/2000/svg">
<g clip-path="url(#clip0_305_1004)">
<path d="M-0.00976562 7.72039V9.40039L2.99023 8.40039V18.0004H4.99023V6.00039H4.74023L-0.00976562 7.72039ZM23.7702 14.3704C23.6302 14.0904 23.4202 13.8404 23.1402 13.6304C22.8602 13.4204 22.5302 13.2404 22.1302 13.1004C21.7302 12.9604 21.2802 12.8304 20.7802 12.7204C20.4302 12.6504 20.1402 12.5704 19.9102 12.4904C19.6802 12.4104 19.5002 12.3304 19.3602 12.2404C19.2202 12.1504 19.1302 12.0504 19.0802 11.9404C19.0302 11.8304 19.0002 11.7004 19.0002 11.5504C19.0002 11.4104 19.0302 11.2704 19.0902 11.1404C19.1502 11.0104 19.2402 10.8904 19.3602 10.8004C19.4802 10.7004 19.6302 10.6204 19.8102 10.5604C19.9902 10.5004 20.2102 10.4704 20.4502 10.4704C20.7002 10.4704 20.9202 10.5104 21.1102 10.5804C21.3002 10.6504 21.4602 10.7504 21.5902 10.8704C21.7202 10.9904 21.8102 11.1304 21.8802 11.2904C21.9402 11.4504 21.9802 11.6104 21.9802 11.7804H23.9302C23.9302 11.3904 23.8502 11.0304 23.6902 10.6904C23.5302 10.3504 23.3002 10.0604 23.0002 9.81039C22.7002 9.56039 22.3402 9.37039 21.9102 9.22039C21.4802 9.07039 20.9902 9.00039 20.4502 9.00039C19.9402 9.00039 19.4702 9.07039 19.0602 9.21039C18.6502 9.35039 18.2902 9.54039 18.0002 9.78039C17.7102 10.0204 17.4902 10.3004 17.3302 10.6204C17.1702 10.9404 17.1002 11.2704 17.1002 11.6304C17.1002 11.9904 17.1802 12.3204 17.3302 12.5904C17.4802 12.8704 17.6902 13.1104 17.9702 13.3204C18.2402 13.5304 18.5702 13.7004 18.9502 13.8504C19.3302 13.9904 19.7602 14.1104 20.2202 14.2104C20.6102 14.2904 20.9302 14.3804 21.1702 14.4704C21.4102 14.5604 21.6002 14.6604 21.7402 14.7604C21.8702 14.8604 21.9602 14.9804 22.0102 15.1004C22.0602 15.2204 22.0802 15.3504 22.0802 15.4904C22.0802 15.8104 21.9502 16.0604 21.6802 16.2604C21.4102 16.4604 21.0202 16.5504 20.5102 16.5504C20.2902 16.5504 20.0802 16.5304 19.8702 16.4704C19.6602 16.4204 19.4702 16.3404 19.3102 16.2304C19.1402 16.1204 19.0102 15.9704 18.9002 15.7904C18.7902 15.6104 18.7302 15.3804 18.7202 15.1204H16.8302C16.8302 15.4804 16.9102 15.8304 17.0702 16.1704C17.2302 16.5104 17.4602 16.8204 17.7702 17.1004C18.0802 17.3704 18.4602 17.5904 18.9202 17.7604C19.3802 17.9304 19.9002 18.0104 20.5002 18.0104C21.0302 18.0104 21.5102 17.9504 21.9402 17.8204C22.3702 17.6904 22.7402 17.5104 23.0502 17.2804C23.3602 17.0504 23.5902 16.7704 23.7602 16.4504C23.9302 16.1304 24.0102 15.7804 24.0102 15.3904C23.9902 14.9904 23.9202 14.6504 23.7702 14.3704ZM13.8102 7.05039C13.4702 6.65039 13.0602 6.35039 12.5802 6.17039C12.1102 5.99039 11.5702 5.90039 10.9902 5.90039C10.4102 5.90039 9.88023 5.99039 9.40023 6.17039C8.92023 6.35039 8.51023 6.64039 8.17023 7.05039C7.83023 7.46039 7.57023 7.98039 7.38023 8.64039C7.20023 9.29039 7.10023 10.0904 7.10023 11.0304V12.9504C7.10023 13.8904 7.19023 14.6904 7.38023 15.3404C7.57023 16.0004 7.83024 16.5304 8.18023 16.9404C8.52024 17.3504 8.93023 17.6504 9.41023 17.8304C9.89023 18.0104 10.4202 18.1104 11.0002 18.1104C11.5902 18.1104 12.1202 18.0204 12.5902 17.8304C13.0702 17.6504 13.4702 17.3504 13.8102 16.9404C14.1502 16.5304 14.4102 16.0004 14.5902 15.3404C14.7702 14.6904 14.8702 13.8904 14.8702 12.9504V11.0304C14.8702 10.0904 14.7802 9.29039 14.5902 8.64039C14.4102 7.98039 14.1502 7.45039 13.8102 7.05039ZM12.8902 13.2204C12.8902 13.8204 12.8502 14.3304 12.7702 14.7504C12.6902 15.1704 12.5702 15.5104 12.4102 15.7704C12.2502 16.0304 12.0502 16.2204 11.8202 16.3404C11.5902 16.4604 11.3102 16.5204 11.0002 16.5204C10.7002 16.5204 10.4202 16.4604 10.1802 16.3404C9.94024 16.2204 9.74023 16.0304 9.58023 15.7704C9.42023 15.5104 9.29023 15.1704 9.20023 14.7504C9.11023 14.3304 9.07023 13.8204 9.07023 13.2204V10.7204C9.07023 10.1204 9.11023 9.61039 9.20023 9.20039C9.29023 8.79039 9.41023 8.46039 9.58023 8.20039C9.74023 7.95039 9.94024 7.77039 10.1802 7.65039C10.4202 7.54039 10.6902 7.48039 10.9902 7.48039C11.3002 7.48039 11.5702 7.54039 11.8002 7.65039C12.0402 7.76039 12.2402 7.94039 12.4002 8.20039C12.5602 8.45039 12.6902 8.78039 12.7702 9.19039C12.8502 9.60039 12.9002 10.1104 12.9002 10.7104V13.2204H12.8902Z" fill="black" />
</g>
<defs>
<clipPath id="clip0_305_1004">
<rect width="24" height="24" fill="white"/>
</clipPath>
</defs>
</svg>
