<svg width="24" height="24" viewBox="0 0 24 24" fill="none" xmlns="http://www.w3.org/2000/svg">
<path d="M18.7505 10.08L17.4005 6.05C17.0005 4.82 15.8505 4 14.5605 4H9.44055C8.15055 4 7.00055 4.82 6.60055 6.05L5.81055 8.4L4.41055 7L4.70055 6.71C5.09055 6.32 5.09055 5.69 4.70055 5.3C4.31055 4.91 3.68055 4.91 3.29055 5.3L1.29055 7.3C0.900547 7.69 0.900547 8.32 1.29055 8.71C1.68055 9.1 2.31055 9.1 2.70055 8.71L3.00055 8.41L4.79055 10.2C3.18055 10.72 2.00055 12.22 2.00055 14C2.00055 15.49 2.83055 16.78 4.05055 17.47C4.27055 18.9 5.51055 20 7.00055 20C8.30055 20 9.40055 19.16 9.82055 18H14.1905C14.6005 19.16 15.7005 20 17.0105 20C18.5005 20 19.7405 18.9 19.9605 17.47C21.1705 16.78 22.0005 15.49 22.0005 14C22.0005 12.05 20.6005 10.43 18.7505 10.08ZM13.0005 6H14.5605C14.9905 6 15.3705 6.27 15.5105 6.68L16.6105 10H13.0005V6ZM8.49055 6.68C8.63055 6.27 9.01055 6 9.44055 6H11.0005V10H7.41055L7.39055 9.98L8.49055 6.68ZM7.00055 18C6.45055 18 6.00055 17.55 6.00055 17C6.00055 16.45 6.45055 16 7.00055 16C7.55055 16 8.00055 16.45 8.00055 17C8.00055 17.55 7.55055 18 7.00055 18ZM17.0005 18C16.4505 18 16.0005 17.55 16.0005 17C16.0005 16.45 16.4505 16 17.0005 16C17.5505 16 18.0005 16.45 18.0005 17C18.0005 17.55 17.5505 18 17.0005 18ZM19.4905 15.32C18.9505 14.53 18.0305 14 17.0005 14C15.7005 14 14.6005 14.84 14.1805 16H9.82055C9.40055 14.84 8.30055 14 7.00055 14C5.97055 14 5.05055 14.53 4.51055 15.32C4.20055 14.97 4.00055 14.51 4.00055 14C4.00055 12.9 4.90055 12 6.00055 12H18.0005C19.1005 12 20.0005 12.9 20.0005 14C20.0005 14.51 19.8005 14.97 19.4905 15.32Z" fill="black" />
</svg>
