<svg width="24" height="24" viewBox="0 0 24 24" fill="none" xmlns="http://www.w3.org/2000/svg">
<path d="M16.0007 6H14.0007V4H16.0007V6ZM18.0007 7H16.0007V9H18.0007V7ZM19.0007 9H21.0007V7H19.0007V9ZM19.0007 4H17.0007V6H19.0007V4ZM15.0007 7H13.0007V9H15.0007V7ZM19.0007 10H17.0007V12H19.0007V10ZM16.0007 10H14.0007V12H16.0007V10ZM13.0007 4H11.0007V6H13.0007V4ZM20.0007 15.82V19.97C20.0007 20.53 19.5307 21 18.9707 20.97C16.0807 20.8 13.3707 19.94 11.0007 18.57C8.27066 16.99 6.01066 14.73 4.43066 12C3.05066 9.63 2.20066 6.92 2.03066 4.03C2.00066 3.47 2.47066 3 3.03066 3H7.18066C7.66066 3 8.07066 3.34 8.16066 3.8L8.90066 7.48C8.97066 7.81 8.86066 8.15 8.63066 8.38L6.10066 10.9C7.53066 13.4 9.60066 15.47 12.1007 16.9L14.6207 14.38C14.8607 14.14 15.2007 14.04 15.5207 14.11L19.1907 14.84C19.6607 14.93 20.0007 15.34 20.0007 15.82ZM5.18066 8.99L6.83066 7.34L6.36066 5H4.13066C4.30066 6.37 4.66066 7.71 5.18066 8.99ZM18.0007 16.64L15.6607 16.17L14.0107 17.82C15.2907 18.34 16.6407 18.69 18.0007 18.87V16.64ZM20.0007 4V6H22.0007V4H20.0007ZM20.0007 12H22.0007V10H20.0007V12ZM13.0007 10H11.0007V12H13.0007V10Z" fill="black" />
</svg>
