<svg width="24" height="24" viewBox="0 0 24 24" fill="none" xmlns="http://www.w3.org/2000/svg">
<path d="M13 19H11V22H13V19Z" fill="black" />
<path d="M5 11H2V13H5V11Z" fill="black" />
<path d="M22 11H19V13H22V11Z" fill="black" />
<path d="M17.3017 16.3937L15.8945 17.8008L18.0158 19.9221L19.423 18.515L17.3017 16.3937Z" fill="black" />
<path d="M6.70528 16.3865L4.58398 18.5078L5.99111 19.9149L8.11241 17.7936L6.70528 16.3865Z" fill="black" />
<path d="M15 8.02V3H9V8.02C7.79 8.94 7 10.37 7 12C7 14.76 9.24 17 12 17C14.76 17 17 14.76 17 12C17 10.37 16.21 8.94 15 8.02ZM11 5H13V7.1C12.68 7.04 12.34 7 12 7C11.66 7 11.32 7.04 11 7.1V5ZM12 15C10.35 15 9 13.65 9 12C9 10.35 10.35 9 12 9C13.65 9 15 10.35 15 12C15 13.65 13.65 15 12 15Z" fill="black" />
</svg>
