<svg width="24" height="24" viewBox="0 0 24 24" fill="none" xmlns="http://www.w3.org/2000/svg">
<path d="M20.9406 13.0005C20.7906 14.3805 20.3206 15.6705 19.6106 16.7905L18.1406 15.3205C18.5206 14.6105 18.7906 13.8305 18.9106 13.0005H20.9406ZM8.67063 5.84055C9.66063 5.31055 10.8006 5.00055 12.0006 5.00055C14.3706 5.00055 16.4706 6.19055 17.7406 8.00055H15.0006V10.0005H21.0006V4.00055H19.0006V6.36055C17.3506 4.32055 14.8306 3.00055 12.0006 3.00055C10.2406 3.00055 8.60063 3.51055 7.22062 4.39055L8.67063 5.84055ZM11.0006 7.00055V8.17055L13.0006 10.1705V7.00055H11.0006ZM19.7806 22.6105L16.7806 19.6105C15.3906 20.4805 13.7606 21.0005 12.0006 21.0005C7.03062 21.0005 3.00063 16.9705 3.00063 12.0005C3.00063 10.2405 3.51062 8.60055 4.39062 7.22055L1.39062 4.22055L2.80062 2.81055L21.1806 21.1905L19.7806 22.6105ZM15.3206 18.1505L5.84063 8.67055C5.31063 9.66055 5.00063 10.8005 5.00063 12.0005C5.00063 15.8605 8.14062 19.0005 12.0006 19.0005C13.2006 19.0005 14.3406 18.6905 15.3206 18.1505Z" fill="black" />
</svg>
