<svg width="24" height="24" viewBox="0 0 24 24" fill="none" xmlns="http://www.w3.org/2000/svg">
<path d="M15.0008 7V11H16.0008V13H13.0008V5H15.0008L12.0008 1L9.00078 5H11.0008V13H8.00078V10.93C8.70078 10.56 9.20078 9.85 9.20078 9C9.20078 7.79 8.21078 6.8 7.00078 6.8C5.79078 6.8 4.80078 7.79 4.80078 9C4.80078 9.85 5.30078 10.56 6.00078 10.93V13C6.00078 14.11 6.89078 15 8.00078 15H11.0008V18.05C10.2908 18.42 9.80078 19.15 9.80078 20C9.80078 21.22 10.7908 22.2 12.0008 22.2C13.2108 22.2 14.2008 21.22 14.2008 20C14.2008 19.15 13.7108 18.42 13.0008 18.05V15H16.0008C17.1108 15 18.0008 14.11 18.0008 13V11H19.0008V7H15.0008Z" fill="black" />
</svg>
