<svg width="24" height="24" viewBox="0 0 24 24" fill="none" xmlns="http://www.w3.org/2000/svg">
<path d="M15.0006 8H19.0006V12H18.0006V14C18.0006 14.34 17.9206 14.66 17.7706 14.94L16.0006 13.17V12H15.0006V8ZM11.0006 8.17L13.0006 10.17V6H15.0006L12.0006 2L9.00063 6H11.0006V8.17ZM13.0006 16V18.28C13.6006 18.62 14.0006 19.26 14.0006 20C14.0006 21.1 13.1006 22 12.0006 22C10.9006 22 10.0006 21.1 10.0006 20C10.0006 19.26 10.4006 18.63 11.0006 18.28V16H8.00063C6.89062 16 6.00063 15.11 6.00063 14V11.72C5.40063 11.38 5.00063 10.74 5.00063 10C5.00063 9.41 5.26062 8.87 5.68062 8.51L1.39062 4.22L2.80062 2.81L21.1806 21.19L19.7706 22.6L13.1706 16H13.0006ZM11.0006 14V13.83L8.49062 11.32C8.35063 11.48 8.18062 11.61 8.00063 11.72V14H11.0006Z" fill="black" />
</svg>
