<svg width="24" height="24" viewBox="0 0 24 24" fill="none" xmlns="http://www.w3.org/2000/svg">
<path d="M17.5006 9.00055C18.3306 9.00055 19.0006 9.67055 19.0006 10.5005C19.0006 11.3305 18.3306 12.0005 17.5006 12.0005C16.6706 12.0005 16.0006 11.3305 16.0006 10.5005C16.0006 9.67055 16.6706 9.00055 17.5006 9.00055ZM10.8306 8.00055H20.0006V16.0005H18.8306L20.7006 17.8705C21.4506 17.5805 22.0006 16.8505 22.0006 16.0005V8.00055C22.0006 6.90055 21.1006 6.00055 20.0006 6.00055H8.83063L10.8306 8.00055ZM19.7806 22.6105L15.1706 18.0005H4.00063C2.90063 18.0005 2.00063 17.1005 2.00063 16.0005V8.00055C2.00063 7.15055 2.55062 6.42055 3.30062 6.13055L1.39062 4.22055L2.80062 2.81055L21.1806 21.1905L19.7806 22.6105ZM13.1706 16.0005L10.1706 13.0005H9.00063V15.0005H7.00063V13.0005H5.00063V11.0005H7.00063V9.83055L5.17063 8.00055H4.00063V16.0005H13.1706Z" fill="black" />
</svg>
