<svg width="24" height="24" viewBox="0 0 24 24" fill="none" xmlns="http://www.w3.org/2000/svg">
<path d="M9.56 7.99937L7.56 5.99937L3.41 1.85938L2 3.26937L4.73 5.99937H4C3.45 5.99937 3 6.44937 3 6.99937V16.9994C3 17.5494 3.45 17.9994 4 17.9994H16C16.21 17.9994 16.39 17.9194 16.55 17.8194L19.73 20.9994L21.14 19.5894L12.28 10.7294L9.56 7.99937ZM5 15.9994V7.99937H6.73L14.73 15.9994H5ZM15 7.99937V10.6094L21 16.6094V6.49937L17 10.4994V6.99937C17 6.44937 16.55 5.99937 16 5.99937H10.39L12.39 7.99937H15Z" fill="black" />
</svg>
