<svg width="24" height="24" viewBox="0 0 24 24" fill="none" xmlns="http://www.w3.org/2000/svg">
<path d="M3 6H21V11H23V6C23 4.9 22.1 4 21 4H3C1.9 4 1 4.9 1 6V18C1 19.1 1.9 20 3 20H12V18H3V6Z" fill="black" />
<path d="M15 12L9 8V16L15 12Z" fill="black" />
<path d="M22.7092 18.43C22.7392 18.14 22.7492 17.85 22.7192 17.57L23.7892 16.72C23.8892 16.64 23.9092 16.51 23.8492 16.4L22.8192 14.61C22.7592 14.5 22.6292 14.46 22.5092 14.5L21.2292 15C20.9992 14.83 20.7492 14.69 20.4792 14.58L20.2792 13.22C20.2592 13.09 20.1592 13 20.0292 13H17.9592C17.8392 13 17.7292 13.09 17.7092 13.21L17.5092 14.57C17.2492 14.68 16.9992 14.83 16.7692 14.99L15.4892 14.49C15.3692 14.44 15.2392 14.49 15.1792 14.6L14.1492 16.39C14.0892 16.5 14.1092 16.63 14.2092 16.71L15.2792 17.57C15.2492 17.86 15.2392 18.15 15.2692 18.43L14.1992 19.28C14.0992 19.36 14.0792 19.49 14.1392 19.6L15.1692 21.39C15.2292 21.5 15.3592 21.54 15.4792 21.5L16.7492 21C16.9792 21.17 17.2292 21.31 17.4992 21.42L17.6992 22.78C17.7192 22.9 17.8192 22.99 17.9492 22.99H20.0192C20.1392 22.99 20.2492 22.9 20.2692 22.78L20.4692 21.42C20.7292 21.31 20.9792 21.16 21.2092 21L22.4892 21.5C22.6092 21.55 22.7392 21.5 22.7992 21.39L23.8292 19.6C23.8892 19.49 23.8692 19.36 23.7692 19.28L22.7092 18.43ZM18.9992 19.5C18.1692 19.5 17.4992 18.83 17.4992 18C17.4992 17.17 18.1692 16.5 18.9992 16.5C19.8292 16.5 20.4992 17.17 20.4992 18C20.4992 18.83 19.8292 19.5 18.9992 19.5Z" fill="black" />
</svg>
