<svg width="24" height="24" viewBox="0 0 24 24" fill="none" xmlns="http://www.w3.org/2000/svg">
<path d="M4.33969 2.92969L2.92969 4.33969L7.28969 8.69969L6.99969 8.99969H2.99969V14.9997H6.99969L11.9997 19.9997V13.4097L16.1797 17.5897C15.5297 18.0797 14.7997 18.4697 13.9997 18.6997V20.7597C15.3397 20.4597 16.5697 19.8397 17.6097 19.0097L19.6597 21.0597L21.0697 19.6497L4.33969 2.92969ZM9.99969 15.1697L7.82969 12.9997H4.99969V10.9997H7.82969L8.70969 10.1197L9.99969 11.4097V15.1697ZM18.9997 11.9997C18.9997 12.8197 18.8497 13.6097 18.5897 14.3397L20.1197 15.8697C20.6797 14.6997 20.9997 13.3897 20.9997 11.9997C20.9997 7.71969 18.0097 4.13969 13.9997 3.22969V5.28969C16.8897 6.14969 18.9997 8.82969 18.9997 11.9997ZM11.9997 3.99969L10.1197 5.87969L11.9997 7.75969V3.99969ZM16.4997 11.9997C16.4997 10.2297 15.4797 8.70969 13.9997 7.96969V9.75969L16.4797 12.2397C16.4897 12.1597 16.4997 12.0797 16.4997 11.9997Z" fill="black" />
</svg>
