<svg width="24" height="24" viewBox="0 0 24 24" fill="none" xmlns="http://www.w3.org/2000/svg">
<path d="M2.81 2.81055L1.39 4.22055L3.98 6.81055C2.2 7.85055 1 9.79055 1 12.0005C1 15.3105 3.69 18.0005 7 18.0005C9.22 18.0005 11.15 16.7905 12.19 15.0005L19.78 22.6105L21.19 21.2005L2.81 2.81055ZM7 16.0005C4.79 16.0005 3 14.2105 3 12.0005C3 10.3305 4.02 8.90055 5.47 8.30055L7.18 10.0105C7.12 10.0005 7.06 10.0005 7 10.0005C5.9 10.0005 5 10.9005 5 12.0005C5 13.1005 5.9 14.0005 7 14.0005C8.1 14.0005 9 13.1005 9 12.0005C9 11.9405 9 11.8805 8.99 11.8205L10.73 13.5605C10.22 14.4805 9.14 16.0005 7 16.0005ZM17 14.1705V13.0005H15.83L17 14.1705ZM13.83 11.0005H21V13.0005H19V16.0005L21 18.0005V15.0005H23V9.00055H11.83L13.83 11.0005Z" fill="black" />
</svg>
