<svg width="24" height="24" viewBox="0 0 24 24" fill="none" xmlns="http://www.w3.org/2000/svg">
<path d="M12.001 7C14.761 7 17.001 9.24 17.001 12C17.001 12.64 16.871 13.25 16.651 13.82L18.151 15.32C18.691 14.33 19.001 13.2 19.001 12C19.001 9.78 17.971 7.81 16.361 6.53L15.001 2H9.00102L8.04102 5.21L10.181 7.35C10.751 7.13 11.361 7 12.001 7ZM10.491 4H13.511L13.891 5.27C13.341 5.11 11.921 4.76 10.111 5.27L10.491 4Z" fill="black" />
<path d="M2.81062 2.81055L1.39062 4.22055L5.85063 8.68055C5.31063 9.67055 5.00063 10.8005 5.00063 12.0005C5.00063 14.2205 6.03062 16.1905 7.64062 17.4705L9.00063 22.0005H15.0006L15.9606 18.7905L19.7806 22.6105L21.1906 21.2005L2.81062 2.81055ZM13.5106 20.0005H10.4906L10.1106 18.7305C10.6606 18.8805 12.0806 19.2405 13.8906 18.7305L13.5106 20.0005ZM12.0006 17.0005C9.24062 17.0005 7.00063 14.7605 7.00063 12.0005C7.00063 11.3605 7.13063 10.7505 7.35063 10.1805L13.8206 16.6505C13.2506 16.8705 12.6406 17.0005 12.0006 17.0005Z" fill="black" />
</svg>
