<svg width="24" height="24" viewBox="0 0 24 24" fill="none" xmlns="http://www.w3.org/2000/svg">
<path d="M5.00078 15H19.0008V9H5.00078V15ZM7.00078 11H17.0008V13H7.00078V11ZM11.0008 1H13.0008V4H11.0008V1ZM20.4608 5.01L19.0408 3.6L17.2508 5.39L18.6608 6.8L20.4608 5.01ZM11.0008 20H13.0008V23H11.0008V20ZM17.2408 18.71L19.0308 20.51L20.4508 19.09L18.6508 17.3L17.2408 18.71ZM4.96078 3.595L6.74878 5.385L5.34078 6.79L3.55378 5.003L4.96078 3.595ZM3.55078 19.08L4.96078 20.5L6.75078 18.7L5.34078 17.29L3.55078 19.08Z" fill="black" />
</svg>
