<svg width="24" height="24" viewBox="0 0 24 24" fill="none" xmlns="http://www.w3.org/2000/svg">
<path d="M21 11.0006L23 9.00063C19.27 5.27063 14.13 3.85063 9.3 4.69063L11.88 7.27063C15.18 7.25063 18.49 8.49062 21 11.0006ZM19 13.0006C17.92 11.9206 16.64 11.1506 15.28 10.6706L18.3 13.6906L19 13.0006ZM9 17.0006L12 20.0006L15 17.0006C13.35 15.3406 10.66 15.3406 9 17.0006ZM3.41 1.64062L2 3.05062L5.05 6.10063C3.59 6.83063 2.22 7.79063 1 9.00063L3 11.0006C4.23 9.77062 5.65 8.84063 7.17 8.22063L9.41 10.4606C7.79 10.8906 6.27 11.7406 5 13.0006L7 15.0006C8.35 13.6506 10.11 12.9606 11.89 12.9406L18.97 20.0206L20.38 18.6106L3.41 1.64062Z" fill="black" />
</svg>
