<svg width="24" height="24" viewBox="0 0 24 24" fill="none" xmlns="http://www.w3.org/2000/svg">
<path d="M2.81062 2.81055L1.39062 4.22055L4.08063 6.91055C2.78063 8.60055 2.00063 10.7105 2.00063 13.0005C2.00063 15.7605 3.12063 18.2605 4.93062 20.0705L6.35063 18.6505C4.90062 17.2105 4.00063 15.2105 4.00063 13.0005C4.00063 11.2505 4.57063 9.65055 5.51063 8.34055L6.94063 9.77055C6.35063 10.7005 6.00063 11.8105 6.00063 13.0005C6.00063 14.6605 6.68063 16.1505 7.76063 17.2405L9.18063 15.8205C8.45063 15.1005 8.00063 14.1105 8.00063 13.0005C8.00063 12.3705 8.15063 11.7705 8.41062 11.2405L10.0206 12.8505C10.0206 12.9005 10.0006 12.9505 10.0006 13.0005C10.0006 13.5505 10.2306 14.0505 10.5906 14.4105C10.9506 14.7705 11.4506 15.0005 12.0006 15.0005C12.0506 15.0005 12.1006 14.9905 12.1606 14.9805L19.7806 22.6005L21.1906 21.1905L2.81062 2.81055ZM17.7006 14.8705C17.8906 14.2805 18.0006 13.6505 18.0006 13.0005C18.0006 9.69055 15.3106 7.00055 12.0006 7.00055C11.3506 7.00055 10.7206 7.10055 10.1306 7.30055L11.8406 9.01055C11.8906 9.00055 11.9506 9.00055 12.0006 9.00055C14.2106 9.00055 16.0006 10.7905 16.0006 13.0005C16.0006 13.0505 16.0006 13.1105 15.9906 13.1605L17.7006 14.8705ZM12.0006 5.00055C16.4206 5.00055 20.0006 8.58055 20.0006 13.0005C20.0006 14.2205 19.7306 15.3705 19.2306 16.4005L20.7206 17.8905C21.5306 16.4505 22.0006 14.7805 22.0006 13.0005C22.0006 7.48055 17.5206 3.00055 12.0006 3.00055C10.2206 3.00055 8.56063 3.46055 7.11063 4.28055L8.59063 5.76055C9.63062 5.27055 10.7806 5.00055 12.0006 5.00055Z" fill="black" />
</svg>
