<svg width="24" height="24" viewBox="0 0 24 24" fill="none" xmlns="http://www.w3.org/2000/svg">
<path d="M16.4901 4.5C18.2801 4.5 19.9101 5.23 21.0801 6.41L22.1401 5.35C20.7001 3.9 18.7001 3 16.4901 3C14.2801 3 12.2801 3.9 10.8301 5.34L11.8901 6.4C13.0801 5.23 14.7001 4.5 16.4901 4.5Z" fill="black" />
<path d="M16.4892 6C15.1092 6 13.8592 6.56 12.9492 7.46L14.0092 8.52C14.6392 7.89 15.5192 7.49 16.4792 7.49C17.4392 7.49 18.3192 7.88 18.9492 8.52L20.0092 7.46C19.1192 6.56 17.8692 6 16.4892 6Z" fill="black" />
<path d="M16.4901 9C15.9401 9 15.4401 9.22 15.0801 9.59L16.4901 11L17.9001 9.59C17.5401 9.22 17.0401 9 16.4901 9Z" fill="black" />
<path d="M20.1994 14.87L16.5294 14.14C16.0294 14.04 15.6994 14.34 15.6294 14.41L13.1094 16.91C10.6094 15.48 8.53941 13.41 7.10941 10.91L9.60941 8.39C9.83941 8.15 9.93941 7.82 9.87941 7.49L9.12941 3.8C9.03941 3.34 8.62941 3 8.14941 3H3.99941C3.43941 3 2.96941 3.47 2.99941 4.03C3.16941 6.92 4.04941 9.63 5.42941 12C7.00941 14.73 9.27941 16.99 11.9994 18.57C14.3694 19.94 17.0794 20.83 19.9694 21C20.5194 21.03 20.9994 20.57 20.9994 20V15.85C20.9994 15.37 20.6594 14.96 20.1994 14.87ZM5.09941 5H7.32941L7.79941 7.35L6.16941 9C5.62941 7.7 5.26941 6.37 5.09941 5ZM18.9994 18.9C17.6294 18.72 16.2994 18.37 14.9994 17.83L16.6494 16.2L18.9994 16.67V18.9Z" fill="black" />
</svg>
