<svg width="24" height="24" viewBox="0 0 24 24" fill="none" xmlns="http://www.w3.org/2000/svg">
<path d="M18 11C18 11.07 18 11.13 18 11.2C18 13.54 16.05 16.64 12 20.34C7.95 16.64 6 13.55 6 11.2C6 7.57 8.65 5 12 5C12.34 5 12.68 5.03 13 5.08V3.06C12.67 3.02 12.34 3 12 3C7.8 3 4 6.22 4 11.2C4 14.52 6.67 18.45 12 23C17.33 18.45 20 14.52 20 11.2C20 11.13 20 11.07 20 11H18Z" fill="black" />
<path d="M12 13C13.1046 13 14 12.1046 14 11C14 9.89543 13.1046 9 12 9C10.8954 9 10 9.89543 10 11C10 12.1046 10.8954 13 12 13Z" fill="black" />
<path d="M22.5409 2.88094L21.1209 1.46094L19.0009 3.59094L16.8809 1.46094L15.4609 2.88094L17.5909 5.00094L15.4609 7.12094L16.8809 8.54094L19.0009 6.41094L21.1209 8.54094L22.5409 7.12094L20.4109 5.00094L22.5409 2.88094Z" fill="black" />
</svg>
